<svg width="25" height="25" viewBox="0 0 25 25" fill="none" xmlns="http://www.w3.org/2000/svg">
<path d="M12.4998 23.8056C12.9372 23.7955 13.357 23.631 13.6849 23.3413C14.0128 23.0515 14.2276 22.6551 14.2914 22.2222H10.6387C10.7043 22.6669 10.9292 23.0726 11.2715 23.3638C11.6139 23.6551 12.0504 23.8121 12.4998 23.8056Z" fill="white"/>
<path d="M22.8126 19.5347L22.5765 19.3264C21.9067 18.7296 21.3204 18.0452 20.8334 17.2917C20.3017 16.2518 19.9829 15.1161 19.8959 13.9514V10.5208C19.8931 10.1041 19.856 9.68837 19.7848 9.27777C18.6085 9.036 17.5519 8.39515 16.7939 7.46373C16.0358 6.53232 15.6229 5.36756 15.6251 4.16666V3.72916C14.9001 3.37235 14.1211 3.13771 13.3196 3.03472V2.15972C13.3196 1.91384 13.2219 1.67803 13.048 1.50417C12.8742 1.33031 12.6383 1.23264 12.3925 1.23264C12.1466 1.23264 11.9108 1.33031 11.7369 1.50417C11.5631 1.67803 11.4654 1.91384 11.4654 2.15972V3.06944C9.67075 3.3226 8.02829 4.21649 6.84123 5.58606C5.65418 6.95564 5.0027 8.70843 5.00705 10.5208V13.9514C4.92008 15.1161 4.60134 16.2518 4.06955 17.2917C3.591 18.0433 3.01413 18.7276 2.35428 19.3264L2.11816 19.5347V21.4931H22.8126V19.5347Z" fill="white"/>
<path d="M20.8336 7.6389C22.7512 7.6389 24.3058 6.08434 24.3058 4.16668C24.3058 2.24902 22.7512 0.694458 20.8336 0.694458C18.9159 0.694458 17.3613 2.24902 17.3613 4.16668C17.3613 6.08434 18.9159 7.6389 20.8336 7.6389Z" fill="#FD2A1C"/>
</svg>
