<svg width="27" height="27" viewBox="0 0 27 27" fill="none" xmlns="http://www.w3.org/2000/svg">
<path d="M24.6375 21.0975L24.3825 20.8725C23.6591 20.2279 23.0259 19.4888 22.5 18.675C21.9257 17.5519 21.5814 16.3254 21.4875 15.0675V11.3625C21.4925 9.3867 20.7758 7.47709 19.4721 5.99247C18.1683 4.50784 16.3674 3.55038 14.4075 3.29999V2.33249C14.4075 2.06694 14.302 1.81227 14.1142 1.6245C13.9265 1.43673 13.6718 1.33124 13.4063 1.33124C13.1407 1.33124 12.886 1.43673 12.6983 1.6245C12.5105 1.81227 12.405 2.06694 12.405 2.33249V3.31499C10.4627 3.58343 8.68348 4.54668 7.3969 6.02632C6.11032 7.50596 5.40355 9.40172 5.40751 11.3625V15.0675C5.31357 16.3254 4.96934 17.5519 4.39501 18.675C3.87817 19.4868 3.25515 20.2258 2.54251 20.8725L2.28751 21.0975V23.2125H24.6375V21.0975Z" fill="white"/>
<path d="M11.49 24C11.5558 24.4754 11.7913 24.911 12.1532 25.2262C12.5151 25.5415 12.9788 25.7151 13.4587 25.7151C13.9387 25.7151 14.4024 25.5415 14.7643 25.2262C15.1261 24.911 15.3617 24.4754 15.4275 24H11.49Z" fill="white"/>
</svg>
