<svg width="159" height="48" viewBox="0 0 159 48" fill="none" xmlns="http://www.w3.org/2000/svg">
<g filter="url(#filter0_d_402_330)">
<rect x="5" y="1" width="148.545" height="38" rx="10.3723" fill="#4C65E4"/>
<path d="M61.2595 26.5233C59.8662 26.5233 58.6692 26.2447 57.6685 25.6873C56.6805 25.1173 55.9205 24.3193 55.3885 23.2933C54.8565 22.2547 54.5905 21.0323 54.5905 19.6263C54.5905 18.2203 54.8565 17.0043 55.3885 15.9783C55.9205 14.9523 56.6805 14.1607 57.6685 13.6033C58.6692 13.0333 59.8662 12.7483 61.2595 12.7483C62.1588 12.7483 63.0075 12.8877 63.8055 13.1663C64.6162 13.445 65.2812 13.844 65.8005 14.3633L65.0025 16.3013C64.4325 15.82 63.8498 15.4717 63.2545 15.2563C62.6592 15.0283 62.0195 14.9143 61.3355 14.9143C59.9802 14.9143 58.9478 15.326 58.2385 16.1493C57.5292 16.96 57.1745 18.119 57.1745 19.6263C57.1745 21.1337 57.5292 22.299 58.2385 23.1223C58.9478 23.9457 59.9802 24.3573 61.3355 24.3573C62.0195 24.3573 62.6592 24.2497 63.2545 24.0343C63.8498 23.8063 64.4325 23.4517 65.0025 22.9703L65.8005 24.9083C65.2812 25.415 64.6162 25.814 63.8055 26.1053C63.0075 26.384 62.1588 26.5233 61.2595 26.5233ZM70.42 26.5233C69.7487 26.5233 69.147 26.3967 68.615 26.1433C68.0957 25.8773 67.684 25.5227 67.38 25.0793C67.0887 24.636 66.943 24.1357 66.943 23.5783C66.943 22.8943 67.1204 22.356 67.475 21.9633C67.8297 21.558 68.406 21.2667 69.204 21.0893C70.002 20.912 71.0724 20.8233 72.415 20.8233H73.08V20.4243C73.08 19.791 72.9407 19.335 72.662 19.0563C72.3834 18.7777 71.9147 18.6383 71.256 18.6383C70.7367 18.6383 70.2047 18.7207 69.66 18.8853C69.1154 19.0373 68.5644 19.278 68.007 19.6073L67.323 17.9923C67.6524 17.7643 68.0387 17.568 68.482 17.4033C68.938 17.226 69.413 17.093 69.907 17.0043C70.4137 16.903 70.8887 16.8523 71.332 16.8523C72.6874 16.8523 73.6944 17.169 74.353 17.8023C75.0117 18.423 75.341 19.392 75.341 20.7093V26.3333H73.118V24.8513C72.9027 25.3707 72.5607 25.7823 72.092 26.0863C71.6234 26.3777 71.066 26.5233 70.42 26.5233ZM70.914 24.8893C71.5347 24.8893 72.0477 24.674 72.453 24.2433C72.871 23.8127 73.08 23.268 73.08 22.6093V22.1913H72.434C71.2434 22.1913 70.4137 22.2863 69.945 22.4763C69.489 22.6537 69.261 22.983 69.261 23.4643C69.261 23.8823 69.4067 24.2243 69.698 24.4903C69.9894 24.7563 70.3947 24.8893 70.914 24.8893ZM80.9817 26.5233C79.8797 26.5233 79.0627 26.2257 78.5307 25.6303C78.0113 25.0223 77.7517 24.1357 77.7517 22.9703V12.9383H80.1267V22.8563C80.1267 23.9963 80.608 24.5663 81.5707 24.5663C81.71 24.5663 81.8493 24.56 81.9887 24.5473C82.128 24.5347 82.261 24.5093 82.3877 24.4713L82.3497 26.3523C81.8937 26.4663 81.4377 26.5233 80.9817 26.5233ZM87.049 26.5233C85.947 26.5233 85.13 26.2257 84.598 25.6303C84.0787 25.0223 83.819 24.1357 83.819 22.9703V12.9383H86.194V22.8563C86.194 23.9963 86.6754 24.5663 87.638 24.5663C87.7774 24.5663 87.9167 24.56 88.056 24.5473C88.1954 24.5347 88.3284 24.5093 88.455 24.4713L88.417 26.3523C87.961 26.4663 87.505 26.5233 87.049 26.5233ZM95.2355 26.3333V12.9383H97.6675V24.2623H104.09V26.3333H95.2355ZM109.821 26.5233C108.858 26.5233 108.022 26.327 107.313 25.9343C106.603 25.5417 106.052 24.9843 105.66 24.2623C105.267 23.5277 105.071 22.6663 105.071 21.6783C105.071 20.6903 105.267 19.8353 105.66 19.1133C106.052 18.3913 106.603 17.834 107.313 17.4413C108.022 17.0487 108.858 16.8523 109.821 16.8523C110.783 16.8523 111.619 17.0487 112.329 17.4413C113.038 17.834 113.589 18.3913 113.982 19.1133C114.374 19.8353 114.571 20.6903 114.571 21.6783C114.571 22.6663 114.374 23.5277 113.982 24.2623C113.589 24.9843 113.038 25.5417 112.329 25.9343C111.619 26.327 110.783 26.5233 109.821 26.5233ZM109.821 24.7183C110.53 24.7183 111.1 24.465 111.531 23.9583C111.961 23.439 112.177 22.679 112.177 21.6783C112.177 20.665 111.961 19.9113 111.531 19.4173C111.1 18.9107 110.53 18.6573 109.821 18.6573C109.111 18.6573 108.541 18.9107 108.111 19.4173C107.68 19.9113 107.465 20.665 107.465 21.6783C107.465 22.679 107.68 23.439 108.111 23.9583C108.541 24.465 109.111 24.7183 109.821 24.7183ZM120.863 29.9433C120.002 29.9433 119.191 29.842 118.431 29.6393C117.684 29.4493 117.025 29.1517 116.455 28.7463L117.139 27.0933C117.671 27.448 118.241 27.7077 118.849 27.8723C119.457 28.0497 120.065 28.1383 120.673 28.1383C122.37 28.1383 123.219 27.3213 123.219 25.6873V24.4143C122.953 24.9337 122.541 25.3453 121.984 25.6493C121.439 25.9533 120.831 26.1053 120.16 26.1053C119.324 26.1053 118.596 25.9153 117.975 25.5353C117.354 25.1427 116.873 24.598 116.531 23.9013C116.189 23.2047 116.018 22.394 116.018 21.4693C116.018 20.5447 116.189 19.7403 116.531 19.0563C116.873 18.3597 117.354 17.8213 117.975 17.4413C118.596 17.0487 119.324 16.8523 120.16 16.8523C120.857 16.8523 121.477 17.0107 122.022 17.3273C122.567 17.6313 122.966 18.043 123.219 18.5623V17.0423H125.537V25.4023C125.537 26.9097 125.138 28.0433 124.34 28.8033C123.542 29.5633 122.383 29.9433 120.863 29.9433ZM120.806 24.3003C121.541 24.3003 122.123 24.047 122.554 23.5403C122.985 23.0337 123.2 22.3433 123.2 21.4693C123.2 20.5953 122.985 19.9113 122.554 19.4173C122.123 18.9107 121.541 18.6573 120.806 18.6573C120.071 18.6573 119.489 18.9107 119.058 19.4173C118.627 19.9113 118.412 20.5953 118.412 21.4693C118.412 22.3433 118.627 23.0337 119.058 23.5403C119.489 24.047 120.071 24.3003 120.806 24.3003Z" fill="white"/>
<path d="M27.2722 14.5111H34.5556V16.1296H27.2722V14.5111Z" fill="white"/>
<path d="M27.2722 17.7481H34.5556V19.3666H27.2722V17.7481Z" fill="white"/>
<path d="M27.2722 20.9852H34.5556V22.6037H27.2722V20.9852Z" fill="white"/>
<path d="M27.2722 24.2222H34.5556V25.8407H27.2722V24.2222Z" fill="white"/>
<path d="M24.0352 11.2741H25.6537V12.8926H24.0352V11.2741Z" fill="white"/>
<path d="M24.0352 14.5111H25.6537V16.1296H24.0352V14.5111Z" fill="white"/>
<path d="M24.0352 17.7481H25.6537V19.3666H24.0352V17.7481Z" fill="white"/>
<path d="M24.0352 20.9852H25.6537V22.6037H24.0352V20.9852Z" fill="white"/>
<path d="M24.0352 24.2222H25.6537V25.8407H24.0352V24.2222Z" fill="white"/>
<path d="M27.2722 11.2741V12.8926H34.2804C33.9619 12.3915 33.7193 11.8461 33.5602 11.2741H27.2722Z" fill="white"/>
<path d="M37.7926 15.4984V30.6963H21.6074V8.03707H33.5683C33.7248 7.46549 33.9648 6.92012 34.2804 6.41855H21.6074C21.1782 6.41855 20.7665 6.58907 20.4629 6.8926C20.1594 7.19613 19.9889 7.60781 19.9889 8.03707V30.6963C19.9889 31.1256 20.1594 31.5373 20.4629 31.8408C20.7665 32.1443 21.1782 32.3148 21.6074 32.3148H37.7926C38.2219 32.3148 38.6335 32.1443 38.9371 31.8408C39.2406 31.5373 39.4111 31.1256 39.4111 30.6963V15.725C38.8639 15.7229 38.3194 15.6467 37.7926 15.4984Z" fill="white"/>
<path d="M39.4111 13.7018C41.6458 13.7018 43.4574 11.8903 43.4574 9.65555C43.4574 7.42084 41.6458 5.60925 39.4111 5.60925C37.1764 5.60925 35.3648 7.42084 35.3648 9.65555C35.3648 11.8903 37.1764 13.7018 39.4111 13.7018Z" fill="white"/>
</g>
<defs>
<filter id="filter0_d_402_330" x="0" y="0" width="158.545" height="48" filterUnits="userSpaceOnUse" color-interpolation-filters="sRGB">
<feFlood flood-opacity="0" result="BackgroundImageFix"/>
<feColorMatrix in="SourceAlpha" type="matrix" values="0 0 0 0 0 0 0 0 0 0 0 0 0 0 0 0 0 0 127 0" result="hardAlpha"/>
<feOffset dy="4"/>
<feGaussianBlur stdDeviation="2.5"/>
<feComposite in2="hardAlpha" operator="out"/>
<feColorMatrix type="matrix" values="0 0 0 0 0.210694 0 0 0 0 0.277466 0 0 0 0 0.616667 0 0 0 0.25 0"/>
<feBlend mode="normal" in2="BackgroundImageFix" result="effect1_dropShadow_402_330"/>
<feBlend mode="normal" in="SourceGraphic" in2="effect1_dropShadow_402_330" result="shape"/>
</filter>
</defs>
</svg>
