<svg width="272" height="188" viewBox="0 0 272 188" fill="none" xmlns="http://www.w3.org/2000/svg">
<g clip-path="url(#clip0_336_353)">
<path d="M244.746 172.501H226.728V172.637H244.746V172.501Z" fill="#EBEBEB"/>
<path d="M180.184 173.974H175.456V174.11H180.184V173.974Z" fill="#EBEBEB"/>
<path d="M226.184 167.452H215.745V167.588H226.184V167.452Z" fill="#EBEBEB"/>
<path d="M52.0337 168.365H28.5383V168.501H52.0337V168.365Z" fill="#EBEBEB"/>
<path d="M60.3241 168.365H56.8806V168.501H60.3241V168.365Z" fill="#EBEBEB"/>
<path d="M122.482 170.664H71.5198V170.8H122.482V170.664Z" fill="#EBEBEB"/>
<path d="M272 163.751H0V163.887H272V163.751Z" fill="#EBEBEB"/>
<path d="M190.438 160.599H242.216V91.7719H190.438V160.599Z" fill="#F5F5F5"/>
<path d="M180.559 160.599H190.438V91.7719H180.559V160.599Z" fill="#E6E6E6"/>
<path d="M193.8 113.597H238.587V96.8803H193.8V113.597Z" fill="#FAFAFA"/>
<path d="M222.034 96.8803L221.838 99.1084C221.808 99.4635 221.645 99.7943 221.382 100.035C221.119 100.276 220.775 100.409 220.418 100.407H211.97C211.613 100.409 211.269 100.276 211.006 100.035C210.743 99.7943 210.58 99.4635 210.55 99.1084L210.354 96.8803H222.034Z" fill="#EBEBEB"/>
<path d="M193.8 132.134H238.587V115.417H193.8V132.134Z" fill="#FAFAFA"/>
<path d="M222.034 115.423L221.838 117.651C221.807 118.005 221.643 118.335 221.381 118.576C221.118 118.816 220.774 118.95 220.418 118.95H211.97C211.613 118.95 211.27 118.816 211.007 118.576C210.744 118.335 210.581 118.005 210.55 117.651L210.354 115.423H222.034Z" fill="#EBEBEB"/>
<path d="M193.8 150.676H238.587V133.96H193.8V150.676Z" fill="#FAFAFA"/>
<path d="M222.034 133.96L221.838 136.188C221.808 136.543 221.645 136.874 221.382 137.114C221.119 137.355 220.775 137.488 220.418 137.487H211.97C211.613 137.488 211.269 137.355 211.006 137.114C210.743 136.874 210.58 136.543 210.55 136.188L210.354 133.96H222.034Z" fill="#EBEBEB"/>
<path d="M193.8 164.034H238.044L238.588 160.594H193.8V164.034Z" fill="#E6E6E6"/>
<path d="M184.552 164.034H193.8V160.594H184.008L184.552 164.034Z" fill="#E0E0E0"/>
<path d="M214.597 91.848H232.277L230.319 69.4471H212.639L214.597 91.848Z" fill="#FAFAFA"/>
<path d="M214.597 91.848H213.754L211.79 69.4471H212.639L214.597 91.848Z" fill="#EBEBEB"/>
<path d="M216.202 89.5655H230.275L228.714 71.735H214.641L216.202 89.5655Z" fill="#F0F0F0"/>
<path d="M217.23 88.0982H228.986L227.686 73.2023H215.925L217.23 88.0982Z" fill="#E6E6E6"/>
<path d="M209.63 91.848L210.843 77.9846H193.245L192.032 91.848H209.63Z" fill="#F0F0F0"/>
<path d="M209.63 91.848L210.843 77.9846H211.79L210.577 91.848H209.63Z" fill="#E0E0E0"/>
<path d="M207.96 90.435L208.929 79.3976H194.915L193.947 90.435H207.96Z" fill="#EBEBEB"/>
<path d="M206.889 89.5274L207.694 80.3051H195.987L195.182 89.5274H206.889Z" fill="#F5F5F5"/>
<path d="M168.988 154.719C168.988 158.393 168.411 160.768 167.443 162.295C167.071 162.854 166.564 163.311 165.969 163.625C165.374 163.938 164.71 164.097 164.038 164.088H158.712C158.04 164.097 157.376 163.938 156.781 163.625C156.186 163.311 155.679 162.854 155.306 162.295C154.338 160.768 153.756 158.393 153.756 154.719C153.756 149.388 156.084 145.122 156.846 141.72C157.118 140.492 156.204 136.731 156.204 136.731H166.54C166.54 136.731 165.632 140.492 165.904 141.72C166.665 145.122 168.988 149.41 168.988 154.719Z" fill="#EBEBEB"/>
<path d="M186.592 133.155C186.592 128.525 179.33 130.438 177.502 123.27C176.805 120.553 182.713 114.396 182.713 114.396H164.288C164.288 114.396 170.196 120.553 169.499 123.27C167.672 130.449 160.409 128.525 160.409 133.155C160.409 138.247 170.653 148.861 171.148 160.806C171.191 161.893 169.222 164.067 169.222 164.067H177.774C177.774 164.067 175.799 161.849 175.848 160.806C176.348 148.866 186.592 138.247 186.592 133.155Z" fill="#F5F5F5"/>
<path d="M181.027 145.176C182.115 142.927 179.885 135.286 179.885 135.286H187.865C187.865 135.286 185.651 142.927 186.723 145.176C187.479 146.763 189.192 147.78 189.192 149.654V160.942C189.192 163.866 186.799 164.088 183.872 164.088C180.945 164.088 178.552 163.866 178.552 160.942V149.654C178.552 147.78 180.271 146.763 181.027 145.176Z" fill="#F0F0F0"/>
<path d="M89.8416 78.5064C85.2611 76.5228 82.6445 72.3382 84.0154 69.1754C85.3863 66.0125 90.2278 65.056 94.8138 67.0396C99.3997 69.0232 102.011 73.2077 100.64 76.3706C99.2691 79.5335 94.4275 80.4899 89.8416 78.5064ZM93.4919 70.0666C91.3159 69.1373 89.0746 69.5829 88.4326 71.0666C87.7907 72.5502 89.0147 74.5066 91.1526 75.4141C93.2906 76.3217 95.5699 75.8978 96.2119 74.4142C96.8538 72.9306 95.6407 71.0177 93.4919 70.0666Z" fill="#E6E6E6"/>
<path d="M95.238 70.2622L93.062 69.3221L106.227 38.9217C106.288 38.7784 106.378 38.6488 106.49 38.5402C106.602 38.4317 106.734 38.3464 106.879 38.2893C107.024 38.2322 107.179 38.2044 107.335 38.2075C107.491 38.2107 107.645 38.2447 107.788 38.3076C107.931 38.369 108.06 38.4581 108.168 38.5695C108.276 38.681 108.361 38.8127 108.419 38.9572C108.476 39.1016 108.504 39.2558 108.501 39.4111C108.498 39.5663 108.465 39.7195 108.403 39.8618L95.238 70.2622Z" fill="#E6E6E6"/>
<path d="M109.409 42.8019L105.226 40.9759L106.172 38.8021L110.35 40.6227L109.409 42.8019Z" fill="#E6E6E6"/>
<path d="M107.347 45.2311L104.355 43.9322L105.297 41.7585L108.289 43.0573L107.347 45.2311Z" fill="#E6E6E6"/>
<path d="M104.077 45.906L103.135 48.0804L106.49 49.5313L107.432 47.3569L104.077 45.906Z" fill="#E6E6E6"/>
<path d="M96.0813 67.0179L94.8845 66.5016C94.5986 66.3764 94.374 66.1431 94.2598 65.8529C94.1456 65.5626 94.1511 65.239 94.2752 64.9528C94.3996 64.6662 94.6326 64.4405 94.9233 64.3254C95.214 64.2103 95.5385 64.2151 95.8256 64.3387L97.0224 64.855C97.3084 64.9802 97.533 65.2134 97.6472 65.5037C97.7614 65.794 97.7558 66.1176 97.6317 66.4038C97.5074 66.6904 97.2743 66.916 96.9837 67.0312C96.693 67.1463 96.3685 67.1415 96.0813 67.0179Z" fill="#E6E6E6"/>
<path d="M189.568 56.5674C190.932 57.4281 192.009 58.6757 192.66 60.1508C193.312 61.6258 193.508 63.2614 193.225 64.8485C192.941 66.4356 192.19 67.9022 191.068 69.061C189.946 70.2197 188.503 71.018 186.925 71.3538C185.346 71.6896 183.704 71.5477 182.206 70.9462C180.709 70.3447 179.425 69.3109 178.519 67.977C177.612 66.643 177.125 65.0694 177.118 63.4572C177.111 61.845 177.586 60.2674 178.481 58.9259C179.64 57.1463 181.458 55.8985 183.536 55.4564C185.615 55.0142 187.784 55.4138 189.568 56.5674ZM182.958 66.4744C183.577 66.91 184.313 67.1511 185.07 67.1669C185.827 67.1828 186.572 66.9726 187.209 66.5634C187.846 66.1542 188.347 65.5644 188.647 64.8696C188.947 64.1747 189.032 63.4063 188.893 62.6626C188.753 61.9188 188.395 61.2336 187.863 60.6944C187.332 60.1553 186.651 59.7867 185.909 59.6359C185.167 59.485 184.396 59.5587 183.696 59.8475C182.996 60.1364 182.398 60.6272 181.979 61.2573C181.417 62.079 181.204 63.0901 181.388 64.0683C181.571 65.0466 182.136 65.912 182.958 66.4744Z" fill="#E6E6E6"/>
<path d="M182.082 65.5071L184.334 67.007L168.221 91.636C168.022 91.9341 167.712 92.141 167.36 92.2113C167.008 92.2816 166.643 92.2096 166.344 92.011C166.197 91.9129 166.07 91.7867 165.971 91.6397C165.872 91.4926 165.804 91.3276 165.769 91.154C165.734 90.9803 165.734 90.8016 165.768 90.6278C165.802 90.4541 165.871 90.2889 165.969 90.1415L182.082 65.5071Z" fill="#E6E6E6"/>
<path d="M166.072 84.7668L170.816 87.946L168.45 91.4947L163.701 88.3101C163.374 88.0903 163.148 87.7503 163.071 87.3643C162.995 86.9784 163.074 86.578 163.293 86.2505L164.005 85.1636C164.228 84.8387 164.57 84.6148 164.957 84.5405C165.344 84.4663 165.745 84.5476 166.072 84.7668Z" fill="#E6E6E6"/>
<path d="M123.782 9.50489L121.279 15.9719C121.226 16.1107 121.145 16.2376 121.043 16.3454C120.94 16.4531 120.817 16.5396 120.681 16.5999C120.545 16.6602 120.398 16.6932 120.249 16.6968C120.1 16.7005 119.952 16.6749 119.813 16.6213C119.674 16.5678 119.547 16.4875 119.439 16.3849C119.332 16.2823 119.245 16.1595 119.185 16.0235C119.124 15.8875 119.091 15.741 119.088 15.5923C119.084 15.4435 119.11 15.2955 119.163 15.1567L121.666 8.68972C122.053 7.68427 122.025 6.56659 121.588 5.58157C121.152 4.59654 120.343 3.82449 119.337 3.43459L117.02 2.5379C116.015 2.15075 114.897 2.17696 113.911 2.6108C112.926 3.04464 112.152 3.8508 111.759 4.85299L110.737 7.49414L108.626 6.67897L109.649 4.03782C109.948 3.26276 110.397 2.5542 110.971 1.95258C111.544 1.35096 112.231 0.86806 112.991 0.531465C113.751 0.19487 114.57 0.011168 115.402 -0.00915418C116.233 -0.0294763 117.06 0.113981 117.836 0.413025L120.153 1.30428C120.931 1.60437 121.642 2.05461 122.245 2.62926C122.848 3.20391 123.332 3.8917 123.669 4.65331C124.006 5.41492 124.189 6.23541 124.209 7.06788C124.228 7.90035 124.083 8.72846 123.782 9.50489Z" fill="#F0F0F0"/>
<path d="M123.385 10.5211C123.212 10.2996 122.983 10.1288 122.721 10.0266L110.1 5.13558C109.717 4.9914 109.292 5.00347 108.918 5.16917C108.543 5.33487 108.249 5.64094 108.098 6.0214L103.202 18.6348C103.055 19.0168 103.066 19.4414 103.232 19.8154C103.398 20.1895 103.707 20.4822 104.089 20.6292L116.71 25.5203C116.899 25.5939 117.102 25.6293 117.305 25.6246C117.508 25.6199 117.709 25.5751 117.895 25.4928C118.081 25.4105 118.249 25.2923 118.389 25.145C118.529 24.9977 118.639 24.8242 118.712 24.6345L123.608 12.0265C123.704 11.7778 123.735 11.5082 123.696 11.2443C123.656 10.9804 123.549 10.7312 123.385 10.5211ZM113.799 20.2651L109.801 18.7217L111.917 15.0317C111.753 14.7014 111.674 14.3353 111.687 13.9668C111.701 13.5982 111.806 13.2388 111.993 12.921C112.181 12.6033 112.444 12.3373 112.761 12.147C113.077 11.9568 113.436 11.8484 113.804 11.8316C114.173 11.8148 114.54 11.8902 114.873 12.0509C115.205 12.2116 115.492 12.4525 115.707 12.7519C115.923 13.0513 116.06 13.3997 116.107 13.7655C116.154 14.1314 116.109 14.503 115.975 14.847C115.866 15.1343 115.697 15.3953 115.48 15.6126C115.262 15.8299 115.001 15.9987 114.713 16.1078L113.799 20.2651Z" fill="#E6E6E6"/>
<path d="M37.6176 156.725H138.328V102.581L37.6176 102.581V156.725Z" fill="#E6E6E6"/>
<path d="M130.255 163.746H136.587V158.969H130.255V163.746Z" fill="#E6E6E6"/>
<path d="M29.9308 163.746H36.2629L36.2629 98.5487H29.9308L29.9308 163.746Z" fill="#E6E6E6"/>
<path d="M36.1868 98.5486V163.762H39.565V160.11H136.587V163.762H139.966V98.5486H36.1868ZM39.565 104.45H86.3871V127.096H39.565V104.45ZM136.587 154.192H89.7599V104.45H136.582L136.587 154.192ZM39.565 154.192V130.471H86.3871V154.192H39.565Z" fill="#F0F0F0"/>
<path d="M89.7599 154.192H133.421V106.885H89.7599V154.192Z" fill="#F5F5F5"/>
<path d="M91.7402 129.123C91.7402 129.524 91.8592 129.916 92.0822 130.249C92.3052 130.582 92.6221 130.842 92.9929 130.996C93.3636 131.149 93.7716 131.189 94.1652 131.111C94.5588 131.033 94.9204 130.84 95.2042 130.556C95.4879 130.273 95.6812 129.912 95.7595 129.518C95.8378 129.125 95.7976 128.718 95.644 128.347C95.4905 127.977 95.2304 127.66 94.8967 127.438C94.563 127.215 94.1707 127.096 93.7694 127.096C93.5029 127.096 93.239 127.148 92.9929 127.25C92.7467 127.352 92.523 127.501 92.3346 127.69C92.1461 127.878 91.9967 128.101 91.8947 128.347C91.7927 128.593 91.7402 128.857 91.7402 129.123Z" fill="#FAFAFA"/>
<path d="M93.7694 131.15C94.1571 131.149 94.5364 131.036 94.8623 130.826C95.1881 130.616 95.447 130.318 95.6081 129.965C95.7324 130.229 95.7974 130.516 95.7985 130.808C95.7985 131.345 95.5847 131.861 95.2042 132.241C94.8236 132.621 94.3075 132.835 93.7694 132.835C93.2312 132.835 92.7151 132.621 92.3346 132.241C91.954 131.861 91.7402 131.345 91.7402 130.808C91.7414 130.516 91.8064 130.229 91.9306 129.965C92.0918 130.318 92.3506 130.616 92.6765 130.826C93.0023 131.036 93.3816 131.149 93.7694 131.15Z" fill="#E0E0E0"/>
<path d="M116.492 154.192H106.075L101.097 106.885H111.515L116.492 154.192Z" fill="#FAFAFA"/>
<path d="M103.409 154.192H101.336L96.3586 106.885H98.4313L103.409 154.192Z" fill="#FAFAFA"/>
<path d="M75.8391 127.069H79.9626V106.836H75.8391V127.069Z" fill="#FAFAFA"/>
<path d="M58.7302 127.069H62.8538V106.836H58.7302V127.069Z" fill="#F5F5F5"/>
<path d="M71.71 127.074H75.8335V108.26H71.71V127.074Z" fill="#F5F5F5"/>
<path d="M62.8538 127.074H66.9773V108.26H62.8538V127.074Z" fill="#FAFAFA"/>
<path d="M66.9828 127.069H69.6484V106.836H66.9828V127.069Z" fill="#EBEBEB"/>
<path d="M69.6428 127.074H71.7046V108.26H69.6428V127.074Z" fill="#FAFAFA"/>
<path d="M54.6067 127.069H58.7302V106.836H54.6067V127.069Z" fill="#EBEBEB"/>
<path d="M50.4778 127.074H54.6013V108.26H50.4778V127.074Z" fill="#E6E6E6"/>
<path d="M41.6214 127.074H45.7449V108.26H41.6214V127.074Z" fill="#E6E6E6"/>
<path d="M45.7504 127.069H48.416V106.836H45.7504V127.069Z" fill="#FAFAFA"/>
<path d="M48.416 127.074H50.4778V108.26H48.416V127.074Z" fill="#EBEBEB"/>
<path d="M39.5596 127.074H41.6213V107.32H39.5596V127.074Z" fill="#EBEBEB"/>
<path d="M43.6831 133.96H39.5596V154.192H43.6831V133.96Z" fill="#EBEBEB"/>
<path d="M60.7866 133.96H56.6631V154.192H60.7866V133.96Z" fill="#FAFAFA"/>
<path d="M47.8066 135.378H43.6831V154.192H47.8066V135.378Z" fill="#FAFAFA"/>
<path d="M56.6631 135.378H52.5396V154.192H56.6631V135.378Z" fill="#EBEBEB"/>
<path d="M52.5396 133.96H49.874V154.192H52.5396V133.96Z" fill="#FAFAFA"/>
<path d="M49.874 135.378H47.8123V154.192H49.874V135.378Z" fill="#F5F5F5"/>
<path d="M64.9155 133.96H60.792V154.192H64.9155V133.96Z" fill="#EBEBEB"/>
<path d="M69.039 135.378H64.9155V154.192H69.039V135.378Z" fill="#F5F5F5"/>
<path d="M77.8952 135.378H73.7717V154.192H77.8952V135.378Z" fill="#E6E6E6"/>
<path d="M73.7718 133.96H71.1062V154.192H73.7718V133.96Z" fill="#FAFAFA"/>
<path d="M82.6282 133.96H79.9626V154.192H82.6282V133.96Z" fill="#FAFAFA"/>
<path d="M71.1062 135.378H69.0444V154.192H71.1062V135.378Z" fill="#EBEBEB"/>
<path d="M79.957 134.438H77.8953V154.192H79.957V134.438Z" fill="#EBEBEB"/>
<path d="M44.1618 63.7028C43.7344 63.913 43.3813 64.2486 43.15 64.6647C42.8345 65.306 43.8191 66.4961 43.8191 66.4961C44.0565 66.6547 44.3278 66.7555 44.6112 66.7904C44.8946 66.8253 45.1823 66.7934 45.4511 66.6972L46.2671 66.3277C46.2671 66.3277 44.869 63.8985 44.189 63.8713L44.1618 63.7028Z" fill="#E6E6E6"/>
<path d="M47.6708 63.6811C47.7687 64.8332 47.0561 66.2896 46.0388 66.3983C45.0215 66.507 44.0641 65.1756 43.9444 64.0072C43.8247 62.8388 44.6734 62.7409 45.7015 62.654C46.7297 62.567 47.5674 62.529 47.6708 63.6811Z" fill="#E6E6E6"/>
<path d="M44.6516 63.3442C44.6516 63.3442 45.4404 63.9691 47.0615 63.605C47.0615 63.605 44.5047 65.306 44.6516 63.3442Z" fill="#E6E6E6"/>
<path d="M45.3479 63.1159C45.3479 63.1159 46.2564 62.9583 46.2673 63.3333C46.2673 63.3333 47.0397 63.2898 46.9309 62.9692C46.8221 62.6486 45.3479 63.1159 45.3479 63.1159Z" fill="#E6E6E6"/>
<g opacity="0.2">
<path opacity="0.2" d="M44.6516 63.3442C44.6516 63.3442 45.4404 63.9691 47.0615 63.605C47.0615 63.605 44.5047 65.306 44.6516 63.3442Z" fill="#FAFAFA"/>
</g>
<g opacity="0.2">
<path opacity="0.2" d="M45.3479 63.1159C45.3479 63.1159 46.2564 62.9583 46.2673 63.3333C46.2673 63.3333 47.0397 63.2898 46.9309 62.9692C46.8221 62.6486 45.3479 63.1159 45.3479 63.1159Z" fill="#FAFAFA"/>
</g>
<path d="M44.2979 66.7407C44.4733 67.0036 44.7197 67.2115 45.0085 67.3404C45.2973 67.4692 45.6168 67.5138 45.9298 67.4689C46.2393 67.4224 46.5355 67.3119 46.7997 67.1444C47.0639 66.9769 47.2901 66.7561 47.4639 66.4962C47.8033 65.9721 47.9915 65.3647 48.0079 64.7408C48.0079 64.5832 48.0079 64.1974 47.8175 64.1159C47.6271 64.0343 47.502 64.3332 47.415 64.4582C47.161 64.823 46.8712 65.1617 46.55 65.469C46.2323 65.7737 45.8799 66.04 45.5001 66.2625C45.3913 66.2951 44.3577 66.8331 44.2979 66.7407Z" fill="#E6E6E6"/>
<path d="M48.7153 64.4419C48.8093 64.6776 48.8421 64.9333 48.8107 65.185C48.7793 65.4368 48.6847 65.6766 48.5357 65.8821C48.3213 66.1363 48.0611 66.3483 47.7687 66.507C47.5674 66.6266 47.3117 66.7407 47.1159 66.6157C46.9201 66.4907 46.9255 66.1701 46.9745 65.9255C47.0506 65.5506 47.1322 65.1756 47.2301 64.8006C47.2765 64.4251 47.3792 64.0587 47.5348 63.7137C47.7034 63.4746 47.9373 63.6159 48.193 63.7952C48.425 63.9569 48.6061 64.1812 48.7153 64.4419Z" fill="#E6E6E6"/>
<g opacity="0.2">
<path opacity="0.2" d="M44.559 66.1049C44.3611 66.089 44.1713 66.0193 44.0102 65.9034C43.8491 65.7875 43.7229 65.6298 43.6451 65.4473C43.5363 65.1701 43.5363 64.48 43.8953 64.3876C44.0037 64.9974 44.229 65.5805 44.559 66.1049Z" fill="#FAFAFA"/>
</g>
<g opacity="0.2">
<path opacity="0.2" d="M47.241 66.0723C47.429 66.0176 47.6008 65.9177 47.7411 65.7812C47.8815 65.6448 47.9862 65.476 48.0461 65.2897C48.1059 65.0832 48.0461 64.0289 47.7142 64.4691C47.6109 64.6158 47.6326 65.0778 47.5782 65.268C47.4978 65.5484 47.3846 65.8183 47.241 66.0723Z" fill="#FAFAFA"/>
</g>
<g opacity="0.2">
<path opacity="0.2" d="M45.8047 66.7244C45.9564 66.8509 46.1465 66.9224 46.344 66.9273C46.5415 66.9323 46.7349 66.8703 46.8927 66.7516C46.8492 66.9581 46.2073 67.1266 46.0115 67.1864C45.4675 67.3385 45.2172 67.1103 44.7167 66.8983C44.6895 66.8983 45.4838 67.0179 45.8047 66.7244Z" fill="#FAFAFA"/>
</g>
<path d="M44.9072 87.8917L44.9562 72.2132L45.7613 67.4418L46.0659 67.4907L45.2663 72.2404L45.2064 88.1906L44.9072 87.8917Z" fill="#E0E0E0"/>
<path d="M45.2336 72.1317L44.9888 72.3219C44.7122 71.9353 44.4683 71.5263 44.2598 71.0991C43.8519 70.2551 43.3382 69.4662 42.7312 68.7515L42.9597 68.5395C43.5848 69.2745 44.1148 70.0852 44.5373 70.9524C44.7367 71.3639 44.9696 71.7583 45.2336 72.1317Z" fill="#E0E0E0"/>
<path d="M45.424 70.0286C45.8449 69.9146 46.2114 69.6545 46.4576 69.2949C46.7015 68.8683 46.8569 68.397 46.9145 67.9091C46.3705 68.0722 45.7885 67.8113 45.2281 67.8765C45.0044 67.9042 44.7899 67.9827 44.6013 68.1061C44.4127 68.2296 44.2549 68.3946 44.1401 68.5884C43.8464 69.0938 43.7267 69.6753 43.9878 69.8981C44.4314 70.1264 44.9465 70.1731 45.424 70.0286Z" fill="#E6E6E6"/>
<path d="M43.3351 68.9471C43.0828 69.104 42.7993 69.2042 42.5044 69.2408C42.2095 69.2774 41.9101 69.2495 41.627 69.159C41.083 68.9797 40.9035 68.1319 40.6804 67.5831C41.3807 67.5177 42.0855 67.5177 42.7857 67.5831C42.9336 67.5921 43.0777 67.6338 43.2075 67.7052C43.3374 67.7767 43.4497 67.876 43.5364 67.9961C43.618 68.1194 43.6514 68.2682 43.6303 68.4145C43.6092 68.5607 43.5352 68.6942 43.4222 68.7895L43.3351 68.9471Z" fill="#E6E6E6"/>
<path d="M40.762 69.8655C40.9866 69.6422 41.2572 69.4706 41.5551 69.3626C41.853 69.2547 42.1708 69.213 42.4865 69.2406C42.7392 69.2871 42.9773 69.3925 43.1815 69.5483C43.3857 69.7042 43.5502 69.9059 43.6615 70.1373C43.5768 70.2984 43.4503 70.4338 43.2953 70.5294C43.1403 70.625 42.9624 70.6773 42.7802 70.6807C42.4093 70.6863 42.0405 70.6236 41.6922 70.4959C41.3447 70.3649 40.9756 70.3004 40.6042 70.3057L40.762 69.8655Z" fill="#E6E6E6"/>
<path d="M51.2339 67.17C51.5786 67.4956 51.8158 67.9183 51.9139 68.3819C52.0282 69.0938 50.7389 69.9362 50.7389 69.9362C50.4635 70.0209 50.1719 70.039 49.8881 69.9889C49.6043 69.9388 49.3366 69.822 49.1069 69.6482L48.416 69.0504C48.416 69.0504 50.4723 67.1429 51.136 67.3222L51.2339 67.17Z" fill="#E6E6E6"/>
<path d="M47.872 66.1212C47.4422 67.2081 47.6979 68.7895 48.6554 69.1754C49.6128 69.5612 50.9075 68.5939 51.3427 67.545C51.7779 66.4962 51.0272 66.0994 50.048 65.719C49.0688 65.3386 48.3181 65.0506 47.872 66.1212Z" fill="#E6E6E6"/>
<path d="M50.8695 66.6809C50.8695 66.6809 49.9284 67.0505 48.4868 66.2244C48.4868 66.2244 50.4289 68.5993 50.8695 66.6809Z" fill="#E6E6E6"/>
<path d="M50.2711 66.2625C50.2711 66.2625 49.4497 65.844 49.3246 66.2027C49.3246 66.2027 48.6011 65.9364 48.7806 65.6593C48.9601 65.3821 50.2711 66.2625 50.2711 66.2625Z" fill="#E6E6E6"/>
<g opacity="0.2">
<path opacity="0.2" d="M50.8695 66.6809C50.8695 66.6809 49.9284 67.0505 48.4868 66.2244C48.4868 66.2244 50.4289 68.5993 50.8695 66.6809Z" fill="#FAFAFA"/>
</g>
<g opacity="0.2">
<path opacity="0.2" d="M50.2711 66.2625C50.2711 66.2625 49.4497 65.844 49.3246 66.2027C49.3246 66.2027 48.6011 65.9364 48.7806 65.6593C48.9601 65.3821 50.2711 66.2625 50.2711 66.2625Z" fill="#FAFAFA"/>
</g>
<path d="M50.2057 70.034C49.9617 70.2292 49.6686 70.3532 49.3585 70.3925C49.0485 70.4319 48.7336 70.3849 48.4486 70.2568C48.1668 70.121 47.9164 69.9282 47.7132 69.6905C47.51 69.4529 47.3584 69.1757 47.2681 68.8765C47.0994 68.2721 47.0994 67.6331 47.2681 67.0287C47.3007 66.8711 47.4095 66.4853 47.6326 66.4853C47.8556 66.4853 47.8665 66.7842 47.9155 66.9309C48.0516 67.3571 48.234 67.7672 48.4595 68.1537C48.6773 68.5305 48.9384 68.8806 49.2374 69.1971C49.2918 69.2895 50.1241 70.1047 50.2057 70.034Z" fill="#E6E6E6"/>
<path d="M46.6643 66.5396C46.5031 66.7352 46.3953 66.9691 46.3515 67.2186C46.3076 67.4681 46.3292 67.7248 46.4141 67.9635C46.5377 68.2727 46.7228 68.5536 46.9581 68.7895C47.1104 68.9634 47.3225 69.1482 47.5456 69.083C47.7686 69.0178 47.8557 68.7134 47.8829 68.4689C47.9209 68.083 47.9536 67.7026 47.9699 67.3168C48.0268 66.9476 48.0268 66.5719 47.9699 66.2027C47.8829 65.9201 47.6109 65.9853 47.3171 66.0831C47.0606 66.1705 46.8342 66.3288 46.6643 66.5396Z" fill="#E6E6E6"/>
<g opacity="0.2">
<path opacity="0.2" d="M50.146 69.3438C50.3426 69.3957 50.5501 69.3895 50.7433 69.3258C50.9364 69.2621 51.1069 69.1438 51.234 68.9852C51.4135 68.7569 51.6148 68.0939 51.3047 67.8983C51.0141 68.4494 50.6209 68.9401 50.146 69.3438Z" fill="#FAFAFA"/>
</g>
<g opacity="0.2">
<path opacity="0.2" d="M47.5892 68.5286C47.4237 68.4229 47.2873 68.2775 47.1923 68.1057C47.0973 67.934 47.0468 67.7412 47.0452 67.545C47.0452 67.3276 47.4314 66.344 47.5892 66.8603C47.6436 67.0287 47.4858 67.4635 47.4858 67.6591C47.4872 67.952 47.5219 68.2437 47.5892 68.5286Z" fill="#FAFAFA"/>
</g>
<g opacity="0.2">
<path opacity="0.2" d="M48.7697 69.5721C48.5927 69.6438 48.3969 69.655 48.2129 69.6038C48.0289 69.5527 47.867 69.4422 47.7524 69.2895C47.7524 69.496 48.2964 69.8329 48.4651 69.9634C48.9166 70.2622 49.243 70.121 49.787 70.0666C49.787 70.0666 48.9928 69.9525 48.7697 69.5721Z" fill="#FAFAFA"/>
</g>
<path d="M44.4612 85.5494L44.657 84.9081L44.9181 84.0441L45.2228 83.0332L47.6653 75.0065L47.97 72.7023L48.242 70.6535L48.2964 70.2351L48.4487 70.2514V70.2568L48.6065 70.2731L48.601 70.3112L48.5466 70.7133L48.2583 72.8925L48.0244 74.675L47.97 75.0663L47.9482 75.1315L45.2228 84.0984L44.9127 85.0983L44.7767 85.5711L44.5809 86.207L44.4612 85.5494Z" fill="#E0E0E0"/>
<path d="M47.7251 74.9142L47.9046 75.1641C48.2816 74.8742 48.6345 74.5543 48.96 74.2077C49.6048 73.5185 50.3362 72.9157 51.136 72.4143L50.9782 72.148C50.163 72.6631 49.4186 73.2824 48.7641 73.9903C48.4406 74.3229 48.0933 74.6317 47.7251 74.9142Z" fill="#E0E0E0"/>
<path d="M48.1658 72.849C47.795 72.6183 47.5206 72.2611 47.3933 71.8437C47.2835 71.3635 47.2743 70.8658 47.3661 70.3818C47.8339 70.697 48.4541 70.6155 48.9981 70.8437C49.2039 70.936 49.386 71.074 49.5302 71.2473C49.6745 71.4207 49.7772 71.6246 49.8304 71.8437C49.961 72.3871 49.9066 72.9958 49.591 73.1425C49.0958 73.2365 48.5834 73.131 48.1658 72.849Z" fill="#E6E6E6"/>
<path d="M50.4776 72.4252C50.6718 72.6494 50.9126 72.8288 51.1831 72.9508C51.4537 73.0728 51.7475 73.1345 52.0444 73.1316C52.6373 73.1316 53.0453 72.36 53.4152 71.898C52.7673 71.6285 52.0951 71.4211 51.4079 71.2785C51.2641 71.2434 51.1143 71.2409 50.9693 71.271C50.8244 71.301 50.688 71.363 50.5701 71.4524C50.4545 71.5455 50.3773 71.6779 50.3532 71.8242C50.3291 71.9706 50.3599 72.1207 50.4396 72.2458L50.4776 72.4252Z" fill="#E6E6E6"/>
<path d="M52.67 74.0555C52.5208 73.7771 52.3117 73.5353 52.0577 73.3473C51.8037 73.1594 51.5112 73.0301 51.2012 72.9686C50.946 72.9387 50.6874 72.9693 50.4463 73.0581C50.2053 73.1469 49.9886 73.2912 49.814 73.4795C49.8463 73.6596 49.9264 73.8278 50.046 73.9664C50.1657 74.105 50.3204 74.209 50.494 74.2675C50.8453 74.3786 51.214 74.4246 51.582 74.4033C51.95 74.3793 52.3192 74.4254 52.67 74.5392V74.0555Z" fill="#E6E6E6"/>
<path d="M40.2124 66.5396C39.8324 66.8255 39.5479 67.2196 39.3964 67.67C39.2006 68.3602 40.3811 69.3493 40.3811 69.3493C40.6413 69.4627 40.9246 69.5135 41.2081 69.4974C41.4916 69.4814 41.7673 69.399 42.0131 69.2569L42.7529 68.7406C42.7529 68.7406 40.9414 66.6049 40.2668 66.7027L40.2124 66.5396Z" fill="#E6E6E6"/>
<path d="M43.6614 65.8929C43.9661 67.007 43.5254 68.5667 42.5299 68.8384C41.5344 69.1102 40.3539 67.9961 40.0547 66.882C39.7555 65.768 40.5443 65.5071 41.5398 65.2517C42.5353 64.9963 43.3568 64.7789 43.6614 65.8929Z" fill="#E6E6E6"/>
<path d="M40.6313 66.0994C40.6313 66.0994 41.5181 66.5777 43.0467 65.9256C43.0467 65.9256 40.8435 68.0613 40.6313 66.0994Z" fill="#E6E6E6"/>
<path d="M41.2732 65.7516C41.2732 65.7516 42.1382 65.431 42.2198 65.8006C42.2198 65.8006 42.9705 65.6212 42.8073 65.3223C42.6441 65.0234 41.2732 65.7516 41.2732 65.7516Z" fill="#E6E6E6"/>
<g opacity="0.2">
<path opacity="0.2" d="M40.6313 66.0994C40.6313 66.0994 41.5181 66.5777 43.0467 65.9256C43.0467 65.9256 40.8435 68.0613 40.6313 66.0994Z" fill="#FAFAFA"/>
</g>
<g opacity="0.2">
<path opacity="0.2" d="M41.2732 65.7516C41.2732 65.7516 42.1382 65.431 42.2198 65.8006C42.2198 65.8006 42.9705 65.6212 42.8073 65.3223C42.6441 65.0234 41.2732 65.7516 41.2732 65.7516Z" fill="#FAFAFA"/>
</g>
<path d="M40.8926 69.5232C41.1117 69.746 41.3882 69.904 41.6916 69.9797C41.9949 70.0555 42.3133 70.046 42.6116 69.9525C42.9079 69.8504 43.1798 69.688 43.4101 69.4757C43.6404 69.2634 43.8242 69.0057 43.9499 68.7189C44.1975 68.1422 44.2803 67.5083 44.1892 66.8874C44.1892 66.7298 44.1131 66.344 43.89 66.306C43.667 66.2679 43.618 66.5777 43.5527 66.719C43.3702 67.1234 43.146 67.5077 42.8836 67.8656C42.6232 68.2154 42.3219 68.5329 41.986 68.8112C41.8881 68.871 40.9687 69.5884 40.8926 69.5232Z" fill="#E6E6E6"/>
<path d="M44.8255 66.4527C44.9611 66.6668 45.0397 66.9119 45.054 67.1649C45.0683 67.4178 45.0177 67.6703 44.9071 67.8982C44.7454 68.1901 44.5272 68.4468 44.2652 68.6536C44.0911 68.8058 43.8572 68.9634 43.645 68.8764C43.4329 68.7895 43.3785 68.4743 43.3839 68.2243C43.3839 67.8385 43.3839 67.4581 43.4274 67.0722C43.4102 66.7065 43.4468 66.3403 43.5362 65.9853C43.6559 65.7136 43.917 65.8114 44.1999 65.9418C44.4517 66.0511 44.6682 66.2279 44.8255 66.4527Z" fill="#E6E6E6"/>
<g opacity="0.2">
<path opacity="0.2" d="M41.0394 68.833C40.8405 68.8583 40.6384 68.8263 40.4572 68.7406C40.276 68.6549 40.1231 68.5191 40.0166 68.3493C39.8643 68.0993 39.7392 67.4146 40.071 67.2624C40.292 67.8421 40.6205 68.375 41.0394 68.833Z" fill="#FAFAFA"/>
</g>
<g opacity="0.2">
<path opacity="0.2" d="M43.6724 68.3221C43.8473 68.2337 43.9979 68.1037 44.1107 67.9436C44.2236 67.7835 44.2954 67.5981 44.3197 67.4037C44.3197 67.1918 44.0749 66.1701 43.8464 66.6592C43.8194 66.9266 43.8194 67.1961 43.8464 67.4635C43.8214 67.7554 43.763 68.0435 43.6724 68.3221Z" fill="#FAFAFA"/>
</g>
<g opacity="0.2">
<path opacity="0.2" d="M42.3776 69.2188C42.5455 69.3099 42.7387 69.3433 42.9274 69.3139C43.1162 69.2844 43.29 69.1937 43.4221 69.0558C43.4221 69.2623 42.8182 69.5449 42.6333 69.6427C42.1491 69.8818 41.839 69.7079 41.3059 69.5938C41.3059 69.5938 42.111 69.5666 42.3776 69.2188Z" fill="#FAFAFA"/>
</g>
<path d="M45.2989 90.2013L42.5245 74.7674L42.4592 69.9362L42.7693 69.9308L42.8346 74.7403L45.6471 90.4404L45.2989 90.2013Z" fill="#E0E0E0"/>
<path d="M42.7855 74.6424L42.5734 74.8707C42.2334 74.535 41.9222 74.1714 41.6431 73.7838C41.0879 73.0307 40.4389 72.3514 39.7119 71.7622L39.9023 71.5176C40.6501 72.1284 41.3172 72.8314 41.8879 73.6099C42.1584 73.9779 42.4586 74.3233 42.7855 74.6424Z" fill="#E0E0E0"/>
<path d="M42.5899 72.5393C42.9856 72.3539 43.3007 72.0315 43.4766 71.6317C43.6424 71.1688 43.711 70.6767 43.6779 70.1862C43.1719 70.447 42.5518 70.2894 42.0132 70.4525C41.7975 70.5217 41.6003 70.6389 41.4364 70.7951C41.2725 70.9513 41.1461 71.1426 41.0667 71.3546C40.8708 71.898 40.8545 72.4849 41.1537 72.6643C41.6301 72.8141 42.1465 72.7691 42.5899 72.5393Z" fill="#E6E6E6"/>
<path d="M40.3429 71.8491C40.125 72.0488 39.866 72.1984 39.5841 72.2876C39.3022 72.3768 39.0042 72.4033 38.7109 72.3654C38.1234 72.2893 37.8079 71.485 37.4978 70.985C38.1725 70.79 38.865 70.6626 39.565 70.6046C39.7114 70.5862 39.8601 70.6006 40.0003 70.6466C40.1405 70.6927 40.2687 70.7693 40.3756 70.8709C40.4781 70.978 40.538 71.1188 40.544 71.2669C40.55 71.415 40.5017 71.5602 40.4082 71.6752L40.3429 71.8491Z" fill="#E6E6E6"/>
<path d="M37.9766 73.2132C38.1579 72.9544 38.3934 72.7382 38.6668 72.5796C38.9401 72.4209 39.2449 72.3238 39.5597 72.2947C39.8172 72.2941 40.0712 72.3543 40.3009 72.4705C40.5307 72.5866 40.7297 72.7555 40.8816 72.9632C40.8293 73.1394 40.7296 73.2979 40.5934 73.4215C40.4572 73.5451 40.2897 73.6291 40.1091 73.6642C39.7496 73.7321 39.3806 73.7321 39.0211 73.6642C38.6616 73.5963 38.2926 73.5963 37.9331 73.6642L37.9766 73.2132Z" fill="#E6E6E6"/>
<path d="M46.4305 80.7345H43.1665C43.0458 80.7293 42.9268 80.7644 42.8283 80.8343C42.7298 80.9042 42.6574 81.0048 42.6225 81.1203C42.0215 83.2517 41.741 85.4605 41.7902 87.6743C41.7902 91.4784 42.7911 96.5977 43.1066 98.103C43.131 98.2286 43.1988 98.3416 43.2983 98.4221C43.3979 98.5027 43.5226 98.5455 43.6506 98.5432H45.9137C46.0417 98.5455 46.1665 98.5027 46.266 98.4221C46.3655 98.3416 46.4334 98.2286 46.4577 98.103C46.7732 96.5977 47.7742 91.5056 47.7742 87.6743C47.8233 85.4605 47.5428 83.2517 46.9419 81.1203C46.9085 81.0102 46.841 80.9135 46.7491 80.8442C46.6572 80.7749 46.5456 80.7364 46.4305 80.7345Z" fill="#F0F0F0"/>
<path d="M136 188C194.253 188 241.476 185.246 241.476 181.848C241.476 178.451 194.253 175.696 136 175.696C77.7472 175.696 30.5239 178.451 30.5239 181.848C30.5239 185.246 77.7472 188 136 188Z" fill="#F5F5F5"/>
<path d="M65.7045 160.697C65.6155 160.692 65.5322 160.652 65.4723 160.586C65.4123 160.52 65.3805 160.433 65.3835 160.344C65.7861 144.372 66.6075 118.173 66.651 118.026C66.6798 117.939 66.741 117.866 66.822 117.822C66.903 117.779 66.9975 117.768 67.0862 117.792C67.1743 117.82 67.2481 117.881 67.2918 117.962C67.3355 118.043 67.3457 118.138 67.3201 118.227C67.3201 118.259 66.4769 144.551 66.0744 160.36C66.0737 160.406 66.0639 160.451 66.0457 160.492C66.0275 160.534 66.0012 160.571 65.9682 160.603C65.9353 160.634 65.8965 160.659 65.854 160.675C65.8115 160.691 65.7662 160.699 65.7208 160.697H65.7045Z" fill="#263238"/>
<path d="M63.5555 107.363C63.6915 108.592 65.1875 112.858 66.3951 112.727C67.6028 112.597 68.1523 108.108 68.0271 106.88C67.9629 106.289 67.6664 105.747 67.2027 105.375C66.739 105.002 66.1462 104.829 65.5546 104.893C64.9631 104.958 64.4213 105.254 64.0484 105.717C63.6755 106.18 63.5021 106.772 63.5663 107.363H63.5555Z" fill="#407BFF"/>
<path d="M69.534 120.819C69.398 119.585 67.902 115.319 66.6943 115.455C65.4866 115.591 64.9426 120.069 65.0623 121.303C65.1265 121.894 65.4231 122.435 65.8868 122.807C66.3505 123.18 66.9433 123.353 67.5348 123.289C68.1263 123.225 68.6682 122.929 69.041 122.465C69.4139 122.002 69.5873 121.41 69.5231 120.819H69.534Z" fill="#407BFF"/>
<path d="M59.8401 117.075C61.0695 116.944 65.3399 115.472 65.2039 114.238C65.0679 113.004 60.5853 112.488 59.3559 112.608C59.063 112.639 58.7792 112.728 58.5208 112.87C58.2624 113.011 58.0343 113.202 57.8497 113.431C57.6651 113.661 57.5274 113.924 57.4447 114.207C57.362 114.489 57.3358 114.785 57.3676 115.078C57.3994 115.37 57.4885 115.654 57.63 115.912C57.7715 116.17 57.9624 116.398 58.192 116.582C58.4216 116.767 58.6853 116.904 58.9681 116.987C59.2509 117.069 59.5472 117.096 59.8401 117.064V117.075Z" fill="#407BFF"/>
<path d="M73.2769 111.108C72.0475 111.238 67.7771 112.738 67.9131 113.944C68.0491 115.151 72.5316 115.694 73.7611 115.575C74.0582 115.549 74.3471 115.464 74.6109 115.325C74.8748 115.186 75.1081 114.996 75.2974 114.765C75.4867 114.535 75.6281 114.269 75.7133 113.984C75.7985 113.698 75.8258 113.399 75.7935 113.103C75.7613 112.806 75.6702 112.519 75.5256 112.259C75.381 111.998 75.1858 111.769 74.9515 111.585C74.7171 111.401 74.4482 111.265 74.1607 111.186C73.8732 111.107 73.5727 111.086 73.2769 111.124V111.108Z" fill="#407BFF"/>
<path d="M59.6714 111.445C60.6343 112.222 64.698 114.194 65.4759 113.233C66.2538 112.271 63.4468 108.727 62.4839 107.95C62.2563 107.749 61.9901 107.596 61.7015 107.5C61.413 107.405 61.108 107.369 60.805 107.394C60.5021 107.42 60.2075 107.507 59.9391 107.649C59.6707 107.792 59.4341 107.988 59.2436 108.224C59.0531 108.461 58.9126 108.734 58.8308 109.026C58.7489 109.319 58.7273 109.625 58.7673 109.926C58.8073 110.227 58.9081 110.517 59.0635 110.778C59.2189 111.039 59.4257 111.266 59.6714 111.445Z" fill="#407BFF"/>
<path d="M73.4401 116.738C72.4772 115.961 68.4136 113.988 67.6411 114.95C66.8686 115.912 69.6648 119.455 70.6331 120.227C70.8612 120.421 71.126 120.567 71.4119 120.658C71.6977 120.748 71.9987 120.78 72.2971 120.752C72.5955 120.723 72.8852 120.636 73.1491 120.494C73.4131 120.352 73.6458 120.158 73.8335 119.925C74.0213 119.692 74.1603 119.423 74.2423 119.135C74.3243 118.847 74.3477 118.546 74.311 118.248C74.2743 117.951 74.1784 117.664 74.0288 117.405C73.8792 117.145 73.679 116.919 73.4401 116.738Z" fill="#407BFF"/>
<path d="M63.8982 120.955C64.6761 119.993 66.6508 115.934 65.6825 115.162C64.7142 114.39 61.1782 117.183 60.4003 118.151C60.028 118.614 59.8553 119.206 59.9201 119.797C59.9849 120.387 60.2819 120.928 60.7457 121.3C61.2096 121.672 61.8023 121.844 62.3935 121.78C62.9847 121.715 63.526 121.418 63.8982 120.955Z" fill="#407BFF"/>
<path d="M69.1914 107.222C68.419 108.189 66.4388 112.244 67.4071 113.021C68.3754 113.798 71.9114 110.994 72.6894 110.032C72.8909 109.804 73.0442 109.538 73.1398 109.25C73.2355 108.962 73.2716 108.657 73.246 108.355C73.2203 108.052 73.1335 107.758 72.9906 107.489C72.8478 107.221 72.652 106.985 72.4151 106.795C72.1781 106.604 71.905 106.464 71.6122 106.382C71.3194 106.3 71.013 106.279 70.7117 106.319C70.4103 106.359 70.1202 106.459 69.8588 106.615C69.5975 106.77 69.3705 106.977 69.1914 107.222Z" fill="#407BFF"/>
<g opacity="0.6">
<path opacity="0.6" d="M63.5557 107.363C63.6917 108.592 65.1877 112.858 66.3954 112.727C67.6031 112.597 68.1525 108.108 68.0274 106.88C67.9632 106.289 67.6666 105.747 67.2029 105.375C66.7393 105.002 66.1464 104.829 65.5549 104.893C64.9634 104.958 64.4215 105.254 64.0487 105.717C63.6758 106.18 63.5024 106.772 63.5666 107.363H63.5557Z" fill="white"/>
<path opacity="0.6" d="M69.5342 120.819C69.3982 119.585 67.9022 115.319 66.6946 115.455C65.4869 115.591 64.9429 120.069 65.0626 121.303C65.1268 121.894 65.4233 122.435 65.887 122.807C66.3507 123.18 66.9435 123.353 67.535 123.289C68.1266 123.225 68.6684 122.929 69.0413 122.465C69.4142 122.002 69.5876 121.41 69.5234 120.819H69.5342Z" fill="white"/>
<path opacity="0.6" d="M59.8401 117.075C61.0695 116.944 65.3399 115.472 65.2039 114.238C65.0679 113.004 60.5853 112.488 59.3559 112.608C59.063 112.639 58.7792 112.728 58.5208 112.87C58.2624 113.011 58.0343 113.202 57.8497 113.431C57.6651 113.661 57.5274 113.924 57.4447 114.207C57.362 114.489 57.3358 114.785 57.3676 115.078C57.3994 115.37 57.4885 115.654 57.63 115.912C57.7715 116.17 57.9624 116.398 58.192 116.582C58.4216 116.767 58.6853 116.904 58.9681 116.987C59.2509 117.069 59.5472 117.096 59.8401 117.064V117.075Z" fill="white"/>
<path opacity="0.6" d="M73.2769 111.108C72.0475 111.238 67.7771 112.738 67.9131 113.944C68.0491 115.151 72.5316 115.694 73.7611 115.575C74.0582 115.549 74.3471 115.464 74.6109 115.325C74.8748 115.186 75.1081 114.996 75.2974 114.765C75.4867 114.535 75.6281 114.269 75.7133 113.984C75.7985 113.698 75.8258 113.399 75.7935 113.103C75.7613 112.806 75.6702 112.519 75.5256 112.259C75.381 111.998 75.1858 111.769 74.9515 111.585C74.7171 111.401 74.4482 111.265 74.1607 111.186C73.8732 111.107 73.5727 111.086 73.2769 111.124V111.108Z" fill="white"/>
<path opacity="0.6" d="M59.6714 111.445C60.6343 112.222 64.698 114.194 65.4759 113.233C66.2538 112.271 63.4468 108.727 62.4839 107.95C62.2563 107.749 61.9901 107.596 61.7015 107.5C61.413 107.405 61.108 107.369 60.805 107.394C60.5021 107.42 60.2075 107.507 59.9391 107.649C59.6707 107.792 59.4341 107.988 59.2436 108.224C59.0531 108.461 58.9126 108.734 58.8308 109.026C58.7489 109.319 58.7273 109.625 58.7673 109.926C58.8073 110.227 58.9081 110.517 59.0635 110.778C59.2189 111.039 59.4257 111.266 59.6714 111.445Z" fill="white"/>
<path opacity="0.6" d="M73.4401 116.738C72.4772 115.961 68.4136 113.988 67.6411 114.95C66.8686 115.912 69.6648 119.455 70.6331 120.227C70.8612 120.421 71.126 120.567 71.4119 120.658C71.6977 120.748 71.9987 120.78 72.2971 120.752C72.5955 120.723 72.8852 120.636 73.1491 120.494C73.4131 120.352 73.6458 120.158 73.8335 119.925C74.0213 119.692 74.1603 119.423 74.2423 119.135C74.3243 118.847 74.3477 118.546 74.311 118.248C74.2743 117.951 74.1784 117.664 74.0288 117.405C73.8792 117.145 73.679 116.919 73.4401 116.738Z" fill="white"/>
<path opacity="0.6" d="M63.8982 120.955C64.6761 119.993 66.6508 115.934 65.6825 115.162C64.7142 114.39 61.1782 117.183 60.4003 118.151C60.028 118.614 59.8553 119.206 59.9201 119.797C59.9849 120.387 60.2819 120.928 60.7457 121.3C61.2096 121.672 61.8023 121.844 62.3935 121.78C62.9847 121.715 63.526 121.418 63.8982 120.955Z" fill="white"/>
<path opacity="0.6" d="M69.1914 107.222C68.419 108.189 66.4388 112.244 67.4071 113.021C68.3754 113.798 71.9114 110.994 72.6894 110.032C72.8909 109.804 73.0442 109.538 73.1398 109.25C73.2355 108.962 73.2716 108.657 73.246 108.355C73.2203 108.052 73.1335 107.758 72.9906 107.489C72.8478 107.221 72.652 106.985 72.4151 106.795C72.1781 106.604 71.905 106.464 71.6122 106.382C71.3194 106.3 71.013 106.279 70.7117 106.319C70.4103 106.359 70.1202 106.459 69.8588 106.615C69.5975 106.77 69.3705 106.977 69.1914 107.222Z" fill="white"/>
</g>
<path d="M63.9036 114.379C63.9614 114.9 64.1725 115.392 64.5101 115.794C64.8477 116.195 65.2967 116.487 65.8004 116.633C66.3042 116.78 66.8401 116.774 67.3404 116.616C67.8408 116.459 68.2832 116.157 68.6118 115.748C68.9404 115.339 69.1404 114.843 69.1866 114.321C69.2328 113.798 69.1231 113.274 68.8714 112.815C68.6197 112.355 68.2372 111.98 67.7723 111.737C67.3073 111.494 66.7808 111.394 66.2591 111.45C65.9117 111.487 65.575 111.593 65.2685 111.76C64.9619 111.928 64.6914 112.154 64.4726 112.426C64.2537 112.698 64.0908 113.011 63.9932 113.346C63.8955 113.681 63.8651 114.032 63.9036 114.379Z" fill="#407BFF"/>
<path d="M64.1921 148.997C61.1293 149.062 55.8852 146.236 53.8234 143.475C51.7617 140.715 57.5988 142.388 56.9895 140.215C56.3802 138.041 49.1505 139.671 47.8068 136.508C46.4631 133.346 51.6855 134.068 51.4733 132.454C51.2612 130.84 45.8538 131.183 44.1076 127.835C42.3613 124.487 47.1268 126.346 46.3761 124.96C45.6253 123.574 39.6468 117.732 42.1383 116.504C44.6298 115.276 50.233 121.357 52.1098 122.036C53.9866 122.716 54.4109 118.499 56.8481 120.504C59.2852 122.509 57.4954 131.324 60.3677 132.46C62.5057 133.318 61.5863 129.291 64.0452 130.286C68.3319 132.063 65.4106 148.97 64.1921 148.997Z" fill="#407BFF"/>
<g opacity="0.2">
<path opacity="0.2" d="M64.1921 148.997C61.1293 149.062 55.8852 146.236 53.8234 143.475C51.7617 140.715 57.5988 142.388 56.9895 140.215C56.3802 138.041 49.1505 139.671 47.8068 136.508C46.4631 133.346 51.6855 134.068 51.4733 132.454C51.2612 130.84 45.8538 131.183 44.1076 127.835C42.3613 124.487 47.1268 126.346 46.3761 124.96C45.6253 123.574 39.6468 117.732 42.1383 116.504C44.6298 115.276 50.233 121.357 52.1098 122.036C53.9866 122.716 54.4109 118.499 56.8481 120.504C59.2852 122.509 57.4954 131.324 60.3677 132.46C62.5057 133.318 61.5863 129.291 64.0452 130.286C68.3319 132.063 65.4106 148.97 64.1921 148.997Z" fill="white"/>
</g>
<path d="M68.5713 145.111C68.6203 145.198 68.1633 145.655 69.6593 145.693C73.3857 145.845 79.9953 145.595 82.4487 142.209C85.9847 137.378 77.8356 137.824 78.6407 135.144C79.4459 132.465 88.1879 134.655 89.8961 130.851C91.6043 127.047 85.234 127.792 85.5441 125.83C85.8542 123.868 92.5182 126.411 94.7214 122.373C96.9246 118.336 91.0875 120.498 92.0014 118.825C92.9153 117.151 100.379 110.206 97.3761 108.651C94.3732 107.097 87.4155 114.368 85.1198 115.173C82.8241 115.977 82.291 108.825 79.2772 111.211C76.2635 113.597 78.2382 124.352 74.7185 125.688C72.0964 126.683 73.5271 122.824 70.2903 122.971C65.9003 123.151 64.4532 138.237 68.5713 145.111Z" fill="#407BFF"/>
<g opacity="0.3">
<path opacity="0.3" d="M68.5713 145.111C68.6203 145.198 68.1633 145.655 69.6593 145.693C73.3857 145.845 79.9953 145.595 82.4487 142.209C85.9847 137.378 77.8356 137.824 78.6407 135.144C79.4459 132.465 88.1879 134.655 89.8961 130.851C91.6043 127.047 85.234 127.792 85.5441 125.83C85.8542 123.868 92.5182 126.411 94.7214 122.373C96.9246 118.336 91.0875 120.498 92.0014 118.825C92.9153 117.151 100.379 110.206 97.3761 108.651C94.3732 107.097 87.4155 114.368 85.1198 115.173C82.8241 115.977 82.291 108.825 79.2772 111.211C76.2635 113.597 78.2382 124.352 74.7185 125.688C72.0964 126.683 73.5271 122.824 70.2903 122.971C65.9003 123.151 64.4532 138.237 68.5713 145.111Z" fill="white"/>
</g>
<path d="M65.7805 158.284C65.7485 158.281 65.7174 158.271 65.6893 158.256C65.6611 158.24 65.6364 158.219 65.6165 158.194C65.5967 158.168 65.5823 158.139 65.574 158.108C65.5657 158.077 65.5638 158.044 65.5683 158.013C68.6256 133.014 83.047 122.841 83.1939 122.743C83.22 122.725 83.2493 122.713 83.2803 122.706C83.3112 122.699 83.3431 122.699 83.3742 122.705C83.4052 122.711 83.4348 122.723 83.4613 122.74C83.4878 122.757 83.5106 122.779 83.5285 122.805C83.5463 122.831 83.5589 122.861 83.5654 122.892C83.5719 122.923 83.5723 122.954 83.5665 122.985C83.5607 123.016 83.5488 123.046 83.5316 123.073C83.5143 123.099 83.492 123.122 83.4659 123.14C83.3245 123.243 69.0826 133.297 66.0579 158.072C66.0539 158.105 66.0435 158.136 66.0273 158.164C66.0112 158.192 65.9895 158.217 65.9637 158.236C65.9379 158.256 65.9084 158.271 65.8769 158.279C65.8455 158.287 65.8127 158.289 65.7805 158.284Z" fill="#263238"/>
<path d="M79.8866 126.216C79.8378 126.214 79.7906 126.198 79.7516 126.169C79.7126 126.14 79.6837 126.099 79.669 126.052C79.6482 125.991 79.6525 125.924 79.6811 125.866C79.7096 125.808 79.76 125.764 79.8213 125.743C79.9138 125.716 82.0626 125.036 85.5768 125.781C85.6395 125.795 85.6943 125.833 85.7298 125.887C85.7652 125.94 85.7786 126.006 85.7672 126.069C85.7541 126.132 85.7164 126.188 85.6624 126.223C85.6083 126.259 85.5424 126.272 85.4789 126.259C82.0952 125.542 79.9954 126.199 79.9736 126.205C79.9456 126.214 79.916 126.218 79.8866 126.216Z" fill="#263238"/>
<path d="M77.2481 129.253C77.1855 129.252 77.126 129.226 77.0823 129.181C77.0386 129.137 77.0141 129.077 77.0142 129.014C76.938 121.45 81.3227 115.542 81.3662 115.482C81.4058 115.433 81.4626 115.401 81.5252 115.392C81.5878 115.383 81.6514 115.398 81.7034 115.434C81.7292 115.453 81.7508 115.477 81.7672 115.505C81.7836 115.532 81.7944 115.563 81.7989 115.595C81.8035 115.626 81.8017 115.659 81.7937 115.69C81.7857 115.721 81.7717 115.75 81.7524 115.776C81.7089 115.83 77.4004 121.618 77.4983 129.009C77.4983 129.073 77.4733 129.134 77.4286 129.18C77.3838 129.226 77.3229 129.252 77.259 129.253H77.2481Z" fill="#263238"/>
<path d="M72.9288 135.655C72.8978 135.655 72.8673 135.647 72.8392 135.634C72.8111 135.621 72.786 135.602 72.7656 135.579C72.7427 135.557 72.7246 135.53 72.7122 135.501C72.6997 135.471 72.6934 135.44 72.6934 135.408C72.6934 135.376 72.6997 135.344 72.7122 135.315C72.7246 135.286 72.7427 135.259 72.7656 135.237C72.7982 135.21 76.0296 132.21 80.2946 133.731C80.3472 133.759 80.3882 133.804 80.41 133.859C80.4317 133.914 80.4327 133.975 80.4128 134.031C80.3928 134.087 80.3533 134.133 80.3016 134.162C80.2498 134.191 80.1893 134.2 80.1314 134.188C76.1602 132.764 73.1301 135.563 73.1029 135.59C73.0799 135.612 73.0525 135.629 73.0226 135.641C72.9927 135.652 72.9607 135.657 72.9288 135.655Z" fill="#263238"/>
<path d="M70.682 140.122C70.6366 140.119 70.5929 140.104 70.5555 140.078C70.5181 140.053 70.4885 140.017 70.4698 139.976C69.3945 136.971 69.1263 133.737 69.6919 130.596C69.6965 130.564 69.7074 130.534 69.724 130.506C69.7405 130.479 69.7623 130.455 69.7882 130.437C69.814 130.418 69.8434 130.405 69.8745 130.397C69.9056 130.39 69.9379 130.389 69.9693 130.395C70.0325 130.405 70.089 130.44 70.1266 130.492C70.1643 130.544 70.1801 130.608 70.1706 130.672C69.6325 133.723 69.8892 136.862 70.9159 139.785C70.9285 139.814 70.9353 139.845 70.9358 139.877C70.9363 139.908 70.9306 139.94 70.9189 139.969C70.9073 139.998 70.89 140.025 70.868 140.048C70.846 140.07 70.8198 140.088 70.7908 140.101C70.7565 140.116 70.7194 140.123 70.682 140.122Z" fill="#263238"/>
<path d="M65.8729 167.219C65.8123 167.216 65.7549 167.19 65.7125 167.147C65.6701 167.103 65.6458 167.046 65.6444 166.985L65.3289 160.36C64.3987 138.334 49.2809 123.357 49.1286 123.21C49.0924 123.164 49.0743 123.106 49.0775 123.047C49.0807 122.988 49.1051 122.932 49.1461 122.89C49.1872 122.848 49.2421 122.822 49.3008 122.817C49.3596 122.812 49.4182 122.828 49.4659 122.862C49.6182 123.015 64.8774 138.117 65.8131 160.36L66.1286 166.985C66.1301 167.049 66.1064 167.111 66.0627 167.158C66.019 167.204 65.9587 167.232 65.8947 167.235L65.8729 167.219Z" fill="#263238"/>
<path d="M55.3629 131.476H55.3248C55.2991 131.474 55.2745 131.465 55.2541 131.449L55.1725 131.422C53.2057 130.601 51.0915 130.19 48.96 130.215C48.896 130.217 48.834 130.193 48.7872 130.149C48.7404 130.106 48.7126 130.046 48.7098 129.982C48.7091 129.949 48.7147 129.918 48.7263 129.888C48.738 129.858 48.7554 129.83 48.7776 129.807C48.7998 129.784 48.8264 129.765 48.8559 129.752C48.8853 129.739 48.917 129.732 48.9491 129.732C51.1526 129.706 53.3384 130.127 55.3738 130.971L55.4499 131.003H55.4935C55.5417 131.027 55.5805 131.066 55.6032 131.114C55.626 131.163 55.6314 131.218 55.6186 131.27C55.6104 131.33 55.5794 131.385 55.5319 131.424C55.4843 131.462 55.4239 131.481 55.3629 131.476Z" fill="#263238"/>
<path d="M57.5008 134.318C57.469 134.316 57.438 134.308 57.4096 134.293C57.3812 134.279 57.3561 134.259 57.3357 134.235C57.3154 134.21 57.3002 134.182 57.2912 134.151C57.2821 134.121 57.2794 134.089 57.2832 134.057C57.8652 127.536 54.4979 122.205 54.4598 122.156C54.4289 122.101 54.4203 122.037 54.4356 121.976C54.451 121.915 54.4892 121.863 54.5423 121.829C54.5954 121.796 54.6594 121.784 54.721 121.796C54.7826 121.808 54.8371 121.844 54.8732 121.895C54.9059 121.949 58.3657 127.427 57.7619 134.101C57.7592 134.132 57.7502 134.163 57.7356 134.191C57.721 134.219 57.7009 134.244 57.6767 134.264C57.6524 134.284 57.6243 134.299 57.5942 134.309C57.564 134.318 57.5322 134.321 57.5008 134.318Z" fill="#263238"/>
<path d="M59.7094 138.084C59.6478 138.083 59.5892 138.058 59.5462 138.014C58.7371 137.282 57.7587 136.763 56.6989 136.503C55.6392 136.243 54.5314 136.251 53.4752 136.525C53.4124 136.541 53.3456 136.532 53.2895 136.5C53.2334 136.467 53.1926 136.413 53.176 136.351C53.1678 136.32 53.1659 136.288 53.1702 136.257C53.1746 136.225 53.1852 136.195 53.2014 136.168C53.2176 136.14 53.2391 136.116 53.2646 136.098C53.2901 136.079 53.3192 136.065 53.35 136.057C54.4872 135.753 55.6832 135.744 56.8252 136.029C57.9673 136.314 59.0178 136.885 59.878 137.688C59.9009 137.71 59.9191 137.737 59.9315 137.766C59.9439 137.795 59.9503 137.827 59.9503 137.859C59.9503 137.891 59.9439 137.922 59.9315 137.952C59.9191 137.981 59.9009 138.008 59.878 138.03C59.855 138.05 59.8282 138.065 59.7992 138.074C59.7703 138.084 59.7397 138.087 59.7094 138.084Z" fill="#263238"/>
<path d="M62.511 144.291C62.4749 144.29 62.4394 144.281 62.4077 144.263C62.3792 144.249 62.3539 144.229 62.3332 144.205C62.3125 144.181 62.2969 144.152 62.2873 144.122C62.2777 144.092 62.2742 144.06 62.2771 144.028C62.2801 143.996 62.2893 143.965 62.3043 143.937C63.4131 141.435 63.8608 138.69 63.6045 135.965C63.6 135.901 63.6208 135.838 63.6625 135.789C63.7043 135.74 63.7635 135.71 63.8275 135.704C63.8594 135.701 63.8916 135.705 63.9221 135.714C63.9526 135.724 63.9809 135.74 64.0052 135.76C64.0296 135.781 64.0495 135.807 64.0638 135.835C64.0782 135.864 64.0866 135.895 64.0886 135.927C64.3662 138.742 63.8992 141.581 62.7341 144.16C62.7133 144.201 62.6812 144.235 62.6417 144.258C62.6022 144.281 62.5568 144.292 62.511 144.291Z" fill="#263238"/>
<path d="M79.5112 168.262C79.5112 175.984 76.0296 182.25 65.4978 182.25C55.4446 182.25 51.4897 175.984 51.4897 168.262C51.4877 165.457 52.3313 162.717 53.9105 160.398H77.0904C78.6697 162.717 79.5133 165.457 79.5112 168.262Z" fill="#407BFF"/>
<path opacity="0.7" d="M79.5112 168.262C79.5112 175.984 76.0296 182.25 65.4978 182.25C55.4446 182.25 51.4897 175.984 51.4897 168.262C51.4877 165.457 52.3313 162.717 53.9105 160.398H77.0904C78.6697 162.717 79.5133 165.457 79.5112 168.262Z" fill="white"/>
<path d="M159.991 175.419L165.409 174.626L164.043 161.963L158.62 162.757L159.991 175.419Z" fill="#E8BFBF"/>
<path d="M169.576 174.821C170.045 174.786 170.489 174.594 170.838 174.278C170.911 174.186 170.96 174.077 170.982 173.962C171.004 173.846 170.997 173.727 170.963 173.615C170.947 173.545 170.913 173.481 170.866 173.428C170.818 173.375 170.758 173.334 170.691 173.311C169.967 173.05 167.971 174.512 167.764 174.675C167.742 174.691 167.725 174.714 167.717 174.74C167.708 174.767 167.707 174.795 167.715 174.821C167.724 174.846 167.741 174.867 167.762 174.881C167.783 174.896 167.809 174.903 167.835 174.903C168.416 174.928 168.999 174.9 169.576 174.821ZM170.337 173.55C170.418 173.531 170.502 173.531 170.582 173.55C170.61 173.559 170.636 173.575 170.656 173.597C170.676 173.619 170.69 173.646 170.696 173.675C170.719 173.749 170.723 173.828 170.709 173.905C170.695 173.981 170.662 174.053 170.615 174.115C170.337 174.457 169.451 174.658 168.221 174.658C168.865 174.178 169.586 173.81 170.354 173.571L170.337 173.55Z" fill="#407BFF"/>
<path d="M167.867 174.908H167.911C168.515 174.512 169.597 173.131 169.391 172.539C169.348 172.435 169.271 172.349 169.171 172.296C169.072 172.243 168.957 172.227 168.847 172.251C168.717 172.255 168.589 172.285 168.471 172.34C168.353 172.395 168.247 172.474 168.161 172.572C167.579 173.245 167.693 174.745 167.693 174.789C167.694 174.811 167.699 174.832 167.708 174.852C167.718 174.871 167.731 174.889 167.748 174.903C167.766 174.912 167.786 174.917 167.807 174.918C167.828 174.919 167.848 174.916 167.867 174.908ZM168.776 172.506L168.852 172.468C169.091 172.468 169.119 172.55 169.124 172.577C169.255 172.941 168.531 174.001 167.933 174.49C167.878 173.865 168.025 173.238 168.352 172.702C168.467 172.583 168.622 172.511 168.787 172.501L168.776 172.506Z" fill="#407BFF"/>
<path d="M164.832 172.387L160.029 173.533C159.924 173.554 159.832 173.613 159.768 173.699C159.705 173.784 159.676 173.89 159.686 173.995L159.844 180.946C159.86 181.061 159.898 181.172 159.957 181.273C160.016 181.373 160.094 181.461 160.187 181.531C160.28 181.601 160.386 181.652 160.499 181.682C160.612 181.711 160.729 181.718 160.845 181.701C160.879 181.704 160.913 181.704 160.948 181.701C163.026 181.158 164.011 180.832 166.654 180.218C168.286 179.848 173.416 179.457 175.522 178.522C177.627 177.588 176.806 175.457 175.848 175.658C172.758 176.321 168.776 175.001 166.54 172.99C166.257 172.822 165.186 172.305 164.832 172.387Z" fill="#263238"/>
<path opacity="0.2" d="M164.043 161.963L164.745 168.49L159.327 169.289L158.62 162.762L164.043 161.963Z" fill="black"/>
<path d="M166.937 165.811L156.911 167.681C156.911 167.681 152.043 160.735 151.123 155.806C150.166 150.671 151.189 133.193 151.123 132.981C148.289 123.417 140.581 98.6356 136.865 89.5057C134.803 84.4516 133.356 81.0497 133.356 81.0497L134.395 80.816L142.582 77.4683L148.566 78.5878C148.566 78.5878 166.687 115.2 168.586 128.971C169.984 139.242 166.937 165.811 166.937 165.811Z" fill="#407BFF"/>
<path opacity="0.3" d="M166.937 165.811L156.911 167.681C156.911 167.681 152.043 160.735 151.123 155.806C150.166 150.671 151.189 133.193 151.123 132.981C148.289 123.417 140.581 98.6356 136.865 89.5057C134.803 84.4516 133.356 81.0497 133.356 81.0497L134.395 80.816L142.582 77.4683L148.566 78.5878C148.566 78.5878 166.687 115.2 168.586 128.971C169.984 139.242 166.937 165.811 166.937 165.811Z" fill="white"/>
<path opacity="0.2" d="M148.762 124.678C145.928 115.113 140.205 100.608 136.484 91.4893L134.02 82.7941L133.547 81.1203L134.412 82.7017L144.122 104.19C148.409 112.455 148.828 124.911 148.762 124.678Z" fill="black"/>
<path d="M104.758 172.436L109.589 174.468L114.74 163.42L109.915 161.393L104.758 172.436Z" fill="#E8BFBF"/>
<path d="M112.733 176.783C113.116 177.023 113.569 177.124 114.017 177.071C114.126 177.042 114.226 176.987 114.309 176.91C114.392 176.834 114.454 176.738 114.49 176.631C114.518 176.569 114.529 176.501 114.523 176.433C114.516 176.365 114.492 176.301 114.452 176.245C114.039 175.637 111.683 175.642 111.422 175.642C111.396 175.645 111.372 175.654 111.351 175.669C111.33 175.685 111.313 175.705 111.303 175.729C111.296 175.753 111.296 175.779 111.304 175.803C111.312 175.827 111.326 175.849 111.346 175.865C111.779 176.213 112.243 176.52 112.733 176.783ZM114.039 176.24C114.114 176.271 114.18 176.322 114.229 176.387C114.243 176.411 114.25 176.438 114.25 176.465C114.25 176.493 114.243 176.52 114.229 176.544C114.204 176.614 114.163 176.676 114.109 176.727C114.055 176.778 113.99 176.816 113.919 176.838C113.506 176.946 112.717 176.598 111.743 175.903C112.519 175.885 113.292 176.001 114.028 176.245L114.039 176.24Z" fill="#407BFF"/>
<path d="M111.368 175.887H111.411C112.102 175.925 113.718 175.468 113.897 174.897C113.927 174.791 113.917 174.678 113.87 174.579C113.823 174.479 113.742 174.399 113.642 174.354C113.54 174.283 113.424 174.234 113.303 174.211C113.181 174.187 113.055 174.19 112.934 174.218C112.097 174.403 111.351 175.615 111.302 175.664C111.293 175.682 111.289 175.703 111.289 175.724C111.289 175.744 111.293 175.765 111.302 175.783C111.304 175.805 111.31 175.825 111.322 175.843C111.333 175.862 111.349 175.876 111.368 175.887ZM113.429 174.544H113.506C113.696 174.669 113.663 174.756 113.653 174.783C113.549 175.131 112.396 175.544 111.656 175.588C111.965 175.074 112.43 174.672 112.983 174.441C113.142 174.414 113.305 174.447 113.44 174.533L113.429 174.544Z" fill="#407BFF"/>
<path d="M110.465 172.235L106.113 170.409C106.018 170.361 105.909 170.352 105.808 170.382C105.707 170.412 105.621 170.48 105.569 170.572L101.761 176.006C101.707 176.104 101.674 176.212 101.662 176.323C101.65 176.434 101.661 176.546 101.692 176.653C101.724 176.76 101.777 176.86 101.847 176.947C101.918 177.033 102.005 177.105 102.103 177.158L102.196 177.202C104.094 177.979 105.052 178.261 107.44 179.283C108.903 179.914 113.092 182.517 115.246 182.979C117.401 183.44 117.966 181.348 117.118 180.951C114.36 179.718 112.042 176.457 111.438 173.637C111.302 173.365 110.769 172.36 110.465 172.235Z" fill="#263238"/>
<path opacity="0.2" d="M114.953 163.55L112.162 169.18L107.38 167.039L110.165 161.409L114.953 163.55Z" fill="black"/>
<path d="M115.959 169.686L106.341 164.567C106.341 164.567 104.497 157.725 106.341 153.361C109.888 144.964 119.125 132.617 119.185 132.384C121.649 122.721 125.969 96.2499 127.448 86.5167C128.264 81.1203 128.748 79.9573 128.748 79.9573L129.766 80.2888L144.454 80.316C144.454 80.316 147.228 102.597 136.588 137.052C133.944 145.627 129.516 152.757 122.21 162.404C120.253 164.937 118.167 167.368 115.959 169.686Z" fill="#407BFF"/>
<path opacity="0.3" d="M115.959 169.686L106.341 164.567C106.341 164.567 104.497 157.725 106.341 153.361C109.888 144.964 119.125 132.617 119.185 132.384C121.649 122.721 125.969 96.2499 127.448 86.5167C128.264 81.1203 128.748 79.9573 128.748 79.9573L129.766 80.2888L144.454 80.316C144.454 80.316 147.228 102.597 136.588 137.052C133.944 145.627 129.516 152.757 122.21 162.404C120.253 164.937 118.167 167.368 115.959 169.686Z" fill="white"/>
<path d="M157.521 62.1268C157.744 60.3608 158.492 58.7023 159.67 57.3662C159.969 57.051 161.117 56.5728 161.769 56.1489C164.963 54.0567 171.36 51.4427 171.36 51.4427L173.335 53.16C173.335 53.16 169.44 56.9206 167.122 58.7249C166.665 59.0835 166.138 59.5129 165.583 59.9694C164.571 60.8063 159.827 63.9311 158.924 64.7191L157.521 62.1268Z" fill="#E8BFBF"/>
<path d="M176.985 50.4699L173.335 53.1872L171.289 51.6818C171.815 51.0179 172.38 50.3863 172.981 49.7906C173.166 49.6112 173.313 49.3967 173.414 49.1596C173.515 48.9226 173.568 48.6678 173.569 48.4102C173.527 47.5698 173.715 46.7339 174.113 45.9919C174.112 45.9774 174.112 45.9629 174.113 45.9484C174.299 45.6869 174.556 45.4836 174.853 45.3625C175.15 45.2413 175.476 45.2072 175.792 45.2642C176.108 45.3212 176.402 45.4669 176.638 45.6843C176.874 45.9017 177.044 46.1818 177.126 46.4919L177.67 48.4374C177.77 48.8059 177.759 49.1958 177.636 49.5576C177.514 49.9194 177.288 50.2369 176.985 50.4699Z" fill="#E8BFBF"/>
<path d="M158.685 62.8551L157.722 63.7355C157.423 63.4963 156.949 63.1105 156.351 62.6105C151.662 58.7249 139.906 49.2906 144.59 46.6006C148.61 44.2909 152.875 51.3503 155.002 53.4752C156.001 54.5387 156.866 55.7194 157.581 56.9913C158.581 58.7955 159.321 60.9747 158.685 62.8551Z" fill="#263238"/>
<path d="M157.575 56.1489C155.907 57.3683 154.496 58.9049 153.424 60.6704C153.817 61.9546 154.481 63.1399 155.37 64.1467C156.26 65.1534 157.355 65.9582 158.581 66.507C159.945 63.4183 160.529 60.0428 160.284 56.6761C159.436 56.4804 158.424 56.3337 157.575 56.1489Z" fill="#263238"/>
<path d="M131.762 46.0517C130.081 46.5951 128.161 46.155 127.084 47.5516C126.007 48.9483 125.686 50.7797 125.686 52.5404C125.785 54.9896 126.161 57.4198 126.806 59.7846C127.481 62.683 128.157 65.5723 128.836 68.4526C129.298 70.4307 128.808 79.6204 129.303 79.7726C129.303 79.7726 144.682 79.4737 148.539 78.9302C148.539 78.9302 148.871 69.4851 149.181 66.2679C149.252 65.556 150.334 62.5236 150.46 61.7627C151.063 58.176 149.883 55.649 148.643 52.2252C148.643 52.2252 145.923 46.7527 144.59 46.6006C142.223 46.3343 136.435 44.5246 131.762 46.0517Z" fill="#263238"/>
<path d="M131.104 50.5786C131.05 50.2634 128.319 44.7528 125.702 48.6059C122.063 53.9643 121.818 60.6921 121.818 60.6921C121.818 60.6921 119.582 67.2135 121.138 68.6591C122.694 70.1046 124.402 71.0068 125.49 70.197C126.258 69.5272 126.871 68.6982 127.285 67.7678C127.285 67.7678 132.072 56.187 131.104 50.5786Z" fill="#263238"/>
<path d="M130.935 44.0083C130.67 44.2469 130.463 44.5429 130.33 44.8738C130.197 45.2047 130.141 45.5616 130.167 45.9172C130.193 46.2729 130.301 46.6178 130.481 46.9256C130.661 47.2333 130.91 47.4958 131.207 47.6929C131.048 48.2517 131.049 48.8441 131.212 49.4021C131.374 49.96 131.691 50.4608 132.126 50.8468C132.561 51.2329 133.096 51.4885 133.669 51.5843C134.243 51.6801 134.832 51.6122 135.369 51.3883C134.912 52.2144 135.429 53.3067 136.228 53.8175C137.072 54.2533 138 54.5017 138.948 54.5458C139.901 54.5911 140.815 54.9353 141.56 55.5294L144.465 51.3503C144.891 50.8395 145.168 50.2207 145.264 49.5624C145.292 48.9048 144.791 48.1766 144.133 48.2255C144.463 47.8698 144.647 47.4029 144.648 46.9179C144.648 46.433 144.467 45.9654 144.138 45.6084C143.809 45.2514 143.358 45.0311 142.874 44.9914C142.391 44.9516 141.91 45.0954 141.527 45.3941C141.574 45.1091 141.536 44.8167 141.418 44.553C141.3 44.2894 141.107 44.066 140.863 43.9105C140.369 43.6126 139.808 43.4427 139.231 43.416L130.935 44.0083Z" fill="#263238"/>
<path d="M132.682 36.9164C133.438 39.6879 134.357 44.8018 132.524 46.8234C135.884 48.2721 138.908 50.3978 141.407 53.0676C142.068 52.461 142.521 51.6626 142.702 50.785C142.884 49.9073 142.785 48.9949 142.419 48.1766C142.206 47.6569 141.889 47.1855 141.489 46.7906C141.089 46.3956 140.614 46.0852 140.091 45.8778C138.067 45.0191 138.051 43.0356 138.388 41.1281L132.682 36.9164Z" fill="#E8BFBF"/>
<path opacity="0.2" d="M133.824 41.6389L135.733 42.1552C136.552 42.3774 137.408 42.4274 138.247 42.3019C138.176 42.8895 138.238 43.4854 138.426 44.0464C137.787 44.2929 137.09 44.3486 136.42 44.2068C135.75 44.065 135.135 43.7317 134.651 43.2475C134.298 42.7548 134.019 42.2127 133.824 41.6389Z" fill="black"/>
<path d="M128.977 34.5523C130.995 38.813 131.762 40.6607 134.874 42.0193C139.563 44.0681 144.35 40.6444 143.643 35.8675C143.001 31.5688 139.803 25.3137 134.825 25.292C133.729 25.2819 132.649 25.5514 131.687 26.0751C130.724 26.5989 129.912 27.3594 129.326 28.2847C128.74 29.21 128.401 30.2693 128.34 31.3624C128.279 32.4554 128.498 33.546 128.977 34.5306V34.5523Z" fill="#E8BFBF"/>
<path d="M131.197 26.4115C129.722 25.7268 127.895 26.2865 126.665 27.3626C125.436 28.4386 124.658 29.9928 123.945 31.4873C123.516 32.2824 123.187 33.1276 122.966 34.0035C122.746 34.8898 122.866 35.8263 123.303 36.6283C123.536 37.0031 123.855 37.3172 124.233 37.5449C124.612 37.7726 125.039 37.9073 125.479 37.938C125.75 37.9547 126.011 38.045 126.235 38.1992C126.458 38.3534 126.635 38.5656 126.747 38.813C126.858 39.27 126.858 39.7472 126.747 40.2042C126.643 40.6475 126.643 41.1087 126.747 41.552C126.895 41.9006 127.138 42.2005 127.449 42.4177C127.76 42.6348 128.125 42.7604 128.504 42.7801C129.261 42.8011 130.016 42.6795 130.729 42.4215C130.946 42.3474 131.179 42.3326 131.403 42.3784C131.628 42.4243 131.837 42.5292 132.007 42.6823C132.094 42.7623 132.168 42.8559 132.225 42.9595C132.28 43.0538 132.361 43.1308 132.458 43.1822C132.554 43.2335 132.663 43.2571 132.772 43.2504C132.882 43.2436 132.987 43.2068 133.077 43.1439C133.166 43.0811 133.237 42.9947 133.28 42.8943C133.938 41.3291 132.981 38.8347 131.556 36.9164C130.8 35.9055 130.838 36.161 130.544 34.9328C130.294 33.9111 130.669 32.8459 131.126 31.9003C131.741 30.6341 132.524 29.4059 132.279 27.8951C132.233 27.5785 132.11 27.278 131.922 27.0194C131.733 26.7609 131.484 26.5523 131.197 26.4115Z" fill="#263238"/>
<path d="M129.102 38.9162C129.774 39.6284 130.701 40.0448 131.681 40.0738C132.981 40.1064 133.313 38.8673 132.682 37.8076C132.138 36.8566 130.756 35.699 129.581 36.1773C128.406 36.6555 128.286 38.0032 129.102 38.9162Z" fill="#E8BFBF"/>
<path d="M137.088 33.797C137.241 34.1665 137.54 34.3676 137.774 34.2698C138.008 34.1719 138.067 33.8187 137.937 33.4546C137.806 33.0905 137.491 32.9111 137.251 32.9818C137.012 33.0524 136.963 33.4383 137.088 33.797Z" fill="#263238"/>
<path d="M141.087 32.0797C141.233 32.4546 141.533 32.6503 141.767 32.5579C142 32.4655 142.06 32.1068 141.93 31.7427C141.799 31.3786 141.484 31.1993 141.25 31.2699C141.016 31.3406 140.945 31.7264 141.087 32.0797Z" fill="#263238"/>
<path d="M141.146 31.3351L141.902 30.7428C141.902 30.7428 141.739 31.5851 141.146 31.3351Z" fill="#263238"/>
<path d="M140.053 32.8785C140.978 33.7915 141.685 33.9654 142.675 34.585C142.665 34.8345 142.576 35.0744 142.421 35.2699C142.265 35.4653 142.051 35.6062 141.81 35.6719L140.053 32.8785Z" fill="#ED847E"/>
<path d="M141.386 37.4163C141.559 37.3528 141.726 37.2747 141.886 37.1826C141.911 37.1689 141.93 37.1457 141.938 37.1182C141.946 37.0907 141.943 37.0612 141.93 37.0359C141.914 37.0114 141.89 36.9934 141.862 36.9854C141.834 36.9774 141.804 36.9799 141.777 36.9924C141.361 37.2339 140.893 37.3727 140.413 37.3973C139.932 37.4219 139.452 37.3315 139.014 37.1337C138.987 37.1203 138.956 37.118 138.928 37.1271C138.899 37.1362 138.875 37.1562 138.862 37.1826C138.854 37.1954 138.849 37.2095 138.847 37.2242C138.845 37.2389 138.846 37.2539 138.85 37.2681C138.854 37.2824 138.861 37.2956 138.871 37.3071C138.88 37.3186 138.892 37.328 138.905 37.3348C139.292 37.5131 139.711 37.6122 140.137 37.6262C140.563 37.6402 140.988 37.5688 141.386 37.4163Z" fill="#263238"/>
<path d="M136.957 30.8352C136.955 30.885 136.937 30.9328 136.905 30.9718C136.874 31.0108 136.831 31.039 136.783 31.0526C135.739 31.3623 135.276 32.6829 135.276 32.6829C135.267 32.7122 135.252 32.7392 135.231 32.7626C135.211 32.7859 135.187 32.8051 135.159 32.819C135.132 32.8328 135.102 32.8412 135.071 32.8435C135.04 32.8457 135.009 32.842 134.98 32.8323C134.951 32.8227 134.924 32.8074 134.9 32.7873C134.877 32.7672 134.858 32.7427 134.844 32.7152C134.83 32.6877 134.822 32.6577 134.819 32.627C134.817 32.5963 134.821 32.5654 134.83 32.5362C134.868 32.4818 135.374 30.9656 136.647 30.5852C136.708 30.5698 136.772 30.5781 136.827 30.6084C136.881 30.6387 136.922 30.6887 136.941 30.7482C136.954 30.7753 136.96 30.8053 136.957 30.8352Z" fill="#263238"/>
<path d="M141.772 30.1939C141.731 30.2227 141.683 30.2382 141.633 30.2382C141.583 30.2382 141.535 30.2227 141.494 30.1939C140.646 29.5092 139.291 29.8841 139.286 29.8896C139.256 29.8988 139.225 29.9019 139.194 29.899C139.163 29.896 139.133 29.8869 139.106 29.8722C139.079 29.8576 139.054 29.8376 139.035 29.8135C139.015 29.7895 139.001 29.7617 138.992 29.732C138.975 29.6722 138.982 29.6081 139.011 29.5533C139.041 29.4985 139.091 29.4573 139.15 29.4385C139.215 29.4385 140.782 28.9929 141.788 29.8189C141.835 29.8591 141.866 29.9156 141.873 29.9772C141.88 30.0387 141.863 30.1006 141.826 30.1504C141.811 30.1681 141.793 30.1828 141.772 30.1939Z" fill="#263238"/>
<path d="M137.175 33.0416L137.931 32.4546C137.931 32.4546 137.757 33.297 137.175 33.0416Z" fill="#263238"/>
<path d="M131.523 25.6996C130.928 25.752 130.352 25.9387 129.839 26.2455C129.327 26.5524 128.891 26.9715 128.564 27.4712C128.128 28.1451 127.976 29.1668 128.618 29.645C128.945 29.8446 129.322 29.9482 129.706 29.9439C131.338 30.0907 133.4 28.8136 133.4 28.8136C132.763 26.0963 138.437 24.0204 141.233 28.2049C142.055 29.4331 141.832 30.3243 143.197 30.895C143.839 31.1612 144.688 31.0852 145.101 31.6503C145.781 32.5796 144.47 34.1556 145.302 34.9545C145.874 35.498 147.168 35.2914 147.25 36.0794C147.283 36.449 147.043 36.9816 147.397 37.0903C147.593 37.15 147.778 36.9707 147.903 36.8077C148.243 36.4429 148.492 36.0037 148.632 35.5251C148.698 35.2859 148.683 35.0315 148.59 34.8014C148.496 34.5714 148.329 34.3788 148.115 34.2535C147.767 34.0959 146.847 34.2535 146.907 34.6447C146.766 33.7828 146.721 32.9081 146.771 32.0362C146.924 31.308 147.62 30.6721 147.408 29.9548C147.196 29.2374 146.276 28.8679 145.487 28.7701C144.699 28.6723 143.801 28.5581 143.311 27.9277C142.822 27.2973 143.018 26.2104 142.844 25.3355C142.698 24.7887 142.425 24.284 142.047 23.8628C141.669 23.4415 141.196 23.1156 140.668 22.9117C137.485 21.5477 132.606 21.7433 131.523 25.6996Z" fill="#263238"/>
<path d="M140.483 40.177L129.603 45.6387C127.873 46.5046 126.53 47.9863 125.839 49.7918C125.149 51.5973 125.16 53.5958 125.871 55.3935L131.104 68.7623C131.81 70.5584 133.162 72.0268 134.894 72.8801C136.627 73.7334 138.615 73.9103 140.472 73.3762L152.168 70.0068C153.205 69.7097 154.168 69.1993 154.997 68.5084C155.825 67.8176 156.5 66.9615 156.978 65.9951C157.455 65.0286 157.726 63.9731 157.772 62.8961C157.817 61.8192 157.637 60.7445 157.243 59.7411L151.178 44.2964C150.787 43.2918 150.19 42.3798 149.426 41.6187C148.662 40.8576 147.748 40.2642 146.741 39.8765C145.734 39.4887 144.658 39.3152 143.58 39.3669C142.502 39.4187 141.447 39.6946 140.483 40.177ZM138.682 63.1322C137.813 63.4724 136.863 63.5476 135.952 63.3482C135.04 63.1489 134.209 62.684 133.562 62.0124C132.915 61.3407 132.482 60.4925 132.318 59.575C132.153 58.6576 132.265 57.712 132.639 56.8581C133.013 56.0041 133.632 55.28 134.417 54.7775C135.203 54.2749 136.12 54.0165 137.053 54.0348C137.986 54.0531 138.892 54.3474 139.658 54.8805C140.423 55.4135 141.013 56.1613 141.353 57.0293C141.582 57.6065 141.694 58.2232 141.684 58.8439C141.673 59.4646 141.54 60.0772 141.292 60.6463C141.044 61.2155 140.685 61.73 140.237 62.1603C139.789 62.5907 139.261 62.9284 138.682 63.154V63.1322Z" fill="#407BFF"/>
<path d="M140.483 40.177L129.603 45.6387C127.873 46.5046 126.53 47.9863 125.839 49.7918C125.149 51.5973 125.16 53.5958 125.871 55.3935L131.104 68.7623C131.81 70.5584 133.162 72.0268 134.894 72.8801C136.627 73.7334 138.615 73.9103 140.472 73.3762L152.168 70.0068C153.205 69.7097 154.168 69.1993 154.997 68.5084C155.825 67.8176 156.5 66.9615 156.978 65.9951C157.455 65.0286 157.726 63.9731 157.772 62.8961C157.817 61.8192 157.637 60.7445 157.243 59.7411L151.178 44.2964C150.787 43.2918 150.19 42.3798 149.426 41.6187C148.662 40.8576 147.748 40.2642 146.741 39.8765C145.734 39.4887 144.658 39.3152 143.58 39.3669C142.502 39.4187 141.447 39.6946 140.483 40.177ZM138.682 63.1322C137.813 63.4724 136.863 63.5476 135.952 63.3482C135.04 63.1489 134.209 62.684 133.562 62.0124C132.915 61.3407 132.482 60.4925 132.318 59.575C132.153 58.6576 132.265 57.712 132.639 56.8581C133.013 56.0041 133.632 55.28 134.417 54.7775C135.203 54.2749 136.12 54.0165 137.053 54.0348C137.986 54.0531 138.892 54.3474 139.658 54.8805C140.423 55.4135 141.013 56.1613 141.353 57.0293C141.582 57.6065 141.694 58.2232 141.684 58.8439C141.673 59.4646 141.54 60.0772 141.292 60.6463C141.044 61.2155 140.685 61.73 140.237 62.1603C139.789 62.5907 139.261 62.9284 138.682 63.154V63.1322Z" fill="#407BFF"/>
<path opacity="0.1" d="M157.243 59.7411L151.178 44.2964C150.787 43.2918 150.19 42.3798 149.426 41.6187C148.662 40.8576 147.748 40.2642 146.741 39.8765C145.734 39.4887 144.658 39.3152 143.58 39.3669C142.502 39.4187 141.447 39.6946 140.483 40.177L137.322 41.8074L135.2 42.8943L129.608 45.7039C127.893 46.5678 126.56 48.0381 125.869 49.8289C125.178 51.6197 125.179 53.6031 125.871 55.3935L131.104 68.7623C131.81 70.5584 133.162 72.0268 134.894 72.8801C136.627 73.7334 138.615 73.9103 140.472 73.3762L152.173 70.0068C153.099 69.7401 153.967 69.3013 154.73 68.7134C155.303 68.2819 155.811 67.7693 156.237 67.1918C157.027 66.1386 157.534 64.9012 157.71 63.5972C157.886 62.2931 157.725 60.9657 157.243 59.7411ZM138.682 63.1431C137.814 63.4818 136.864 63.556 135.954 63.3562C135.044 63.1564 134.213 62.6917 133.567 62.0206C132.921 61.3495 132.488 60.5022 132.324 59.5857C132.159 58.6691 132.27 57.7245 132.643 56.871C133.015 56.0175 133.633 55.2933 134.417 54.7901C135.201 54.2868 136.117 54.0269 137.049 54.0433C137.981 54.0597 138.887 54.3515 139.653 54.882C140.419 55.4125 141.011 56.1578 141.353 57.0239C141.583 57.6014 141.696 58.2186 141.686 58.8399C141.676 59.4612 141.543 60.0744 141.294 60.6442C141.046 61.2139 140.687 61.729 140.239 62.1598C139.791 62.5905 139.262 62.9284 138.682 63.154V63.1431Z" fill="white"/>
<path d="M140.591 41.2204L130.391 46.3397C128.773 47.1513 127.517 48.5376 126.869 50.2265C126.221 51.9155 126.228 53.7854 126.888 55.4696L131.811 68.0015C132.469 69.6901 133.735 71.0721 135.361 71.8764C136.986 72.6807 138.853 72.8493 140.597 72.3491L151.564 69.1862C152.535 68.9065 153.437 68.4275 154.212 67.7797C154.987 67.132 155.618 66.3298 156.065 65.4245C156.512 64.5191 156.765 63.5306 156.808 62.522C156.85 61.5134 156.682 60.507 156.313 59.5672L150.628 45.068C150.26 44.1267 149.699 43.2725 148.981 42.5601C148.263 41.8477 147.405 41.2927 146.46 40.9305C145.516 40.5684 144.506 40.4072 143.495 40.4571C142.485 40.507 141.496 40.767 140.591 41.2204ZM132.567 60.4856C132.227 59.618 132.152 58.6692 132.352 57.759C132.552 56.8489 133.017 56.0184 133.689 55.3724C134.361 54.7264 135.21 54.294 136.128 54.1298C137.046 53.9657 137.993 54.0771 138.847 54.4501C139.702 54.8231 140.427 55.4409 140.93 56.2253C141.433 57.0097 141.693 57.9256 141.675 58.8572C141.657 59.7888 141.363 60.6942 140.831 61.459C140.298 62.2238 139.55 62.8136 138.682 63.154C138.105 63.3808 137.489 63.4917 136.87 63.4803C136.25 63.4689 135.638 63.3355 135.07 63.0876C134.502 62.8397 133.989 62.4823 133.559 62.0358C133.13 61.5893 132.793 61.0625 132.567 60.4856Z" fill="#407BFF"/>
<path opacity="0.1" d="M140.591 41.2204L130.391 46.3397C128.773 47.1513 127.517 48.5376 126.869 50.2265C126.221 51.9155 126.228 53.7854 126.888 55.4696L131.811 68.0015C132.469 69.6901 133.735 71.0721 135.361 71.8764C136.986 72.6807 138.853 72.8493 140.597 72.3491L151.564 69.1862C152.535 68.9065 153.437 68.4275 154.212 67.7797C154.987 67.132 155.618 66.3298 156.065 65.4245C156.512 64.5191 156.765 63.5306 156.808 62.522C156.85 61.5134 156.682 60.507 156.313 59.5672L150.628 45.068C150.26 44.1267 149.699 43.2725 148.981 42.5601C148.263 41.8477 147.405 41.2927 146.46 40.9305C145.516 40.5684 144.506 40.4072 143.495 40.4571C142.485 40.507 141.496 40.767 140.591 41.2204ZM132.567 60.4856C132.227 59.618 132.152 58.6692 132.352 57.759C132.552 56.8489 133.017 56.0184 133.689 55.3724C134.361 54.7264 135.21 54.294 136.128 54.1298C137.046 53.9657 137.993 54.0771 138.847 54.4501C139.702 54.8231 140.427 55.4409 140.93 56.2253C141.433 57.0097 141.693 57.9256 141.675 58.8572C141.657 59.7888 141.363 60.6942 140.831 61.459C140.298 62.2238 139.55 62.8136 138.682 63.154C138.105 63.3808 137.489 63.4917 136.87 63.4803C136.25 63.4689 135.638 63.3355 135.07 63.0876C134.502 62.8397 133.989 62.4823 133.559 62.0358C133.13 61.5893 132.793 61.0625 132.567 60.4856Z" fill="#407BFF"/>
<path d="M191.281 36.3729L190.971 36.9163L190.797 37.2315L190.302 38.1282L190.509 40.427C190.52 40.5243 190.509 40.6227 190.476 40.715C190.442 40.815 190.388 40.9066 190.315 40.9835C190.243 41.0604 190.155 41.1208 190.057 41.1607L185.76 42.8399C185.661 42.879 185.556 42.8954 185.45 42.8879C185.345 42.8803 185.242 42.8491 185.15 42.7964C185.09 42.766 185.034 42.7256 184.987 42.6769L182.555 40.2042L179.096 41.5574L179.596 42.8345L176.142 44.1822L176.963 46.2854L174.423 47.2799C174.321 47.3192 174.212 47.3366 174.104 47.331C173.995 47.3254 173.889 47.2968 173.792 47.2473C173.725 47.2157 173.665 47.1735 173.612 47.1223L172.149 45.7474L168.689 47.0951L169.516 49.1982L165.882 50.6221L166.709 52.7307C166.741 52.8127 166.757 52.9003 166.756 52.9886C166.754 53.0768 166.735 53.1638 166.7 53.2446C166.664 53.3255 166.613 53.3985 166.549 53.4595C166.486 53.5205 166.41 53.5683 166.328 53.6002L156.378 57.4912L152.059 46.4864L188.061 32.4057L188.605 32.6938L190.427 33.6339C190.668 33.7531 190.881 33.9197 191.056 34.1237C191.23 34.3278 191.361 34.5649 191.441 34.8209C191.52 35.077 191.547 35.3465 191.52 35.6132C191.493 35.88 191.411 36.1384 191.281 36.3729Z" fill="#407BFF"/>
<g opacity="0.1">
<path opacity="0.1" d="M191.281 36.3729L190.971 36.9163L190.797 37.2315L190.302 38.1282L190.509 40.427C190.52 40.5243 190.509 40.6227 190.476 40.715C190.442 40.815 190.388 40.9066 190.315 40.9835C190.243 41.0604 190.155 41.1208 190.057 41.1607L185.76 42.8399C185.661 42.879 185.556 42.8954 185.45 42.8879C185.345 42.8803 185.242 42.8491 185.15 42.7964C185.09 42.766 185.034 42.7256 184.987 42.6769L182.555 40.2042L179.096 41.5574L179.596 42.8345L176.142 44.1822L176.963 46.2854L174.423 47.2799C174.321 47.3192 174.212 47.3366 174.104 47.331C173.995 47.3254 173.889 47.2968 173.792 47.2473C173.725 47.2157 173.665 47.1735 173.612 47.1223L172.149 45.7474L168.689 47.0951L169.516 49.1982L165.882 50.6221L166.709 52.7307C166.741 52.8127 166.757 52.9003 166.756 52.9886C166.754 53.0768 166.735 53.1638 166.7 53.2446C166.664 53.3255 166.613 53.3985 166.549 53.4595C166.486 53.5205 166.41 53.5683 166.328 53.6002L156.378 57.4912L152.059 46.4864L188.061 32.4057L188.605 32.6938L190.427 33.6339C190.668 33.7531 190.881 33.9197 191.056 34.1237C191.23 34.3278 191.361 34.5649 191.441 34.8209C191.52 35.077 191.547 35.3465 191.52 35.6132C191.493 35.88 191.411 36.1384 191.281 36.3729Z" fill="white"/>
</g>
<path d="M191.14 35.1338L152.647 50.1873L151.526 47.3614L188.224 33.009L190.052 33.9437C190.748 34.3024 191.145 34.6339 191.14 35.1338Z" fill="#407BFF"/>
<path opacity="0.1" d="M191.14 35.1338L152.647 50.1873L151.526 47.3614L188.224 33.009L190.052 33.9437C190.748 34.3024 191.145 34.6339 191.14 35.1338Z" fill="black"/>
<path d="M190.4 37.2533L190.03 38.0902C190.027 38.1045 190.027 38.1193 190.03 38.1337L190.242 40.4053C190.256 40.4862 190.256 40.5689 190.242 40.6498C190.239 40.6634 190.232 40.676 190.222 40.6864C190.213 40.6968 190.201 40.7048 190.188 40.7096L185.515 42.5465C185.503 42.5531 185.49 42.5566 185.477 42.5566C185.463 42.5566 185.45 42.5531 185.439 42.5465C185.392 42.5185 185.35 42.4837 185.314 42.4432L182.637 39.7586C182.624 39.7492 182.607 39.7442 182.591 39.7442C182.574 39.7442 182.558 39.7492 182.545 39.7586L178.737 41.2476C178.716 41.2572 178.699 41.2741 178.69 41.2952C178.681 41.3163 178.68 41.34 178.688 41.3617L179.139 42.5084C179.144 42.5191 179.146 42.5306 179.146 42.5421C179.146 42.5537 179.143 42.5651 179.139 42.5757C179.134 42.5864 179.128 42.596 179.119 42.604C179.111 42.6121 179.101 42.6183 179.09 42.6225L175.853 43.8942C175.843 43.8984 175.833 43.9047 175.825 43.9127C175.816 43.9208 175.81 43.9304 175.805 43.941C175.8 43.9516 175.798 43.963 175.798 43.9746C175.798 43.9862 175.8 43.9976 175.805 44.0083L176.582 45.981C176.588 45.9916 176.591 46.0032 176.591 46.015C176.591 46.0268 176.589 46.0386 176.584 46.0494C176.58 46.0603 176.573 46.07 176.564 46.0779C176.555 46.0858 176.545 46.0917 176.533 46.0952L174.162 47.0299C174.15 47.0366 174.137 47.0401 174.124 47.0401C174.11 47.0401 174.097 47.0366 174.085 47.0299C174.036 47.0017 173.99 46.967 173.949 46.9266L172.209 45.3289C172.195 45.3213 172.18 45.3172 172.165 45.3172C172.15 45.3172 172.135 45.3213 172.122 45.3289L168.352 46.8125C168.34 46.816 168.33 46.8219 168.321 46.8298C168.312 46.8377 168.305 46.8474 168.301 46.8583C168.296 46.8691 168.294 46.8809 168.294 46.8927C168.295 46.9045 168.297 46.9161 168.303 46.9266L169.097 48.9483C169.102 48.9588 169.105 48.9704 169.105 48.9822C169.106 48.994 169.104 49.0058 169.099 49.0166C169.094 49.0275 169.087 49.0372 169.079 49.0451C169.07 49.053 169.059 49.0589 169.048 49.0624L154.572 54.7523C154.551 54.7595 154.528 54.7585 154.508 54.7494C154.488 54.7403 154.472 54.7238 154.463 54.7034L152.973 51.046C152.965 51.0243 152.966 51.0006 152.975 50.9795C152.984 50.9584 153.001 50.9414 153.022 50.9318L190.743 36.1012C190.759 36.0951 190.777 36.094 190.794 36.0981C190.811 36.1021 190.826 36.1112 190.838 36.1241C190.849 36.137 190.857 36.1531 190.859 36.1703C190.862 36.1875 190.859 36.2051 190.852 36.2207L190.4 37.2533Z" fill="#407BFF"/>
<path opacity="0.1" d="M190.4 37.2533L190.03 38.0902C190.027 38.1045 190.027 38.1193 190.03 38.1337L190.242 40.4053C190.256 40.4862 190.256 40.5689 190.242 40.6498C190.239 40.6634 190.232 40.676 190.222 40.6864C190.213 40.6968 190.201 40.7048 190.188 40.7096L185.515 42.5465C185.503 42.5531 185.49 42.5566 185.477 42.5566C185.463 42.5566 185.45 42.5531 185.439 42.5465C185.392 42.5185 185.35 42.4837 185.314 42.4432L182.637 39.7586C182.624 39.7492 182.607 39.7442 182.591 39.7442C182.574 39.7442 182.558 39.7492 182.545 39.7586L178.737 41.2476C178.716 41.2572 178.699 41.2741 178.69 41.2952C178.681 41.3163 178.68 41.34 178.688 41.3617L179.139 42.5084C179.144 42.5191 179.146 42.5306 179.146 42.5421C179.146 42.5537 179.143 42.5651 179.139 42.5757C179.134 42.5864 179.128 42.596 179.119 42.604C179.111 42.6121 179.101 42.6183 179.09 42.6225L175.853 43.8942C175.843 43.8984 175.833 43.9047 175.825 43.9127C175.816 43.9208 175.81 43.9304 175.805 43.941C175.8 43.9516 175.798 43.963 175.798 43.9746C175.798 43.9862 175.8 43.9976 175.805 44.0083L176.582 45.981C176.588 45.9916 176.591 46.0032 176.591 46.015C176.591 46.0268 176.589 46.0386 176.584 46.0494C176.58 46.0603 176.573 46.07 176.564 46.0779C176.555 46.0858 176.545 46.0917 176.533 46.0952L174.162 47.0299C174.15 47.0366 174.137 47.0401 174.124 47.0401C174.11 47.0401 174.097 47.0366 174.085 47.0299C174.036 47.0017 173.99 46.967 173.949 46.9266L172.209 45.3289C172.195 45.3213 172.18 45.3172 172.165 45.3172C172.15 45.3172 172.135 45.3213 172.122 45.3289L168.352 46.8125C168.34 46.816 168.33 46.8219 168.321 46.8298C168.312 46.8377 168.305 46.8474 168.301 46.8583C168.296 46.8691 168.294 46.8809 168.294 46.8927C168.295 46.9045 168.297 46.9161 168.303 46.9266L169.097 48.9483C169.102 48.9588 169.105 48.9704 169.105 48.9822C169.106 48.994 169.104 49.0058 169.099 49.0166C169.094 49.0275 169.087 49.0372 169.079 49.0451C169.07 49.053 169.059 49.0589 169.048 49.0624L154.572 54.7523C154.551 54.7595 154.528 54.7585 154.508 54.7494C154.488 54.7403 154.472 54.7238 154.463 54.7034L152.973 51.046C152.965 51.0243 152.966 51.0006 152.975 50.9795C152.984 50.9584 153.001 50.9414 153.022 50.9318L190.743 36.1012C190.759 36.0951 190.777 36.094 190.794 36.0981C190.811 36.1021 190.826 36.1112 190.838 36.1241C190.849 36.137 190.857 36.1531 190.859 36.1703C190.862 36.1875 190.859 36.2051 190.852 36.2207L190.4 37.2533Z" fill="black"/>
<path opacity="0.3" d="M134.95 53.2198C133.862 53.6469 132.925 54.3867 132.258 55.3456C131.59 56.3045 131.223 57.4394 131.201 58.6071C131.179 59.7748 131.504 60.9227 132.135 61.9059C132.766 62.8891 133.674 63.6634 134.746 64.1309C135.817 64.5985 137.003 64.7383 138.154 64.5328C139.305 64.3272 140.369 63.7855 141.211 62.9761C142.054 62.1667 142.638 61.1258 142.889 59.9852C143.139 58.8445 143.046 57.6551 142.621 56.5674C142.339 55.8431 141.916 55.1816 141.378 54.6209C140.839 54.0602 140.195 53.6114 139.482 53.3003C138.769 52.9892 138.002 52.822 137.224 52.8081C136.446 52.7943 135.674 52.9342 134.95 53.2198ZM138.682 63.1648C137.813 63.505 136.863 63.5802 135.952 63.3808C135.04 63.1815 134.209 62.7166 133.562 62.045C132.915 61.3733 132.482 60.5251 132.318 59.6076C132.154 58.6902 132.265 57.7446 132.639 56.8907C133.013 56.0367 133.632 55.3126 134.418 54.8101C135.203 54.3075 136.121 54.0491 137.053 54.0674C137.986 54.0857 138.893 54.38 139.658 54.9131C140.423 55.4461 141.013 56.1939 141.353 57.0619C141.805 58.2238 141.778 59.5173 141.277 60.6591C140.777 61.8009 139.843 62.698 138.682 63.154V63.1648Z" fill="white"/>
<path opacity="0.1" d="M156.242 67.1863C155.819 67.7637 155.313 68.2763 154.741 68.708L135.195 42.8454C135.195 42.8454 136.92 41.9813 137.311 41.7204C137.314 41.7492 137.324 41.777 137.338 41.8019C138.176 43.6116 153.539 63.5452 156.242 67.1863Z" fill="white"/>
<path opacity="0.1" d="M153.408 69.5232C153.288 69.5775 147.593 71.3111 147.593 71.3111L141.244 62.9149C142.202 61.9583 142.802 60.7023 142.945 59.3567C143.087 58.0111 142.762 56.6576 142.025 55.5224C141.288 54.3872 140.183 53.5391 138.896 53.12C137.608 52.7008 136.215 52.7361 134.95 53.2198C134.687 53.3179 134.434 53.4398 134.194 53.5839L128.58 46.1549C128.58 46.1549 133.514 43.8073 134.058 43.4377C134.205 44.4866 153.408 69.3058 153.408 69.5232Z" fill="white"/>
<path d="M130.12 28.732C129.8 29.1104 129.572 29.5568 129.453 30.037C129.334 30.5172 129.327 31.0184 129.432 31.5018C129.537 31.9853 129.751 32.4383 130.059 32.8258C130.367 33.2134 130.76 33.5251 131.208 33.7372C131.675 33.9545 132.187 34.0578 132.644 34.2806C132.882 34.3768 133.093 34.5311 133.256 34.7295C133.42 34.9279 133.531 35.1641 133.579 35.4164C133.634 35.9599 133.215 36.5033 133.258 37.0468C133.305 37.3012 133.404 37.5432 133.549 37.7574C133.694 37.9716 133.883 38.1534 134.102 38.2913C134.542 38.5663 134.914 38.938 135.19 39.3782C135.251 39.4899 135.29 39.6132 135.302 39.7404C135.314 39.8676 135.299 39.9958 135.259 40.1172C135.22 40.2386 135.155 40.3504 135.07 40.4458C134.985 40.5412 134.881 40.618 134.765 40.6716C134.707 40.7752 134.676 40.8922 134.676 41.0112C134.676 41.1302 134.707 41.2472 134.765 41.3509C134.835 41.4215 134.927 41.4668 135.025 41.4796C135.124 41.4924 135.224 41.472 135.309 41.4215C135.696 41.18 136.017 40.8467 136.244 40.4514C136.471 40.056 136.596 39.6108 136.609 39.1553C136.604 38.704 136.472 38.2632 136.228 37.8835C135.983 37.5039 135.637 37.2007 135.228 37.0087C135.176 36.8461 135.157 36.6747 135.173 36.5048C135.189 36.3349 135.239 36.1699 135.32 36.0197C135.565 35.4001 135.815 34.7752 136.065 34.1556C136.106 34.0037 136.112 33.8448 136.085 33.69C136.058 33.5352 135.997 33.3881 135.908 33.2589C135.722 33.0724 135.497 32.9294 135.249 32.8405L133.645 32.1557C133.041 31.8949 131.24 29.4929 133.373 28.7918C133.244 28.5199 133.043 28.2887 132.792 28.1237C132.54 27.9588 132.248 27.8665 131.947 27.8571C131.594 27.84 131.242 27.911 130.923 28.0637C130.604 28.2165 130.328 28.4461 130.12 28.732Z" fill="#263238"/>
<path d="M133.03 26.1452L132.867 28.0419C133.411 27.1723 134.384 25.4822 134.352 25.5474C133.933 25.7757 133.449 25.917 133.03 26.1452Z" fill="#263238"/>
<path d="M133.748 27.1832L135.978 25.1236C135.688 25.0231 135.375 25.0065 135.076 25.0757C134.777 25.1449 134.503 25.2972 134.286 25.5148C134.303 25.4659 133.955 26.5202 133.748 27.1832Z" fill="#263238"/>
<path d="M129.216 78.5987C126.317 82.1963 127.28 84.9516 123.276 91.3208C128.33 95.0597 133.868 95.6684 140.749 95.1249C141.565 93.6848 141.973 92.1849 142.789 90.7448C143.953 92.1903 144.889 93.4022 146.053 94.8532C149.66 94.3098 153.947 93.2718 156.797 91.4349C154.278 88.5492 152.712 84.9462 151.101 81.767C150.345 80.2725 150.661 79.6476 148.653 77.6912C142.261 77.9846 135.924 78.1368 129.537 78.4357C129.711 78.4629 129.048 78.5878 129.216 78.5987Z" fill="#263238"/>
<path d="M130.016 77.9955L129.619 79.6747C129.559 79.8106 129.717 79.9356 129.929 79.9193L147.549 79.1422C147.616 79.1503 147.684 79.1346 147.741 79.0978C147.797 79.0611 147.839 79.0056 147.859 78.9411L147.952 77.2727C147.952 77.164 147.805 77.0662 147.62 77.0825L130.315 77.8433C130.257 77.8409 130.198 77.8537 130.146 77.8803C130.093 77.907 130.049 77.9466 130.016 77.9955Z" fill="#407BFF"/>
<path d="M130.016 77.9955L129.619 79.6747C129.559 79.8106 129.717 79.9356 129.929 79.9193L147.549 79.1422C147.616 79.1503 147.684 79.1346 147.741 79.0978C147.797 79.0611 147.839 79.0056 147.859 78.9411L147.952 77.2727C147.952 77.164 147.805 77.0662 147.62 77.0825L130.315 77.8433C130.257 77.8409 130.198 77.8537 130.146 77.8803C130.093 77.907 130.049 77.9466 130.016 77.9955Z" fill="#407BFF"/>
<path d="M133.895 79.9247H133.383C133.285 79.9247 133.204 79.8812 133.209 79.8215L133.345 77.6477C133.345 77.5825 133.438 77.5281 133.536 77.5281L134.052 77.5009C134.145 77.5009 134.227 77.5444 134.221 77.6096L134.085 79.7834C134.08 79.8486 133.993 79.9193 133.895 79.9247Z" fill="#263238"/>
<path d="M146.613 79.3758H146.102C146.004 79.3758 145.923 79.3324 145.928 79.2726L146.064 77.0988C146.064 77.0336 146.156 76.9738 146.254 76.9738H146.766C146.864 76.9738 146.94 77.0173 146.934 77.077L146.798 79.2508C146.798 79.3052 146.717 79.3704 146.613 79.3758Z" fill="#263238"/>
<path d="M136.169 69.371C136.201 69.5286 137.567 71.7024 138.644 71.5448C138.797 71.5237 138.953 71.5432 139.096 71.6014C139.24 71.6596 139.365 71.7544 139.46 71.8763C139.89 72.4197 140.151 72.7567 140.439 73.1262C140.668 73.4179 140.989 73.6231 141.35 73.708C141.711 73.793 142.09 73.7526 142.425 73.5936C142.626 73.5012 142.827 73.3979 143.029 73.2892C143.353 73.1196 143.612 72.8456 143.762 72.5114C143.912 72.1771 143.945 71.8022 143.855 71.447C143.656 70.6457 143.346 69.8758 142.936 69.159C142.815 68.9039 142.627 68.6861 142.392 68.5286C141.261 68.0965 140.077 67.8186 138.872 67.7026C137.948 67.7406 137.045 68.9797 136.169 69.371Z" fill="#E8BFBF"/>
<path d="M138.927 67.6374C138.927 67.6374 124.467 63.2626 121.345 66.1755C119.512 67.8874 120.377 69.5068 121.405 70.5231C122.166 71.3002 123.825 71.11 124.913 71.0665L136.305 69.947L138.927 67.6374Z" fill="#E8BFBF"/>
<path d="M130.614 65.6375C130.549 65.2487 130.389 64.8822 130.146 64.571C129.904 64.2599 129.588 64.0138 129.227 63.855C128.503 63.5485 127.733 63.3648 126.948 63.3116L121.508 62.6214C120.53 63.8259 119.981 65.3208 119.947 66.8711C119.985 68.3704 120.534 69.8119 121.502 70.9579C122.373 69.2786 123.521 67.5504 125.218 66.7135C126.915 65.8766 128.754 65.3006 130.614 65.6375Z" fill="#263238"/>
<path opacity="0.1" d="M126.888 39.2529C126.888 39.2204 126.888 39.2042 126.888 39.1988C127.002 39.1663 126.986 39.188 126.888 39.2529Z" fill="white"/>
<path d="M162.814 15.8632L166.84 23.3302L183.279 9.38533C183.308 9.36027 183.326 9.32532 183.331 9.2874C183.335 9.24949 183.325 9.21137 183.302 9.18061C183.279 9.14984 183.246 9.12867 183.209 9.1213C183.171 9.11392 183.132 9.12087 183.1 9.14078L167.688 19.3032L165.316 14.6731L162.814 15.8632Z" fill="#407BFF"/>
<path d="M188.768 15.9013C188.768 22.553 181.778 27.9386 173.155 27.9386C170.056 27.9603 167 27.2134 164.261 25.7648L155.094 29.7483L160.861 23.3302C159.834 22.3797 159.009 21.2317 158.437 19.9551C157.865 18.6786 157.557 17.2997 157.532 15.9013C157.532 9.24947 164.522 3.85847 173.139 3.85847C181.756 3.85847 188.768 9.24947 188.768 15.9013Z" stroke="#407BFF" stroke-width="1.3" stroke-miterlimit="10"/>
</g>
<defs>
<clipPath id="clip0_336_353">
<rect width="272" height="188" fill="white"/>
</clipPath>
</defs>
</svg>
