<svg width="150" height="156" viewBox="0 0 150 156" fill="none" xmlns="http://www.w3.org/2000/svg">
<g clip-path="url(#clip0_60_2652)">
<path d="M104.972 78.5258C94.2914 76.5903 86.6379 79.9646 80.6679 85.1971C74.698 90.4295 72.8087 98.6363 54.6676 102.346C36.5265 106.056 30.3188 114.747 29.0464 125.721C27.774 136.696 36.3723 152.722 56.5055 152.722H96.3928C103.712 152.722 120.17 151.032 127.239 134.825C134.307 118.618 135.246 84.068 104.972 78.5258Z" fill="white"/>
<path d="M113.146 86.9133C111.269 83.868 110.183 82.7776 105.852 81.7518C101.521 80.7259 85.5453 86.1003 81.651 88.4682C77.7568 90.836 72.0117 98.9331 65.1936 103.166C58.3754 107.398 41.648 110.392 38.9812 129.186C37.0083 143.103 44.7647 149.671 52.746 152.516C53.9947 152.65 55.2496 152.716 56.5054 152.716H75.6811C77.7439 146.613 83.6496 136.309 96.2449 125.47C113.634 110.495 115.022 89.9392 113.146 86.9133Z" fill="#DBEDFF"/>
<path d="M104.972 78.5258C94.2914 76.5903 86.6379 79.9646 80.6679 85.1971C74.698 90.4295 72.8087 98.6363 54.6676 102.346C36.5265 106.056 30.3188 114.747 29.0464 125.721C27.774 136.696 36.3723 152.722 56.5055 152.722H96.3928C103.712 152.722 120.17 151.032 127.239 134.825C134.307 118.618 135.246 84.068 104.972 78.5258Z" stroke="#697BEE" stroke-width="0.75" stroke-linecap="round" stroke-linejoin="round"/>
<path d="M28.5323 131.825L20.5574 142.277L21.4635 146.013L25.3192 147.838C25.657 146.777 26.1696 145.781 26.8358 144.89C27.8961 143.509 33.7118 136.27 33.7118 136.27L28.5323 131.825Z" fill="white" stroke="#697BEE" stroke-width="0.75" stroke-linecap="round" stroke-linejoin="round"/>
<path d="M23.4684 153.69L22.0803 155.755L0.244141 142.896L1.62577 140.832L8.50821 144.89L23.4684 153.69Z" fill="white"/>
<path d="M17.5112 140.277C19.4391 140.064 20.0817 139.335 20.6794 139.761C21.277 140.186 21.534 141.47 20.3195 142.277C19.8766 142.026 19.3861 141.873 18.88 141.825C17.5434 141.619 12.1197 140.941 10.9116 140.832C9.70344 140.722 9.48495 141.554 9.48495 141.554C9.49733 141.081 9.43441 140.608 9.29858 140.154C9.29858 140.154 9.61347 139.554 10.6802 139.735C11.747 139.915 15.6091 140.464 17.5112 140.277Z" fill="#DBEDFF"/>
<path d="M10.9117 140.832C12.1198 140.941 17.5435 141.619 18.8802 141.825C19.3863 141.873 19.8767 142.026 20.3196 142.277C20.734 142.557 21.0701 142.939 21.2964 143.387C21.9294 144.509 22.8417 145.447 23.944 146.109C25.0943 146.754 25.7112 146.606 25.7755 147.613C25.8397 148.619 25.1328 151.548 23.4685 153.697L8.5083 144.89C9.11017 143.879 9.44628 142.731 9.48508 141.554C9.48508 141.554 9.70357 140.728 10.9117 140.832Z" fill="white"/>
<path d="M9.2986 140.154C9.43443 140.608 9.49734 141.081 9.48496 141.554C9.44616 142.731 9.11005 143.879 8.50818 144.89L1.62573 140.832C1.62573 140.832 3.39937 137.825 9.25362 140.032C9.25362 140.032 9.27289 140.077 9.2986 140.154Z" fill="white"/>
<path d="M23.4684 153.69L8.50821 144.89L1.62577 140.832L0.244141 142.896L22.0803 155.755L23.4684 153.69Z" stroke="#697BEE" stroke-width="0.75" stroke-linecap="round" stroke-linejoin="round"/>
<path d="M1.62573 140.832C1.62573 140.832 3.39937 137.825 9.25362 140.032C9.25362 140.032 9.25362 140.077 9.2986 140.154C9.43443 140.608 9.49734 141.081 9.48496 141.554C9.44616 142.731 9.11005 143.879 8.50818 144.89" stroke="#697BEE" stroke-width="0.75" stroke-linecap="round" stroke-linejoin="round"/>
<path d="M9.49146 141.554C9.49146 141.554 9.70995 140.728 10.9181 140.832C12.1262 140.935 17.5499 141.619 18.8865 141.825C19.3926 141.873 19.8831 142.026 20.326 142.277C20.7403 142.557 21.0765 142.939 21.3028 143.387C21.9358 144.509 22.848 145.447 23.9504 146.109C25.1007 146.754 25.7176 146.606 25.7818 147.613C25.8461 148.619 25.1392 151.548 23.4748 153.697" stroke="#697BEE" stroke-width="0.75" stroke-linecap="round" stroke-linejoin="round"/>
<path d="M9.29858 140.154C9.29858 140.154 9.61347 139.554 10.6802 139.735C11.747 139.915 15.6091 140.477 17.5112 140.277C19.4134 140.077 20.0817 139.335 20.6794 139.761C21.277 140.186 21.534 141.47 20.3195 142.277" stroke="#697BEE" stroke-width="0.75" stroke-linecap="round" stroke-linejoin="round"/>
<path d="M12.229 142.09C12.2351 142.156 12.228 142.224 12.208 142.287C12.1879 142.351 12.1554 142.41 12.1123 142.462C12.0693 142.513 12.0165 142.555 11.957 142.585C11.8976 142.615 11.8328 142.633 11.7663 142.638C11.7004 142.644 11.634 142.637 11.5708 142.618C11.5076 142.598 11.4489 142.566 11.3981 142.523C11.3474 142.481 11.3055 142.429 11.2749 142.37C11.2443 142.311 11.2257 142.246 11.2201 142.18L10.9951 139.599C10.9826 139.465 11.0236 139.331 11.1091 139.227C11.1946 139.123 11.3177 139.058 11.4514 139.044C11.5858 139.034 11.719 139.076 11.8224 139.163C11.9258 139.25 11.991 139.374 12.0041 139.509L12.229 142.09Z" fill="white" stroke="#697BEE" stroke-width="0.75" stroke-linecap="round" stroke-linejoin="round"/>
<path d="M14.3432 142.477C14.3557 142.611 14.3147 142.745 14.2292 142.849C14.1437 142.953 14.0206 143.019 13.8869 143.032C13.7525 143.043 13.6193 143 13.5159 142.913C13.4126 142.826 13.3473 142.702 13.3343 142.567L13.0708 139.741C13.0646 139.675 13.0715 139.608 13.0912 139.545C13.1108 139.482 13.1427 139.423 13.1851 139.372C13.2276 139.321 13.2796 139.279 13.3383 139.248C13.397 139.217 13.4611 139.199 13.527 139.193C13.5938 139.187 13.661 139.194 13.725 139.214C13.789 139.234 13.8484 139.266 13.8997 139.31C13.9511 139.353 13.9935 139.406 14.0243 139.465C14.0552 139.525 14.074 139.59 14.0797 139.657L14.3432 142.477Z" fill="white" stroke="#697BEE" stroke-width="0.75" stroke-linecap="round" stroke-linejoin="round"/>
<path d="M16.4639 142.864C16.4746 142.999 16.4321 143.133 16.3456 143.236C16.2591 143.34 16.1354 143.406 16.0012 143.419C15.8675 143.43 15.735 143.387 15.6326 143.3C15.5303 143.213 15.4664 143.088 15.455 142.954L15.1465 139.909C15.134 139.775 15.1749 139.641 15.2605 139.537C15.346 139.433 15.4691 139.367 15.6028 139.354C15.7371 139.343 15.8704 139.386 15.9738 139.473C16.0771 139.56 16.1424 139.684 16.1554 139.819L16.4639 142.864Z" fill="white" stroke="#697BEE" stroke-width="0.75" stroke-linecap="round" stroke-linejoin="round"/>
<path d="M18.5781 143.251C18.5843 143.318 18.5772 143.386 18.5572 143.45C18.5373 143.514 18.5049 143.574 18.4619 143.625C18.4188 143.677 18.3661 143.719 18.3066 143.75C18.2472 143.781 18.1822 143.8 18.1154 143.806C17.9817 143.817 17.8492 143.774 17.7469 143.687C17.6445 143.6 17.5807 143.476 17.5692 143.341L17.2029 140.077C17.1904 139.942 17.2313 139.809 17.3169 139.705C17.4024 139.601 17.5255 139.535 17.6592 139.522C17.7259 139.516 17.7932 139.523 17.8571 139.543C17.9211 139.563 17.9805 139.595 18.0318 139.639C18.0832 139.682 18.1256 139.735 18.1565 139.794C18.1874 139.854 18.2062 139.919 18.2118 139.986L18.5781 143.251Z" fill="white" stroke="#697BEE" stroke-width="0.75" stroke-linecap="round" stroke-linejoin="round"/>
<path d="M46.6348 103.998L27.3562 132.67L34.8813 139.367L51.9042 117.921C51.9042 117.921 62.3275 122.482 64.7952 122.482H77.2362C78.9407 122.39 80.5804 121.796 81.9514 120.775C83.3225 119.754 84.3644 118.351 84.9477 116.74C85.8409 114.243 87.229 107.979 79.3569 103.998H46.6348Z" fill="white"/>
<path d="M79.3698 103.998H46.6349L39.6753 114.321L48.5691 122.095L51.9043 117.895C51.9043 117.895 62.3276 122.457 64.7953 122.457H77.2363C78.9408 122.364 80.5805 121.77 81.9515 120.749C83.3226 119.728 84.3645 118.325 84.9478 116.715C85.8539 114.243 87.2483 107.979 79.3698 103.998Z" fill="#DBEDFF"/>
<path d="M46.6348 103.998L27.3562 132.67L34.8813 139.367L51.9042 117.921C51.9042 117.921 62.3275 122.482 64.7952 122.482H77.2362C78.9407 122.39 80.5804 121.796 81.9514 120.775C83.3225 119.754 84.3644 118.351 84.9477 116.74C85.8409 114.243 87.229 107.979 79.3569 103.998H46.6348Z" stroke="#697BEE" stroke-width="0.75" stroke-linecap="round" stroke-linejoin="round"/>
<path d="M51.9043 117.921C51.9043 117.921 53.4273 113.321 51.9557 109.65" stroke="#697BEE" stroke-width="0.75" stroke-linecap="round" stroke-linejoin="round"/>
<path d="M29.0464 130.134L36.6421 137.128" stroke="#697BEE" stroke-width="0.75" stroke-linecap="round" stroke-linejoin="round"/>
<path d="M105.64 58.7637C104.843 64.5704 104.464 66.3382 106.283 69.2545C108.101 72.1707 109.984 76.5967 106.662 79.6807H91.1362V58.3185L105.64 58.7637Z" fill="#697BEE" stroke="#697BEE" stroke-width="0.75" stroke-linecap="round" stroke-linejoin="round"/>
<path d="M89.6774 73.1579C88.6556 74.0482 85.2111 75.6547 84.4529 76.158C83.6946 76.6612 79.9545 81.4485 79.4662 83.5647C78.9778 85.681 79.434 89.836 79.042 92.5974C78.65 95.3588 74.865 106.191 74.865 106.191L93.5009 116.74C94.1402 114.572 94.5811 112.35 94.8183 110.101C94.9854 106.961 96.1219 103.951 98.0699 101.488C100.371 98.3912 107.42 86.3907 107.966 83.1841C108.512 79.9775 108.108 78.5839 106.09 76.7322C104.805 75.5838 100.846 73.6095 100.846 73.6095L89.6774 73.1579Z" fill="white" stroke="#697BEE" stroke-width="0.75" stroke-linecap="round" stroke-linejoin="round"/>
<path d="M39.3539 131.825L32.9277 142.277L34.3865 146.013L38.5314 147.838C38.7062 146.797 39.0722 145.797 39.611 144.89C40.4656 143.509 45.2018 136.27 45.2018 136.27L39.3539 131.825Z" fill="white" stroke="#697BEE" stroke-width="0.75" stroke-linecap="round" stroke-linejoin="round"/>
<path d="M36.6678 153.69L35.2862 155.755L13.4436 142.896L14.8317 140.832L21.7141 144.89L36.6678 153.69Z" fill="white"/>
<path d="M30.6978 140.277C32.6256 140.064 33.2682 139.335 33.8723 139.761C34.4764 140.186 34.727 141.47 33.506 142.277C33.0654 142.026 32.5771 141.873 32.073 141.825C30.7299 141.619 25.3126 140.941 24.1045 140.832C22.8964 140.722 22.6779 141.554 22.6779 141.554C22.6892 141.08 22.6241 140.607 22.4851 140.154C22.4851 140.154 22.8 139.554 23.8732 139.735C24.9463 139.915 28.8149 140.464 30.6978 140.277Z" fill="#DBEDFF"/>
<path d="M24.1174 140.832C25.3255 140.941 30.7428 141.619 32.0859 141.825C32.59 141.873 33.0784 142.026 33.5189 142.277C33.9369 142.555 34.2758 142.937 34.5021 143.387C35.1351 144.509 36.0474 145.447 37.1497 146.109C38.3 146.754 38.9169 146.606 38.9812 147.613C38.8296 149.826 38.0241 151.945 36.6678 153.697L21.7012 144.89C22.3043 143.879 22.6425 142.732 22.6844 141.554C22.6844 141.554 22.9093 140.728 24.1174 140.832Z" fill="white"/>
<path d="M22.4981 140.154C22.637 140.607 22.7021 141.08 22.6908 141.554C22.649 142.732 22.3107 143.879 21.7076 144.89L14.8252 140.832C14.8252 140.832 16.5988 137.825 22.4531 140.032C22.4531 140.032 22.4724 140.077 22.4981 140.154Z" fill="white"/>
<path d="M36.6678 153.69L21.7141 144.89L14.8317 140.832L13.4436 142.896L35.2862 155.755L36.6678 153.69Z" stroke="#697BEE" stroke-width="0.75" stroke-linecap="round" stroke-linejoin="round"/>
<path d="M14.8252 140.832C14.8252 140.832 16.5988 137.825 22.4531 140.032C22.4531 140.032 22.4531 140.077 22.4981 140.154C22.637 140.607 22.7021 141.08 22.6908 141.554C22.649 142.732 22.3107 143.879 21.7076 144.89" stroke="#697BEE" stroke-width="0.75" stroke-linecap="round" stroke-linejoin="round"/>
<path d="M22.6909 141.554C22.6909 141.554 22.9094 140.728 24.1175 140.832C25.3257 140.935 30.7429 141.619 32.086 141.825C32.5901 141.873 33.0785 142.026 33.519 142.277C33.9371 142.555 34.2759 142.937 34.5022 143.387C35.1352 144.509 36.0475 145.447 37.1498 146.109C38.3001 146.754 38.917 146.606 38.9813 147.613C38.8297 149.826 38.0242 151.945 36.6679 153.697" stroke="#697BEE" stroke-width="0.75" stroke-linecap="round" stroke-linejoin="round"/>
<path d="M22.498 140.154C22.498 140.154 22.8129 139.554 23.8861 139.735C24.9593 139.915 28.815 140.477 30.7107 140.277C32.6064 140.077 33.2812 139.335 33.8853 139.761C34.4893 140.186 34.7399 141.47 33.519 142.277" stroke="#697BEE" stroke-width="0.75" stroke-linecap="round" stroke-linejoin="round"/>
<path d="M25.4348 142.09C25.4454 142.224 25.4028 142.357 25.3161 142.46C25.2294 142.563 25.1057 142.627 24.9721 142.638C24.9062 142.644 24.8398 142.637 24.7766 142.618C24.7134 142.598 24.6547 142.566 24.6039 142.523C24.5531 142.481 24.5113 142.429 24.4807 142.37C24.4501 142.311 24.4315 142.246 24.4259 142.18L24.1945 139.599C24.1838 139.464 24.2262 139.331 24.3128 139.227C24.3993 139.123 24.523 139.058 24.6572 139.044C24.7905 139.035 24.9221 139.079 25.0241 139.166C25.126 139.252 25.1904 139.375 25.2034 139.509L25.4348 142.09Z" fill="white" stroke="#697BEE" stroke-width="0.75" stroke-linecap="round" stroke-linejoin="round"/>
<path d="M27.549 142.477C27.5552 142.544 27.5481 142.611 27.5281 142.676C27.5082 142.74 27.4758 142.799 27.4328 142.851C27.3898 142.903 27.337 142.945 27.2775 142.976C27.2181 143.007 27.1531 143.026 27.0863 143.032C26.953 143.041 26.8214 142.997 26.7195 142.911C26.6175 142.824 26.5532 142.701 26.5401 142.567L26.2702 139.741C26.2641 139.675 26.2712 139.607 26.2912 139.544C26.3112 139.48 26.3438 139.421 26.3868 139.37C26.4299 139.318 26.4827 139.277 26.5421 139.246C26.6016 139.216 26.6664 139.198 26.7329 139.193C26.7993 139.187 26.8662 139.194 26.9298 139.214C26.9934 139.234 27.0523 139.267 27.1032 139.31C27.154 139.353 27.1958 139.406 27.226 139.466C27.2562 139.526 27.2743 139.591 27.2791 139.657L27.549 142.477Z" fill="white" stroke="#697BEE" stroke-width="0.75" stroke-linecap="round" stroke-linejoin="round"/>
<path d="M29.6633 142.864C29.6758 142.998 29.6348 143.132 29.5493 143.236C29.4638 143.34 29.3407 143.406 29.207 143.419C29.0726 143.43 28.9394 143.387 28.836 143.3C28.7327 143.213 28.6674 143.089 28.6544 142.954L28.3459 139.909C28.3397 139.842 28.3468 139.774 28.3668 139.71C28.3867 139.646 28.4192 139.586 28.4622 139.535C28.5052 139.483 28.5579 139.441 28.6174 139.41C28.6768 139.379 28.7418 139.36 28.8086 139.354C28.9419 139.345 29.0735 139.389 29.1755 139.475C29.2774 139.562 29.3418 139.685 29.3548 139.819L29.6633 142.864Z" fill="white" stroke="#697BEE" stroke-width="0.75" stroke-linecap="round" stroke-linejoin="round"/>
<path d="M31.7775 143.251C31.79 143.385 31.7491 143.519 31.6635 143.623C31.578 143.727 31.4549 143.793 31.3213 143.806C31.1869 143.817 31.0536 143.774 30.9503 143.687C30.8469 143.6 30.7817 143.476 30.7686 143.341L30.4216 140.077C30.4154 140.01 30.4225 139.942 30.4425 139.878C30.4624 139.814 30.4948 139.754 30.5378 139.703C30.5809 139.651 30.6336 139.609 30.6931 139.577C30.7525 139.546 30.8175 139.528 30.8843 139.522C30.9506 139.516 31.0176 139.523 31.0812 139.543C31.1447 139.563 31.2037 139.596 31.2546 139.639C31.3054 139.682 31.3472 139.735 31.3774 139.795C31.4076 139.855 31.4257 139.92 31.4305 139.986L31.7775 143.251Z" fill="white" stroke="#697BEE" stroke-width="0.75" stroke-linecap="round" stroke-linejoin="round"/>
<path d="M53.318 103.998L38.2871 132.67L46.8082 139.367L60.6567 117.921C60.6567 117.921 71.7547 122.482 74.2223 122.482H86.6699C87.8459 122.482 92.4984 121.682 93.533 116.74C94.06 114.243 94.5162 107.979 86.053 103.998H53.318Z" fill="white" stroke="#697BEE" stroke-width="0.75" stroke-linecap="round" stroke-linejoin="round"/>
<path d="M60.6567 117.921C60.6567 117.921 61.4985 113.321 59.4807 109.65" stroke="#697BEE" stroke-width="0.75" stroke-linecap="round" stroke-linejoin="round"/>
<path d="M39.6174 130.134L48.2542 137.128" stroke="#697BEE" stroke-width="0.75" stroke-linecap="round" stroke-linejoin="round"/>
<path d="M99.2782 64.5123C99.0862 66.3336 99.0132 68.1656 99.0597 69.9964C99.1947 71.9965 100.878 73.6289 100.878 73.6289C100.878 73.6289 98.1858 78.0484 92.023 76.8935C89.3433 76.3903 89.0798 73.9643 89.4526 73.403C89.8253 72.8417 92.2287 71.0223 92.2287 64.5123H99.2782Z" fill="white"/>
<path d="M99.0275 68.848C99.0275 66.9125 99.2782 64.5446 99.2782 64.5446H92.2479C92.2479 71.0546 89.8638 72.874 89.4718 73.4353C89.3648 73.7023 89.3169 73.9894 89.3314 74.2768C89.3458 74.5642 89.4222 74.8451 89.5553 75.0999C94.0601 74.3708 97.5302 70.661 99.0275 68.848Z" fill="#DBEDFF"/>
<path d="M99.2782 64.5123C99.0862 66.3336 99.0132 68.1656 99.0597 69.9964C99.1947 71.9965 100.878 73.6289 100.878 73.6289C100.878 73.6289 98.1858 78.0484 92.023 76.8935C89.3433 76.3903 89.0798 73.9643 89.4526 73.403C89.8253 72.8417 92.2287 71.0223 92.2287 64.5123H99.2782Z" stroke="#697BEE" stroke-width="0.75" stroke-linecap="round" stroke-linejoin="round"/>
<path d="M87.9616 48.6601C82.9941 51.5892 78.1745 59.1121 87.0298 60.4025H89.7802V48.6601H87.9616Z" fill="#697BEE" stroke="#697BEE" stroke-width="0.75" stroke-linecap="round" stroke-linejoin="round"/>
<path d="M89.626 50.4666C86.3293 52.6344 85.6289 55.7442 85.6289 59.0347C85.6927 60.7329 85.6433 62.4336 85.4811 64.1252C85.314 65.8092 86.9013 70.1126 88.9641 70.4481C91.3225 70.8416 96.5855 69.6932 98.8989 66.0414C101.502 65.1962 103.616 63.0929 103.821 57.654C104.072 51.0602 95.9943 46.2664 89.626 50.4666Z" fill="white" stroke="#697BEE" stroke-width="0.75" stroke-linecap="round" stroke-linejoin="round"/>
<path d="M87.621 48.8924C86.5157 49.7246 87.9295 55.4216 93.0576 58.7121C97.7937 61.7509 101.804 61.9768 101.804 61.9768C101.804 61.9768 104.927 62.1123 105.447 59.8928C105.962 57.6703 105.714 55.3385 104.743 53.2752C103.773 51.2119 102.137 49.538 100.101 48.5246C95.4032 45.9503 89.6389 47.3697 87.621 48.8924Z" fill="#697BEE" stroke="#697BEE" stroke-width="0.75" stroke-linecap="round" stroke-linejoin="round"/>
<path d="M99.6958 62.1574C99.6958 62.1574 100.724 60.2993 102.363 60.4089C104.001 60.5186 103.397 63.1123 102.363 64.4156C101.943 64.9288 101.414 65.3413 100.814 65.6226C100.215 65.9039 99.5605 66.047 98.8989 66.0414C98.9244 64.7086 99.1945 63.3919 99.6958 62.1574Z" fill="white"/>
<path d="M99.6958 62.1574C99.6958 62.1574 100.724 60.2993 102.363 60.4089C104.001 60.5186 103.397 63.1123 102.363 64.4156C101.943 64.9288 101.414 65.3413 100.814 65.6226C100.215 65.9039 99.5605 66.047 98.8989 66.0414" stroke="#697BEE" stroke-width="0.75" stroke-linecap="round" stroke-linejoin="round"/>
<path d="M93.2119 61.0606C93.1794 61.1946 93.11 61.3167 93.0116 61.413C92.9132 61.5093 92.7899 61.5759 92.6557 61.6051C92.5214 61.6344 92.3817 61.6252 92.2524 61.5786C92.1231 61.5319 92.0095 61.4497 91.9245 61.3414C91.8396 61.233 91.7867 61.1028 91.7718 60.9657C91.757 60.8286 91.7809 60.69 91.8408 60.5659C91.9006 60.4417 91.9941 60.337 92.1104 60.2636C92.2267 60.1902 92.3612 60.1512 92.4986 60.1509C92.7118 60.1799 92.9055 60.291 93.0386 60.4608C93.1717 60.6306 93.2339 60.8457 93.2119 61.0606Z" fill="#697BEE"/>
<path d="M87.2483 61.0606C87.2483 61.5058 86.9913 61.8671 86.67 61.8671C86.3487 61.8671 86.0852 61.5058 86.0852 61.0606C86.0852 60.6154 86.3487 60.2606 86.67 60.2606C86.9913 60.2606 87.2483 60.6219 87.2483 61.0606Z" fill="#697BEE"/>
<path d="M88.3664 64.7769C88.3664 64.7769 87.878 64.5059 88.135 63.6994" stroke="#697BEE" stroke-width="0.75" stroke-linecap="round" stroke-linejoin="round"/>
<path d="M88.2122 67.0157C89.2013 67.2733 90.2517 67.1296 91.1361 66.6157" stroke="#697BEE" stroke-width="0.75" stroke-linecap="round" stroke-linejoin="round"/>
<path d="M91.3289 58.7637C91.3289 58.7637 92.0871 58.3573 93.8993 58.7637" stroke="#697BEE" stroke-width="0.75" stroke-linecap="round" stroke-linejoin="round"/>
<path d="M87.2484 58.5831C86.9183 58.4123 86.5529 58.3216 86.1816 58.3185" stroke="#697BEE" stroke-width="0.75" stroke-linecap="round" stroke-linejoin="round"/>
<path d="M85.4747 69.319H88.2122C88.491 69.3067 88.7694 69.3506 89.031 69.4481C89.2926 69.5456 89.532 69.6948 89.7352 69.8867C90.1594 70.2932 91.1811 71.0545 91.4189 71.2481C91.6567 71.4417 92.0615 71.6417 92.0101 71.8417C91.8248 72.0651 91.5698 72.2192 91.2864 72.2789C91.0029 72.3387 90.7077 72.3005 90.4486 72.1707C89.6003 71.8288 89.1633 71.5255 88.9127 71.4029C88.5657 71.3341 88.2125 71.3017 87.8588 71.3062V75.0741C87.8588 75.3579 86.0531 77.3838 85.7317 77.5709C85.2294 77.6945 84.7047 77.6945 84.2023 77.5709C83.9774 77.5 82.4351 77.087 82.4351 77.087C82.4351 77.087 79.4341 87.3068 78.8172 89.4747C78.2002 91.6425 75.1478 93.249 73.2714 93.049C71.3949 92.849 71.1379 89.6424 71.3435 88.1778C71.5491 86.7132 79.8968 73.674 80.3402 73.1578C80.7836 72.6417 85.057 69.319 85.4747 69.319Z" fill="white" stroke="#697BEE" stroke-width="0.75" stroke-linecap="round" stroke-linejoin="round"/>
<path d="M83.322 102.307H68.5225L69.827 103.998H84.6265L83.322 102.307Z" fill="#DBEDFF" stroke="#697BEE" stroke-width="0.75" stroke-linecap="round" stroke-linejoin="round"/>
<path d="M69.827 103.998H43.756L36.8157 82.1324H62.8867L69.827 103.998Z" fill="white" stroke="#697BEE" stroke-width="0.75" stroke-linecap="round" stroke-linejoin="round"/>
<path d="M52.6048 95.5781L51.6152 95.0297C49.2568 93.7394 48.9998 92.7845 48.9034 92.449C48.8342 92.2708 48.8107 92.078 48.835 91.8882C48.8594 91.6985 48.9308 91.518 49.0427 91.3632C49.1547 91.2084 49.3036 91.0844 49.4757 91.0024C49.6478 90.9204 49.8377 90.8832 50.0279 90.8941C50.3091 90.9052 50.5852 90.9726 50.8401 91.0922C51.095 91.2119 51.3236 91.3814 51.5124 91.5909C51.6004 91.3743 51.7536 91.1907 51.9506 91.0657C52.1477 90.9408 52.3786 90.8808 52.6113 90.8941C53.0605 90.9172 53.4916 91.0789 53.8459 91.3572C54.2001 91.6355 54.4602 92.0168 54.5905 92.449C54.6869 92.8103 54.944 93.7394 53.3053 95.0297L52.6048 95.5781Z" fill="#697BEE"/>
<path d="M98.8991 91.3005L97.8644 98.4621L81.6769 101.462C81.6769 101.462 78.6116 97.7008 78.3545 97.4685C78.0975 97.2363 75.4949 96.8233 75.1415 96.8233C73.9147 97.2755 72.7317 97.8392 71.6071 98.5073C71.1701 98.8299 70.4311 101.23 70.3218 101.488C70.2126 101.746 70.1097 102.333 70.6367 102.333H73.8948C74.2097 102.333 77.2171 104.63 77.8019 105.095C78.3867 105.559 79.1257 106.172 82.0496 105.559C84.5301 105.662 97.7873 105.598 99.8052 105.559C101.823 105.52 103.365 105.108 103.899 103.198C104.432 101.288 107.009 91.3457 107.009 91.3457L98.8991 91.3005Z" fill="white"/>
<path d="M98.417 94.6555C100.722 95.6381 103.143 96.319 105.621 96.6814C106.347 93.9007 107.015 91.3199 107.015 91.3199H98.899L98.417 94.6555Z" fill="#DBEDFF"/>
<path d="M98.8991 91.3005L97.8644 98.4621L81.6769 101.462C81.6769 101.462 78.6116 97.7008 78.3545 97.4685C78.0975 97.2363 75.4949 96.8233 75.1415 96.8233C73.9147 97.2755 72.7317 97.8392 71.6071 98.5073C71.1701 98.8299 70.4311 101.23 70.3218 101.488C70.2126 101.746 70.1097 102.333 70.6367 102.333H73.8948C74.2097 102.333 77.2171 104.63 77.8019 105.095C78.3867 105.559 79.1257 106.172 82.0496 105.559C84.5301 105.662 97.7873 105.598 99.8052 105.559C101.823 105.52 103.365 105.108 103.899 103.198C104.432 101.288 107.009 91.3457 107.009 91.3457L98.8991 91.3005Z" stroke="#697BEE" stroke-width="0.75" stroke-linecap="round" stroke-linejoin="round"/>
<path d="M98.899 84.7842L98.1729 92.849C101.701 93.0964 105.242 93.0964 108.77 92.849C108.77 92.849 109.631 84.7842 107.979 79.3646C106.765 79.4549 99.3681 77.8226 98.899 84.7842Z" fill="white"/>
<path d="M98.899 84.7842L98.1729 92.849C101.701 93.0964 105.242 93.0964 108.77 92.849C108.77 92.849 109.631 84.7842 107.979 79.3646" stroke="#697BEE" stroke-width="0.75" stroke-linecap="round" stroke-linejoin="round"/>
<path d="M110.267 81.1969L108.667 82.5324C108.667 82.5324 115.652 85.281 113.127 92.7071C110.383 100.83 98.1729 103.688 86.3873 107.908C74.6017 112.127 65.8235 119.947 62.6682 130.87C59.725 141.038 64.3069 151.206 72.8987 152.555C75.0065 152.271 111.7 146.103 111.7 146.103L121.256 98.5267C121.706 85.7003 110.267 81.1969 110.267 81.1969Z" fill="white"/>
<path d="M74.8651 152.722C65.0266 152.722 59.5065 141.799 62.6554 130.883C65.8042 119.966 74.6017 112.14 86.3744 107.921C98.1472 103.701 110.357 100.824 113.114 92.72C115.639 85.2938 108.654 82.5453 108.654 82.5453" stroke="#697BEE" stroke-width="0.75" stroke-linecap="round" stroke-linejoin="round"/>
<path d="M134.32 43.1502C134.32 43.9939 134.071 44.8187 133.604 45.5202C133.137 46.2216 132.473 46.7683 131.696 47.0908C130.92 47.4134 130.066 47.4975 129.241 47.3324C128.417 47.1674 127.66 46.7605 127.067 46.1635C126.473 45.5664 126.069 44.8059 125.906 43.9782C125.742 43.1505 125.827 42.2928 126.15 41.5137C126.472 40.7345 127.018 40.0689 127.717 39.6011C128.417 39.1332 129.238 38.8842 130.079 38.8855C130.636 38.8855 131.188 38.9958 131.703 39.2102C132.218 39.4246 132.686 39.7389 133.08 40.135C133.474 40.5311 133.786 41.0012 133.999 41.5186C134.212 42.036 134.321 42.5904 134.32 43.1502Z" fill="white" stroke="#697BEE" stroke-width="0.75" stroke-linejoin="round"/>
<path d="M130.079 48.8859V50.4731" stroke="#697BEE" stroke-width="0.75" stroke-linecap="round" stroke-linejoin="round"/>
<path d="M132.938 48.1181L133.729 49.4924" stroke="#697BEE" stroke-width="0.75" stroke-linecap="round" stroke-linejoin="round"/>
<path d="M135.033 46.0148L136.396 46.8084" stroke="#697BEE" stroke-width="0.75" stroke-linecap="round" stroke-linejoin="round"/>
<path d="M135.798 43.1437H137.379" stroke="#697BEE" stroke-width="0.75" stroke-linecap="round" stroke-linejoin="round"/>
<path d="M135.033 40.2726L136.396 39.4791" stroke="#697BEE" stroke-width="0.75" stroke-linecap="round" stroke-linejoin="round"/>
<path d="M132.938 38.1758L133.729 36.8015" stroke="#697BEE" stroke-width="0.75" stroke-linecap="round" stroke-linejoin="round"/>
<path d="M130.079 37.4015V35.8208" stroke="#697BEE" stroke-width="0.75" stroke-linecap="round" stroke-linejoin="round"/>
<path d="M127.219 38.1758L126.429 36.8015" stroke="#697BEE" stroke-width="0.75" stroke-linecap="round" stroke-linejoin="round"/>
<path d="M125.124 40.2726L123.762 39.4791" stroke="#697BEE" stroke-width="0.75" stroke-linecap="round" stroke-linejoin="round"/>
<path d="M124.359 43.1437H122.779" stroke="#697BEE" stroke-width="0.75" stroke-linecap="round" stroke-linejoin="round"/>
<path d="M125.124 46.0148L123.762 46.8084" stroke="#697BEE" stroke-width="0.75" stroke-linecap="round" stroke-linejoin="round"/>
<path d="M127.219 48.1181L126.429 49.4924" stroke="#697BEE" stroke-width="0.75" stroke-linecap="round" stroke-linejoin="round"/>
<path d="M130.079 0V33.2594" stroke="#697BEE" stroke-width="0.75" stroke-linejoin="round"/>
<path d="M116.982 44.1309C114.508 44.1309 114.142 42.9631 116.166 41.5501L126.397 34.3434C127.499 33.6445 128.775 33.2736 130.079 33.2736C131.382 33.2736 132.659 33.6445 133.761 34.3434L143.985 41.5501C146.009 42.976 145.643 44.1309 143.169 44.1309H116.982Z" fill="white" stroke="#697BEE" stroke-width="0.75" stroke-linejoin="round"/>
<path d="M127.978 139.174C125.195 137.238 126.879 134.089 125.587 131.986C124.295 129.883 125.131 127.734 126.448 126.347C127.765 124.96 128.087 123.831 127.155 121.87C126.223 119.908 127.277 117.515 128.151 116.418C129.025 115.321 131.133 113.837 132.007 109.166C132.881 104.495 139.082 102.398 139.082 102.398C139.082 102.398 143.105 107.65 141.241 111.985C139.378 116.321 140.297 118.753 140.419 120.153C140.541 121.553 140.084 124.128 138.227 125.237C136.37 126.347 136.01 127.476 136.338 129.36C136.666 131.244 136.171 133.502 133.935 134.522C131.698 135.541 131.351 139.174 127.978 139.174Z" fill="white" stroke="#697BEE" stroke-width="0.75" stroke-linecap="round" stroke-linejoin="round"/>
<path d="M127.978 139.193L139.082 102.411" stroke="#697BEE" stroke-width="0.75" stroke-linecap="round" stroke-linejoin="round"/>
<path d="M129.912 132.793L127.65 128.38" stroke="#697BEE" stroke-width="0.75" stroke-linecap="round" stroke-linejoin="round"/>
<path d="M130.317 131.534L134.911 129.715" stroke="#697BEE" stroke-width="0.75" stroke-linecap="round" stroke-linejoin="round"/>
<path d="M136.325 111.669L140.091 110.172" stroke="#697BEE" stroke-width="0.75" stroke-linecap="round" stroke-linejoin="round"/>
<path d="M133.125 122.199L139.204 119.792" stroke="#697BEE" stroke-width="0.75" stroke-linecap="round" stroke-linejoin="round"/>
<path d="M132.823 123.153L129.976 117.598" stroke="#697BEE" stroke-width="0.75" stroke-linecap="round" stroke-linejoin="round"/>
<path d="M135.83 113.185L134.089 109.779" stroke="#697BEE" stroke-width="0.75" stroke-linecap="round" stroke-linejoin="round"/>
<path d="M127.463 137.406C130.034 135.657 128.517 132.728 129.725 130.805C130.934 128.883 130.182 126.889 128.98 125.605C127.778 124.321 127.489 123.27 128.337 121.47C129.186 119.669 128.267 117.456 127.47 116.437C126.673 115.418 124.752 114.011 124.006 109.727C123.261 105.443 117.522 103.424 117.522 103.424C117.522 103.424 113.769 108.23 115.446 112.243C117.124 116.256 116.263 118.482 116.14 119.773C116.018 121.063 116.41 123.437 118.113 124.476C119.816 125.515 120.138 126.56 119.816 128.289C119.495 130.018 119.938 132.109 121.988 133.07C124.038 134.031 124.353 137.335 127.463 137.406Z" fill="white" stroke="#697BEE" stroke-width="0.75" stroke-linecap="round" stroke-linejoin="round"/>
<path d="M127.463 137.406L117.548 103.424" stroke="#697BEE" stroke-width="0.75" stroke-linecap="round" stroke-linejoin="round"/>
<path d="M125.741 131.489L127.862 127.45" stroke="#697BEE" stroke-width="0.75" stroke-linecap="round" stroke-linejoin="round"/>
<path d="M125.375 130.328L121.159 128.612" stroke="#697BEE" stroke-width="0.75" stroke-linecap="round" stroke-linejoin="round"/>
<path d="M120.009 111.972L116.552 110.566" stroke="#697BEE" stroke-width="0.75" stroke-linecap="round" stroke-linejoin="round"/>
<path d="M122.869 121.702L117.291 119.431" stroke="#697BEE" stroke-width="0.75" stroke-linecap="round" stroke-linejoin="round"/>
<path d="M123.138 122.586L125.812 117.489" stroke="#697BEE" stroke-width="0.75" stroke-linecap="round" stroke-linejoin="round"/>
<path d="M120.452 113.372L122.091 110.256" stroke="#697BEE" stroke-width="0.75" stroke-linecap="round" stroke-linejoin="round"/>
<path d="M124.578 137.967C125.51 136.464 124.045 135.296 124.225 134.025C124.29 133.487 124.17 132.942 123.883 132.483C123.596 132.024 123.161 131.677 122.65 131.502C122.228 131.389 121.862 131.123 121.624 130.754C121.387 130.386 121.294 129.942 121.365 129.509C121.403 128.373 120.407 127.444 119.758 127.102C118.381 126.61 117.207 125.67 116.423 124.431C115.048 122.379 111.616 122.67 111.616 122.67C111.616 122.67 110.775 126.025 112.567 127.715C113.66 128.693 114.396 130.011 114.656 131.457C114.887 132.147 115.639 133.289 116.764 133.431C117.199 133.432 117.618 133.593 117.942 133.885C118.265 134.177 118.471 134.578 118.518 135.012C118.607 135.547 118.877 136.035 119.282 136.394C119.686 136.754 120.202 136.963 120.742 136.986C122.04 137.012 122.946 138.651 124.578 137.967Z" fill="white" stroke="#697BEE" stroke-width="0.75" stroke-linecap="round" stroke-linejoin="round"/>
<path d="M124.578 137.967L111.629 122.67" stroke="#697BEE" stroke-width="0.75" stroke-linecap="round" stroke-linejoin="round"/>
<path d="M122.323 135.302L122.49 132.715" stroke="#697BEE" stroke-width="0.75" stroke-linecap="round" stroke-linejoin="round"/>
<path d="M121.866 134.786L119.289 134.87" stroke="#697BEE" stroke-width="0.75" stroke-linecap="round" stroke-linejoin="round"/>
<path d="M114.868 126.521L112.754 126.592" stroke="#697BEE" stroke-width="0.75" stroke-linecap="round" stroke-linejoin="round"/>
<path d="M118.589 130.896L115.177 131.018" stroke="#697BEE" stroke-width="0.75" stroke-linecap="round" stroke-linejoin="round"/>
<path d="M118.929 131.296L119.142 128.038" stroke="#697BEE" stroke-width="0.75" stroke-linecap="round" stroke-linejoin="round"/>
<path d="M115.421 127.147L115.549 125.154" stroke="#697BEE" stroke-width="0.75" stroke-linecap="round" stroke-linejoin="round"/>
<path d="M130.651 137.967C129.719 136.464 131.178 135.296 130.998 134.025C130.932 133.486 131.054 132.941 131.342 132.482C131.63 132.022 132.067 131.676 132.579 131.502C133.001 131.389 133.367 131.123 133.604 130.754C133.842 130.386 133.934 129.942 133.864 129.509C133.825 128.373 134.828 127.444 135.47 127.102C136.849 126.609 138.025 125.67 138.812 124.431C140.181 122.379 143.619 122.67 143.619 122.67C143.619 122.67 144.454 126.025 142.661 127.715C141.58 128.69 140.851 129.997 140.586 131.431C140.354 132.122 139.602 133.264 138.484 133.406C138.048 133.404 137.627 133.565 137.302 133.857C136.977 134.149 136.771 134.551 136.724 134.986C136.635 135.522 136.366 136.01 135.961 136.37C135.556 136.73 135.04 136.938 134.5 136.961C133.189 137.012 132.277 138.651 130.651 137.967Z" fill="white" stroke="#697BEE" stroke-width="0.75" stroke-linecap="round" stroke-linejoin="round"/>
<path d="M130.651 137.967L143.6 122.67" stroke="#697BEE" stroke-width="0.75" stroke-linecap="round" stroke-linejoin="round"/>
<path d="M132.906 135.302L132.739 132.715" stroke="#697BEE" stroke-width="0.75" stroke-linecap="round" stroke-linejoin="round"/>
<path d="M133.363 134.786L135.939 134.87" stroke="#697BEE" stroke-width="0.75" stroke-linecap="round" stroke-linejoin="round"/>
<path d="M140.354 126.521L142.475 126.592" stroke="#697BEE" stroke-width="0.75" stroke-linecap="round" stroke-linejoin="round"/>
<path d="M136.64 130.896L140.052 131.018" stroke="#697BEE" stroke-width="0.75" stroke-linecap="round" stroke-linejoin="round"/>
<path d="M136.299 131.296L136.087 128.038" stroke="#697BEE" stroke-width="0.75" stroke-linecap="round" stroke-linejoin="round"/>
<path d="M139.808 127.147L139.679 125.154" stroke="#697BEE" stroke-width="0.75" stroke-linecap="round" stroke-linejoin="round"/>
<path d="M135.245 148.929H119.983L117.522 135.489H137.707L135.245 148.929Z" fill="white" stroke="#697BEE" stroke-width="0.75" stroke-linecap="round" stroke-linejoin="round"/>
<path d="M119.225 144.774H117.31V154.955H119.225V144.774Z" fill="white" stroke="#697BEE" stroke-width="0.75" stroke-linecap="round" stroke-linejoin="round"/>
<path d="M137.919 144.774H136.004V154.955H137.919V144.774Z" fill="white" stroke="#697BEE" stroke-width="0.75" stroke-linecap="round" stroke-linejoin="round"/>
<path d="M135.997 148.929H119.225V150.703H135.997V148.929Z" fill="white" stroke="#697BEE" stroke-width="0.75" stroke-linecap="round" stroke-linejoin="round"/>
<path d="M128.569 144.774H126.654V154.955H128.569V144.774Z" fill="white" stroke="#697BEE" stroke-width="0.75" stroke-linecap="round" stroke-linejoin="round"/>
<path d="M34.6565 71.061L35.9482 72.3578" stroke="#697BEE" stroke-width="0.5" stroke-linecap="round" stroke-linejoin="round"/>
<path d="M35.9482 71.061L34.6565 72.3578" stroke="#697BEE" stroke-width="0.5" stroke-linecap="round" stroke-linejoin="round"/>
<path d="M141.826 85.5068L143.118 86.7971" stroke="#697BEE" stroke-width="0.5" stroke-linecap="round" stroke-linejoin="round"/>
<path d="M143.118 85.5068L141.826 86.7971" stroke="#697BEE" stroke-width="0.5" stroke-linecap="round" stroke-linejoin="round"/>
<path d="M66.0355 66.6286C66.5466 66.6286 66.9609 66.2126 66.9609 65.6995C66.9609 65.1864 66.5466 64.7704 66.0355 64.7704C65.5244 64.7704 65.1101 65.1864 65.1101 65.6995C65.1101 66.2126 65.5244 66.6286 66.0355 66.6286Z" stroke="#697BEE" stroke-width="0.5" stroke-linecap="round" stroke-linejoin="round"/>
<path d="M124.578 78.8613C125.089 78.8613 125.503 78.4454 125.503 77.9323C125.503 77.4191 125.089 77.0032 124.578 77.0032C124.067 77.0032 123.653 77.4191 123.653 77.9323C123.653 78.4454 124.067 78.8613 124.578 78.8613Z" stroke="#697BEE" stroke-width="0.5" stroke-linecap="round" stroke-linejoin="round"/>
<path d="M76.5745 29.2851L78.7529 29.6335L77.3649 31.3561L76.5745 29.2851Z" stroke="#697BEE" stroke-width="0.5" stroke-linecap="round" stroke-linejoin="round"/>
<path d="M149.839 57.6346L147.661 57.983L149.049 59.7057L149.839 57.6346Z" stroke="#697BEE" stroke-width="0.5" stroke-linecap="round" stroke-linejoin="round"/>
<path d="M124.424 63.9639C125.15 63.9639 125.15 64.5123 125.876 64.5123C126.602 64.5123 126.602 63.9639 127.322 63.9639C128.042 63.9639 128.048 64.5123 128.774 64.5123C129.501 64.5123 129.501 63.9639 130.227 63.9639C130.953 63.9639 130.953 64.5123 131.679 64.5123C132.405 64.5123 132.405 63.9639 133.131 63.9639" stroke="#697BEE" stroke-width="0.5" stroke-linecap="round" stroke-linejoin="round"/>
<path d="M47.9009 45.7438C48.6206 45.7438 48.6206 46.2922 49.3468 46.2922C50.0729 46.2922 50.0729 45.7438 50.7991 45.7438C51.5252 45.7438 51.5252 46.2922 52.245 46.2922C52.9647 46.2922 52.9711 45.7438 53.6973 45.7438C54.4234 45.7438 54.4235 46.2922 55.1496 46.2922C55.8758 46.2922 55.8758 45.7438 56.6019 45.7438" stroke="#697BEE" stroke-width="0.5" stroke-linecap="round" stroke-linejoin="round"/>
<path d="M104.985 39.1242L104.644 38.9049C103.828 38.3822 103.828 37.9951 103.828 37.8532C103.828 37.6821 103.896 37.518 104.016 37.397C104.137 37.276 104.3 37.208 104.47 37.208C104.574 37.2082 104.676 37.2335 104.768 37.2818C104.86 37.3301 104.938 37.4 104.997 37.4854C105.056 37.4009 105.134 37.3315 105.224 37.2833C105.315 37.235 105.415 37.2092 105.518 37.208C105.688 37.208 105.852 37.276 105.972 37.397C106.093 37.518 106.161 37.6821 106.161 37.8532C106.161 37.9951 106.161 38.3822 105.351 38.9049L104.985 39.1242Z" stroke="#697BEE" stroke-width="0.5" stroke-linecap="round" stroke-linejoin="round"/>
</g>
<defs>
<clipPath id="clip0_60_2652">
<rect width="150" height="156" fill="white"/>
</clipPath>
</defs>
</svg>
