<svg width="320" height="128" viewBox="0 0 320 128" fill="none" xmlns="http://www.w3.org/2000/svg">
<g opacity="0.06" filter="url(#filter0_f_70_112)">
<rect x="40" y="40" width="119" height="48" rx="8" fill="#092C4C"/>
</g>
<rect x="33" y="34" width="287" height="48" rx="6" fill="url(#paint0_linear_70_112)"/>
<path d="M78.8265 56.5449H71.6739V59.6351H75.7901C75.407 61.5988 73.8033 62.7271 71.6739 62.7271C69.1632 62.7271 67.1395 60.6174 67.1395 57.9991C67.1395 55.3817 69.1632 53.272 71.6739 53.272C72.7554 53.272 73.7329 53.6723 74.4999 54.3268L76.7332 51.9996C75.3726 50.7629 73.6281 50 71.6739 50C67.4187 50 64 53.563 64 58C64 62.437 67.4178 66 71.6739 66C75.5109 66 79 63.0907 79 58C79 57.5272 78.9304 57.0177 78.8265 56.5449Z" fill="white"/>
<circle cx="286.888" cy="58.8883" r="12.8423" transform="rotate(0.205376 286.888 58.8883)" fill="#D93823"/>
<path d="M280.897 58.4387C280.898 58.0545 281.211 57.7442 281.595 57.7456L289.351 57.7734L285.972 54.3702C285.696 54.092 285.701 53.6414 285.984 53.3702V53.3702C286.26 53.1057 286.698 53.1111 286.967 53.3824L291.972 58.4233C292.002 58.4538 292.002 58.5032 291.971 58.5335L286.932 63.5373C286.661 63.8059 286.224 63.8043 285.956 63.5338V63.5338C285.688 63.2642 285.688 62.8289 285.957 62.56L289.346 59.1646L281.59 59.1368C281.206 59.1354 280.895 58.8229 280.897 58.4387V58.4387Z" fill="white"/>
<path d="M161.953 63.126C160.367 63.126 159.158 62.678 158.327 61.782C157.497 60.886 157.081 59.6493 157.081 58.072C157.081 57.0267 157.268 56.126 157.641 55.37C158.015 54.614 158.551 54.0307 159.251 53.62C159.951 53.2093 160.796 53.004 161.785 53.004C162.485 53.004 163.129 53.1113 163.717 53.326C164.305 53.5313 164.805 53.8347 165.215 54.236L164.767 55.16C164.319 54.768 163.857 54.4833 163.381 54.306C162.905 54.1287 162.369 54.04 161.771 54.04C160.651 54.04 159.793 54.3947 159.195 55.104C158.598 55.804 158.299 56.7933 158.299 58.072C158.299 59.3787 158.607 60.3773 159.223 61.068C159.839 61.7587 160.759 62.104 161.981 62.104C162.775 62.104 163.535 61.9687 164.263 61.698V58.772H161.757V57.862H165.257V62.426C164.996 62.566 164.679 62.6873 164.305 62.79C163.941 62.8927 163.554 62.972 163.143 63.028C162.733 63.0933 162.336 63.126 161.953 63.126ZM170.698 63.126C170.035 63.126 169.461 62.9813 168.976 62.692C168.49 62.4027 168.112 61.9967 167.842 61.474C167.58 60.942 167.45 60.3167 167.45 59.598C167.45 58.8793 167.58 58.2587 167.842 57.736C168.112 57.204 168.49 56.7933 168.976 56.504C169.461 56.2147 170.035 56.07 170.698 56.07C171.351 56.07 171.92 56.2147 172.406 56.504C172.9 56.7933 173.278 57.204 173.54 57.736C173.81 58.2587 173.946 58.8793 173.946 59.598C173.946 60.3167 173.81 60.942 173.54 61.474C173.278 61.9967 172.9 62.4027 172.406 62.692C171.92 62.9813 171.351 63.126 170.698 63.126ZM170.698 62.216C171.332 62.216 171.841 61.992 172.224 61.544C172.606 61.0867 172.798 60.438 172.798 59.598C172.798 58.7487 172.606 58.1 172.224 57.652C171.841 57.204 171.332 56.98 170.698 56.98C170.054 56.98 169.54 57.204 169.158 57.652C168.784 58.1 168.598 58.7487 168.598 59.598C168.598 60.438 168.784 61.0867 169.158 61.544C169.54 61.992 170.054 62.216 170.698 62.216ZM178.897 63.126C178.234 63.126 177.66 62.9813 177.175 62.692C176.69 62.4027 176.312 61.9967 176.041 61.474C175.78 60.942 175.649 60.3167 175.649 59.598C175.649 58.8793 175.78 58.2587 176.041 57.736C176.312 57.204 176.69 56.7933 177.175 56.504C177.66 56.2147 178.234 56.07 178.897 56.07C179.55 56.07 180.12 56.2147 180.605 56.504C181.1 56.7933 181.478 57.204 181.739 57.736C182.01 58.2587 182.145 58.8793 182.145 59.598C182.145 60.3167 182.01 60.942 181.739 61.474C181.478 61.9967 181.1 62.4027 180.605 62.692C180.12 62.9813 179.55 63.126 178.897 63.126ZM178.897 62.216C179.532 62.216 180.04 61.992 180.423 61.544C180.806 61.0867 180.997 60.438 180.997 59.598C180.997 58.7487 180.806 58.1 180.423 57.652C180.04 57.204 179.532 56.98 178.897 56.98C178.253 56.98 177.74 57.204 177.357 57.652C176.984 58.1 176.797 58.7487 176.797 59.598C176.797 60.438 176.984 61.0867 177.357 61.544C177.74 61.992 178.253 62.216 178.897 62.216ZM187.278 65.646C186.69 65.646 186.135 65.5667 185.612 65.408C185.099 65.2587 184.641 65.03 184.24 64.722L184.618 63.896C185.038 64.1947 185.453 64.4093 185.864 64.54C186.284 64.6707 186.737 64.736 187.222 64.736C188.566 64.736 189.238 64.0453 189.238 62.664V61.46C189.042 61.8893 188.734 62.23 188.314 62.482C187.903 62.7247 187.432 62.846 186.9 62.846C186.275 62.846 185.733 62.7013 185.276 62.412C184.819 62.1227 184.464 61.726 184.212 61.222C183.969 60.7087 183.848 60.116 183.848 59.444C183.848 58.772 183.969 58.184 184.212 57.68C184.464 57.1667 184.819 56.77 185.276 56.49C185.733 56.21 186.275 56.07 186.9 56.07C187.432 56.07 187.903 56.1913 188.314 56.434C188.734 56.6767 189.042 57.008 189.238 57.428V56.196H190.344V62.51C190.344 63.5553 190.083 64.3393 189.56 64.862C189.047 65.3847 188.286 65.646 187.278 65.646ZM187.11 61.922C187.763 61.922 188.281 61.698 188.664 61.25C189.047 60.802 189.238 60.2 189.238 59.444C189.238 58.688 189.047 58.0907 188.664 57.652C188.281 57.204 187.763 56.98 187.11 56.98C186.466 56.98 185.953 57.204 185.57 57.652C185.187 58.0907 184.996 58.688 184.996 59.444C184.996 60.2 185.187 60.802 185.57 61.25C185.953 61.698 186.466 61.922 187.11 61.922ZM194.977 63.126C194.287 63.126 193.764 62.9253 193.409 62.524C193.064 62.1133 192.891 61.5207 192.891 60.746V53.13H194.025V60.662C194.025 61.6607 194.422 62.16 195.215 62.16C195.449 62.16 195.659 62.132 195.845 62.076L195.817 63.028C195.528 63.0933 195.248 63.126 194.977 63.126ZM200.451 63.126C199.378 63.126 198.529 62.8133 197.903 62.188C197.278 61.5533 196.965 60.6947 196.965 59.612C196.965 58.912 197.105 58.296 197.385 57.764C197.665 57.2227 198.048 56.8073 198.533 56.518C199.028 56.2193 199.597 56.07 200.241 56.07C201.165 56.07 201.889 56.3687 202.411 56.966C202.934 57.554 203.195 58.366 203.195 59.402V59.836H198.071C198.109 60.6107 198.333 61.2033 198.743 61.614C199.154 62.0153 199.723 62.216 200.451 62.216C200.862 62.216 201.254 62.1553 201.627 62.034C202.001 61.9033 202.355 61.6933 202.691 61.404L203.083 62.202C202.775 62.4913 202.383 62.72 201.907 62.888C201.431 63.0467 200.946 63.126 200.451 63.126ZM200.269 56.91C199.625 56.91 199.117 57.1107 198.743 57.512C198.37 57.9133 198.151 58.4407 198.085 59.094H202.215C202.187 58.4033 202.005 57.8667 201.669 57.484C201.343 57.1013 200.876 56.91 200.269 56.91Z" fill="white"/>
<defs>
<filter id="filter0_f_70_112" x="0" y="0" width="199" height="128" filterUnits="userSpaceOnUse" color-interpolation-filters="sRGB">
<feFlood flood-opacity="0" result="BackgroundImageFix"/>
<feBlend mode="normal" in="SourceGraphic" in2="BackgroundImageFix" result="shape"/>
<feGaussianBlur stdDeviation="20" result="effect1_foregroundBlur_70_112"/>
</filter>
<linearGradient id="paint0_linear_70_112" x1="33" y1="58" x2="318.782" y2="80.1905" gradientUnits="userSpaceOnUse">
<stop stop-color="#FC6A57"/>
<stop offset="0.0001" stop-color="#FF7A69"/>
<stop offset="1" stop-color="#FF5741"/>
</linearGradient>
</defs>
</svg>
