<svg width="375" height="794" viewBox="0 0 375 794" fill="none" xmlns="http://www.w3.org/2000/svg">
<g clip-path="url(#clip0_286_49)">
<rect width="375" height="812" fill="url(#paint0_linear_286_49)"/>
<circle opacity="0.1" cx="108.5" cy="68.5" r="18.5" stroke="white" stroke-width="10"/>
<circle opacity="0.1" cx="173.5" cy="111.5" r="6.5" stroke="white" stroke-width="4"/>
<circle opacity="0.1" cx="242" cy="-16" r="73.5" stroke="white" stroke-width="25"/>
<circle opacity="0.1" cx="-9" cy="634" r="73.5" stroke="white" stroke-width="25"/>
<circle opacity="0.1" cx="145.5" cy="698.5" r="18.5" stroke="white" stroke-width="10"/>
<circle opacity="0.1" cx="210.5" cy="748.5" r="6.5" stroke="white" stroke-width="4"/>
<g clip-path="url(#clip1_286_49)">
<path d="M126.069 350.559V361.597L128.995 358.722L131.995 361.706V350.559H126.069Z" fill="url(#paint1_linear_286_49)"/>
<path d="M127.532 373.473H112.839C112.596 373.522 112.346 373.517 112.105 373.457C111.865 373.398 111.641 373.285 111.449 373.128C111.257 372.971 111.102 372.773 110.996 372.548C110.89 372.324 110.835 372.079 110.835 371.83C110.835 371.582 110.89 371.336 110.996 371.112C111.102 370.887 111.257 370.689 111.449 370.532C111.641 370.375 111.865 370.263 112.105 370.203C112.346 370.143 112.596 370.138 112.839 370.187H127.532C128.727 370.224 129.916 370.02 131.031 369.587C132.145 369.154 133.162 368.5 134.019 367.666C134.877 366.832 135.56 365.833 136.025 364.729C136.491 363.625 136.731 362.439 136.731 361.241C136.731 360.042 136.491 358.856 136.025 357.752C135.56 356.648 134.877 355.65 134.019 354.815C133.162 353.981 132.145 353.328 131.031 352.894C129.916 352.461 128.727 352.257 127.532 352.294H110.349C110.107 352.34 109.858 352.332 109.62 352.27C109.382 352.209 109.16 352.095 108.971 351.938C108.782 351.781 108.629 351.583 108.525 351.36C108.42 351.137 108.366 350.893 108.366 350.647C108.366 350.4 108.42 350.157 108.525 349.934C108.629 349.71 108.782 349.513 108.971 349.356C109.16 349.199 109.382 349.085 109.62 349.024C109.858 348.962 110.107 348.954 110.349 349H127.532C130.768 349 133.872 350.289 136.16 352.584C138.449 354.879 139.734 357.991 139.734 361.236C139.734 364.482 138.449 367.594 136.16 369.889C133.872 372.184 130.768 373.473 127.532 373.473V373.473Z" fill="url(#paint2_linear_286_49)"/>
<path d="M127.565 394.66H110.39C110.15 394.702 109.904 394.691 109.668 394.628C109.432 394.564 109.214 394.45 109.027 394.293C108.84 394.135 108.69 393.939 108.587 393.717C108.484 393.495 108.43 393.254 108.43 393.009C108.43 392.765 108.484 392.523 108.587 392.301C108.69 392.079 108.84 391.883 109.027 391.726C109.214 391.568 109.432 391.454 109.668 391.39C109.904 391.327 110.15 391.316 110.39 391.358H127.565C128.76 391.395 129.95 391.19 131.064 390.757C132.179 390.324 133.195 389.671 134.053 388.837C134.911 388.002 135.593 387.004 136.059 385.9C136.525 384.796 136.765 383.61 136.765 382.411C136.765 381.213 136.525 380.026 136.059 378.923C135.593 377.819 134.911 376.82 134.053 375.986C133.195 375.151 132.179 374.498 131.064 374.065C129.95 373.632 128.76 373.428 127.565 373.464H112.864C112.622 373.514 112.371 373.509 112.13 373.449C111.89 373.389 111.666 373.277 111.474 373.12C111.282 372.962 111.127 372.764 111.021 372.54C110.915 372.315 110.86 372.07 110.86 371.822C110.86 371.573 110.915 371.328 111.021 371.104C111.127 370.879 111.282 370.681 111.474 370.524C111.666 370.367 111.89 370.254 112.13 370.195C112.371 370.135 112.622 370.13 112.864 370.179H127.565C129.195 370.136 130.817 370.421 132.335 371.017C133.854 371.613 135.238 372.508 136.405 373.649C137.573 374.79 138.501 376.153 139.135 377.66C139.769 379.166 140.095 380.785 140.095 382.42C140.095 384.055 139.769 385.673 139.135 387.179C138.501 388.686 137.573 390.05 136.405 391.191C135.238 392.331 133.854 393.226 132.335 393.822C130.817 394.418 129.195 394.703 127.565 394.66Z" fill="url(#paint3_linear_286_49)"/>
<path d="M109.814 373.339H109.747C109.505 373.385 109.257 373.377 109.018 373.315C108.78 373.253 108.559 373.14 108.369 372.983C108.18 372.825 108.027 372.628 107.923 372.405C107.818 372.182 107.764 371.938 107.764 371.692C107.764 371.445 107.818 371.202 107.923 370.979C108.027 370.755 108.18 370.558 108.369 370.401C108.559 370.244 108.78 370.13 109.018 370.069C109.257 370.007 109.505 369.999 109.747 370.045C110.931 370.081 112.111 369.879 113.217 369.45C114.322 369.02 115.33 368.373 116.18 367.545C117.031 366.718 117.708 365.727 118.17 364.633C118.632 363.538 118.87 362.362 118.87 361.174C118.87 359.985 118.632 358.809 118.17 357.714C117.708 356.62 117.031 355.629 116.18 354.802C115.33 353.974 114.322 353.327 113.217 352.897C112.111 352.468 110.931 352.266 109.747 352.302C109.504 352.352 109.253 352.346 109.013 352.287C108.772 352.227 108.548 352.114 108.356 351.957C108.165 351.8 108.01 351.602 107.904 351.378C107.798 351.153 107.743 350.908 107.743 350.659C107.743 350.411 107.798 350.166 107.904 349.941C108.01 349.717 108.165 349.519 108.356 349.362C108.548 349.204 108.772 349.092 109.013 349.032C109.253 348.973 109.504 348.967 109.747 349.017H109.872C112.976 349.18 115.899 350.532 118.039 352.793C120.178 355.054 121.371 358.052 121.371 361.169C121.371 364.286 120.178 367.284 118.039 369.546C115.899 371.807 112.976 373.158 109.872 373.322C109.872 373.322 109.839 373.339 109.814 373.339Z" fill="url(#paint4_linear_286_49)"/>
<path d="M109.646 370.037C109.405 369.991 109.156 369.999 108.918 370.06C108.68 370.122 108.458 370.235 108.269 370.393C108.08 370.55 107.927 370.747 107.822 370.97C107.718 371.193 107.664 371.437 107.664 371.683C107.664 371.93 107.718 372.174 107.822 372.397C107.927 372.62 108.08 372.817 108.269 372.974C108.458 373.132 108.68 373.245 108.918 373.307C109.156 373.368 109.405 373.376 109.646 373.33C112.057 373.372 114.355 374.362 116.045 376.086C117.735 377.811 118.681 380.132 118.681 382.55C118.666 384.909 117.719 387.166 116.047 388.826C114.376 390.487 112.116 391.415 109.763 391.408C109.521 391.359 109.27 391.364 109.03 391.424C108.789 391.484 108.565 391.596 108.373 391.753C108.181 391.91 108.027 392.108 107.92 392.333C107.814 392.557 107.759 392.803 107.759 393.051C107.759 393.3 107.814 393.545 107.92 393.769C108.027 393.994 108.181 394.192 108.373 394.349C108.565 394.506 108.789 394.619 109.03 394.678C109.27 394.738 109.521 394.743 109.763 394.694H109.889C113.097 394.67 116.166 393.379 118.431 391.101C120.697 388.823 121.975 385.741 121.991 382.524C121.969 379.238 120.665 376.09 118.358 373.756C116.051 371.422 112.924 370.087 109.646 370.037V370.037Z" fill="url(#paint5_linear_286_49)"/>
</g>
<g clip-path="url(#clip2_286_49)">
<path d="M158.925 358.202C159.865 358.182 160.797 358.363 161.661 358.734C162.524 359.104 163.299 359.655 163.933 360.35C165.226 361.802 165.941 363.681 165.941 365.628C165.941 367.575 165.226 369.454 163.933 370.906C163.292 371.588 162.515 372.127 161.652 372.488C160.789 372.849 159.86 373.023 158.925 373C158.082 373.015 157.246 372.834 156.484 372.47C155.723 372.107 155.055 371.571 154.535 370.906V372.662H150.987V353H154.628V360.194C155.151 359.562 155.808 359.055 156.551 358.71C157.295 358.365 158.106 358.192 158.925 358.202V358.202ZM154.49 365.601C154.471 366.67 154.858 367.707 155.573 368.5C155.938 368.868 156.372 369.16 156.851 369.359C157.329 369.559 157.842 369.661 158.36 369.661C158.878 369.661 159.391 369.559 159.869 369.359C160.348 369.16 160.782 368.868 161.147 368.5C161.868 367.71 162.256 366.671 162.23 365.601C162.259 364.538 161.87 363.507 161.147 362.729C160.783 362.358 160.348 362.063 159.868 361.863C159.389 361.663 158.874 361.562 158.354 361.564C157.835 361.567 157.321 361.673 156.843 361.878C156.366 362.083 155.933 362.381 155.573 362.755C154.85 363.523 154.46 364.546 154.486 365.601H154.49Z" fill="white"/>
<path d="M181.119 365.29C181.11 365.827 181.067 366.363 180.99 366.895H170.435C170.949 368.896 172.317 369.896 174.537 369.896C176.161 369.9 177.746 369.403 179.079 368.474L180.525 371.035C178.739 372.327 176.584 373.007 174.382 372.973C171.919 372.973 170.027 372.257 168.705 370.826C167.396 369.408 166.692 367.533 166.745 365.601C166.709 364.625 166.871 363.652 167.221 362.74C167.571 361.828 168.102 360.997 168.781 360.297C170.176 358.983 172.008 358.237 173.921 358.204C175.835 358.17 177.692 358.851 179.132 360.114C180.46 361.392 181.122 363.117 181.119 365.29ZM174.072 361.226C173.225 361.205 172.399 361.486 171.739 362.017C171.074 362.57 170.614 363.331 170.435 364.178H177.584C177.455 363.34 177.034 362.574 176.396 362.017C175.742 361.479 174.916 361.198 174.072 361.226V361.226Z" fill="white"/>
<path d="M186.228 372.662H182.592V358.562H186.14V360.528C186.542 359.797 187.151 359.202 187.892 358.82C188.71 358.384 189.626 358.162 190.553 358.176C191.27 358.159 191.983 358.286 192.652 358.548C193.32 358.809 193.93 359.201 194.447 359.701C195.517 360.72 196.051 362.17 196.048 364.049V372.662H192.411V365.032C192.474 364.106 192.194 363.19 191.626 362.458C191.357 362.152 191.022 361.91 190.648 361.751C190.273 361.592 189.868 361.519 189.462 361.537C189.023 361.521 188.586 361.602 188.182 361.774C187.778 361.946 187.417 362.205 187.124 362.533C186.514 363.248 186.197 364.168 186.237 365.108L186.228 372.662Z" fill="white"/>
<path d="M204.865 372.973C203.877 373.007 202.893 372.841 201.97 372.486C201.047 372.131 200.205 371.593 199.494 370.906C198.796 370.216 198.248 369.388 197.886 368.475C197.525 367.562 197.356 366.583 197.391 365.601C197.354 364.618 197.524 363.638 197.888 362.724C198.252 361.81 198.804 360.983 199.507 360.297C200.229 359.599 201.083 359.055 202.018 358.695C202.954 358.335 203.952 358.168 204.953 358.202C206.345 358.178 207.718 358.535 208.923 359.234C210.079 359.9 210.996 360.915 211.544 362.133L208.626 363.738C207.765 362.306 206.571 361.59 205.042 361.59C204.51 361.571 203.979 361.665 203.485 361.865C202.991 362.066 202.545 362.37 202.177 362.755C201.804 363.127 201.51 363.571 201.315 364.06C201.119 364.55 201.026 365.074 201.042 365.601C201.023 366.134 201.112 366.666 201.302 367.164C201.492 367.662 201.781 368.116 202.15 368.5C202.517 368.872 202.956 369.165 203.439 369.36C203.923 369.556 204.441 369.651 204.962 369.639C205.708 369.636 206.44 369.43 207.078 369.043C207.708 368.689 208.22 368.157 208.55 367.513L211.491 369.247C210.885 370.392 209.96 371.336 208.83 371.964C207.621 372.649 206.252 372.997 204.865 372.973V372.973Z" fill="white"/>
<path d="M216.321 372.662H212.684V353H216.232V360.399C216.656 359.703 217.272 359.145 218.006 358.794C218.831 358.377 219.744 358.165 220.667 358.176C221.381 358.161 222.091 358.289 222.755 358.551C223.42 358.812 224.026 359.203 224.539 359.701C225.604 360.72 226.137 362.17 226.14 364.049V372.662H222.499V365.032C222.556 364.107 222.277 363.193 221.714 362.458C221.447 362.151 221.114 361.91 220.741 361.75C220.368 361.591 219.964 361.518 219.559 361.537C219.12 361.521 218.683 361.602 218.279 361.774C217.875 361.946 217.514 362.205 217.221 362.533C216.611 363.248 216.294 364.168 216.334 365.108L216.321 372.662Z" fill="white"/>
<path d="M245.229 358.176C245.984 358.145 246.737 358.269 247.443 358.54C248.148 358.811 248.791 359.225 249.331 359.754C250.414 360.803 250.956 362.269 250.959 364.152V372.662H247.318V364.823C247.376 363.945 247.103 363.078 246.555 362.391C246.297 362.106 245.98 361.882 245.626 361.735C245.271 361.587 244.889 361.52 244.506 361.537C244.088 361.52 243.671 361.593 243.284 361.752C242.897 361.911 242.548 362.152 242.262 362.458C241.666 363.138 241.359 364.025 241.406 364.93V372.662H237.751V364.85C237.806 363.972 237.534 363.106 236.988 362.418C236.731 362.122 236.411 361.889 236.052 361.735C235.693 361.581 235.303 361.51 234.913 361.528C234.498 361.515 234.085 361.591 233.702 361.752C233.32 361.913 232.976 362.155 232.695 362.462C232.088 363.141 231.77 364.032 231.808 364.943V372.653H228.171V358.562H231.719V360.581C232.125 359.827 232.742 359.209 233.494 358.803C234.26 358.384 235.118 358.164 235.991 358.164C236.863 358.164 237.722 358.384 238.488 358.803C239.222 359.223 239.804 359.866 240.151 360.639C240.68 359.852 241.411 359.222 242.266 358.816C243.19 358.373 244.205 358.153 245.229 358.176V358.176Z" fill="white"/>
<path d="M263.759 360.243V358.562H267.218V372.662H263.759V371.035C263.196 371.668 262.503 372.172 261.727 372.511C260.952 372.85 260.112 373.017 259.266 373C258.329 373.028 257.396 372.853 256.532 372.487C255.668 372.121 254.893 371.572 254.259 370.879C252.938 369.424 252.234 367.51 252.299 365.543C252.265 364.58 252.424 363.619 252.765 362.717C253.106 361.816 253.623 360.991 254.286 360.292C254.921 359.61 255.694 359.071 256.552 358.71C257.411 358.349 258.336 358.174 259.266 358.198C260.118 358.191 260.962 358.37 261.738 358.724C262.514 359.077 263.203 359.595 263.759 360.243V360.243ZM263.808 365.579C263.822 364.509 263.414 363.476 262.672 362.707C262.316 362.318 261.88 362.011 261.395 361.805C260.91 361.6 260.387 361.501 259.861 361.515C259.33 361.499 258.802 361.597 258.313 361.803C257.823 362.008 257.383 362.316 257.022 362.707C256.317 363.505 255.931 364.536 255.936 365.602C255.941 366.668 256.337 367.695 257.049 368.487C257.415 368.863 257.852 369.162 258.335 369.365C258.818 369.569 259.337 369.675 259.861 369.675C260.385 369.675 260.903 369.569 261.386 369.365C261.869 369.162 262.306 368.863 262.672 368.487C263.413 367.711 263.821 366.675 263.808 365.601V365.579Z" fill="white"/>
<path d="M273.099 372.662H269.463V358.562H272.944V360.457C273.304 359.745 273.86 359.152 274.547 358.748C275.233 358.345 276.021 358.148 276.816 358.18C277.398 358.182 277.974 358.287 278.519 358.491L278.213 361.982C277.669 361.806 277.103 361.71 276.532 361.697C276.059 361.675 275.587 361.76 275.152 361.946C274.716 362.133 274.329 362.415 274.018 362.773C273.405 363.491 273.099 364.555 273.099 365.966V372.662Z" fill="white"/>
<path d="M293 372.662H288.534L283.877 366.637L282.919 367.491V372.662H279.282V353H282.919V363.373L288.046 358.562H292.636L286.365 364.343L293 372.662Z" fill="white"/>
</g>
<path d="M157.135 385.99C156.67 386.275 156.205 386.41 155.755 386.41C154.96 386.41 154.57 385.915 154.57 384.94V381.505H157.3V379.855H154.57V376.975H152.635V379.855H151.255V381.505H152.605V385.015C152.605 387.1 153.55 388.195 155.395 388.195C156.31 388.195 157.105 387.97 157.75 387.52L157.135 385.99ZM166.5 383.755C166.5 382.495 166.125 381.505 165.36 380.77C164.61 380.035 163.65 379.66 162.465 379.66C161.22 379.66 160.2 380.065 159.405 380.875C158.625 381.67 158.235 382.69 158.235 383.92C158.235 386.08 159.585 388.18 162.645 388.18C163.995 388.18 165.18 387.805 166.185 387.055L165.405 385.66C164.61 386.215 163.71 386.5 162.72 386.5C161.325 386.5 160.485 385.75 160.23 384.625H166.44C166.485 384.265 166.5 383.98 166.5 383.755ZM162.465 381.295C163.59 381.295 164.415 382 164.58 383.14H160.23C160.485 382 161.325 381.295 162.465 381.295ZM174.27 380.89C173.535 380.065 172.65 379.66 171.615 379.66C170.46 379.66 169.485 380.065 168.72 380.86C167.955 381.655 167.58 382.675 167.58 383.89C167.58 385.105 167.955 386.14 168.72 386.965C169.485 387.79 170.445 388.195 171.615 388.195C172.68 388.195 173.565 387.79 174.27 386.995V388H176.13V379.855H174.27V380.89ZM174.315 383.92C174.315 384.625 174.09 385.21 173.64 385.69C173.19 386.17 172.62 386.41 171.915 386.41C171.21 386.41 170.64 386.17 170.19 385.69C169.755 385.21 169.53 384.625 169.53 383.92C169.53 383.23 169.755 382.645 170.19 382.165C170.64 381.685 171.21 381.445 171.915 381.445C172.62 381.445 173.19 381.685 173.64 382.165C174.09 382.645 174.315 383.23 174.315 383.92ZM181.993 388.18C183.658 388.18 185.098 387.34 185.803 386.035L184.213 385.105C183.808 385.87 182.923 386.38 182.023 386.38C181.333 386.38 180.763 386.14 180.313 385.675C179.863 385.21 179.638 384.625 179.638 383.92C179.638 383.215 179.863 382.63 180.328 382.165C180.793 381.7 181.378 381.46 182.083 381.46C182.983 381.46 183.763 381.955 184.243 382.75L185.833 381.895C185.173 380.47 183.718 379.66 182.053 379.66C180.763 379.66 179.713 380.065 178.903 380.86C178.093 381.655 177.688 382.675 177.688 383.92C177.688 385.165 178.093 386.185 178.888 386.98C179.698 387.775 180.733 388.18 181.993 388.18ZM189.096 388V383.59C189.096 382.315 189.906 381.43 191.061 381.43C192.141 381.43 192.846 382.195 192.846 383.56V388H194.796V383.035C194.796 381.94 194.481 381.115 193.866 380.53C193.251 379.945 192.516 379.645 191.631 379.645C190.476 379.645 189.516 380.17 189.051 380.905V376.6H187.146V388H189.096ZM204.512 383.755C204.512 382.495 204.137 381.505 203.372 380.77C202.622 380.035 201.662 379.66 200.477 379.66C199.232 379.66 198.212 380.065 197.417 380.875C196.637 381.67 196.247 382.69 196.247 383.92C196.247 386.08 197.597 388.18 200.657 388.18C202.007 388.18 203.192 387.805 204.197 387.055L203.417 385.66C202.622 386.215 201.722 386.5 200.732 386.5C199.337 386.5 198.497 385.75 198.242 384.625H204.452C204.497 384.265 204.512 383.98 204.512 383.755ZM200.477 381.295C201.602 381.295 202.427 382 202.592 383.14H198.242C198.497 382 199.337 381.295 200.477 381.295ZM207.978 388V384.025C207.978 382.33 208.818 381.52 210.033 381.52C210.333 381.52 210.648 381.58 210.978 381.685L211.143 379.81C210.843 379.705 210.513 379.645 210.168 379.645C209.163 379.645 208.398 380.095 207.903 380.98V379.855H206.028V388H207.978Z" fill="url(#paint6_linear_286_49)"/>
</g>
<defs>
<linearGradient id="paint0_linear_286_49" x1="187.5" y1="0" x2="187.5" y2="812" gradientUnits="userSpaceOnUse">
<stop stop-color="#4B53D9"/>
<stop offset="1" stop-color="#4E75EE"/>
</linearGradient>
<linearGradient id="paint1_linear_286_49" x1="126.069" y1="356.107" x2="131.995" y2="356.107" gradientUnits="userSpaceOnUse">
<stop stop-color="#F7993B"/>
<stop offset="1" stop-color="#FDCE3D"/>
</linearGradient>
<linearGradient id="paint2_linear_286_49" x1="806.002" y1="1285.74" x2="1002.76" y2="1082.96" gradientUnits="userSpaceOnUse">
<stop stop-color="#F7993B"/>
<stop offset="1" stop-color="#FDCE3D"/>
</linearGradient>
<linearGradient id="paint3_linear_286_49" x1="157.828" y1="780.698" x2="1337.04" y2="780.698" gradientUnits="userSpaceOnUse">
<stop stop-color="#F7993B"/>
<stop offset="1" stop-color="#FDCE3D"/>
</linearGradient>
<linearGradient id="paint4_linear_286_49" x1="176.565" y1="1190.26" x2="380.712" y2="1554.34" gradientUnits="userSpaceOnUse">
<stop stop-color="#F7993B"/>
<stop offset="1" stop-color="#FDCE3D"/>
</linearGradient>
<linearGradient id="paint5_linear_286_49" x1="87.4622" y1="486.933" x2="401.942" y2="775.02" gradientUnits="userSpaceOnUse">
<stop stop-color="#F7993B"/>
<stop offset="1" stop-color="#FDCE3D"/>
</linearGradient>
<linearGradient id="paint6_linear_286_49" x1="181.5" y1="372" x2="181.5" y2="396" gradientUnits="userSpaceOnUse">
<stop stop-color="#F7993B"/>
<stop offset="1" stop-color="#FBBE3C"/>
</linearGradient>
<clipPath id="clip0_286_49">
<rect width="375" height="812" fill="white"/>
</clipPath>
<clipPath id="clip1_286_49">
<rect width="31.8596" height="45.6854" fill="white" transform="translate(108 349)"/>
</clipPath>
<clipPath id="clip2_286_49">
<rect width="142" height="20" fill="white" transform="translate(151 353)"/>
</clipPath>
</defs>
</svg>
