<svg width="375" height="794" viewBox="0 0 375 794" fill="none" xmlns="http://www.w3.org/2000/svg">
<rect width="375" height="1046.4" rx="8" fill="white" stroke="#CAD3FF"/>
<g clip-path="url(#clip0_730_75)">
<rect width="375" height="883.827" fill="#EFF1F3"/>
<rect width="375" height="217" fill="url(#paint0_linear_730_75)"/>
<path d="M119.719 518H117.287V503.908H119.475L126.389 513.488H126.555V503.908H128.977V518H126.799L119.885 508.41H119.719V518ZM134.855 515.266C135.318 515.878 135.972 516.184 136.818 516.184C137.665 516.184 138.316 515.878 138.771 515.266C139.234 514.647 139.465 513.778 139.465 512.658C139.465 511.545 139.234 510.679 138.771 510.061C138.309 509.442 137.658 509.133 136.818 509.133C135.972 509.133 135.318 509.442 134.855 510.061C134.393 510.679 134.162 511.545 134.162 512.658C134.162 513.778 134.393 514.647 134.855 515.266ZM136.818 518.215C135.217 518.215 133.96 517.723 133.049 516.74C132.137 515.751 131.682 514.39 131.682 512.658C131.682 510.939 132.141 509.585 133.059 508.596C133.977 507.6 135.23 507.102 136.818 507.102C138.413 507.102 139.667 507.596 140.578 508.586C141.496 509.576 141.955 510.933 141.955 512.658C141.955 514.39 141.496 515.751 140.578 516.74C139.667 517.723 138.413 518.215 136.818 518.215ZM149.982 503.908H155.266C157.362 503.908 158.99 504.52 160.148 505.744C161.314 506.962 161.896 508.677 161.896 510.891C161.896 513.15 161.317 514.901 160.158 516.145C159.006 517.382 157.375 518 155.266 518H149.982V503.908ZM152.502 506.086V515.822H154.934C156.34 515.822 157.424 515.399 158.186 514.553C158.947 513.706 159.328 512.499 159.328 510.93C159.328 509.393 158.941 508.202 158.166 507.355C157.398 506.509 156.32 506.086 154.934 506.086H152.502ZM168.107 516.271C168.837 516.271 169.445 516.063 169.934 515.646C170.422 515.223 170.666 514.702 170.666 514.084V513.234L168.254 513.391C166.926 513.475 166.262 513.957 166.262 514.836C166.262 515.279 166.431 515.63 166.77 515.891C167.115 516.145 167.561 516.271 168.107 516.271ZM167.395 518.176C166.353 518.176 165.503 517.883 164.846 517.297C164.188 516.711 163.859 515.936 163.859 514.973C163.859 514.009 164.208 513.254 164.904 512.707C165.607 512.16 166.61 511.848 167.912 511.77L170.666 511.604V510.705C170.666 510.178 170.493 509.774 170.148 509.494C169.803 509.214 169.305 509.074 168.654 509.074C168.094 509.074 167.632 509.172 167.268 509.367C166.903 509.556 166.665 509.829 166.555 510.188H164.27C164.367 509.243 164.823 508.495 165.637 507.941C166.457 507.382 167.502 507.102 168.771 507.102C170.139 507.102 171.193 507.417 171.936 508.049C172.684 508.68 173.059 509.566 173.059 510.705V518H170.725V516.535H170.559C170.259 517.049 169.829 517.453 169.27 517.746C168.716 518.033 168.091 518.176 167.395 518.176ZM176.75 504.699H179.162V507.385H181.447V509.318H179.162V514.562C179.162 515.09 179.279 515.477 179.514 515.725C179.748 515.965 180.119 516.086 180.627 516.086C180.848 516.086 181.122 516.07 181.447 516.037V517.932C181.044 518.01 180.62 518.049 180.178 518.049C178.954 518.049 178.075 517.824 177.541 517.375C177.014 516.926 176.75 516.184 176.75 515.148V509.318H175.061V507.385H176.75V504.699ZM187.521 516.271C188.251 516.271 188.859 516.063 189.348 515.646C189.836 515.223 190.08 514.702 190.08 514.084V513.234L187.668 513.391C186.34 513.475 185.676 513.957 185.676 514.836C185.676 515.279 185.845 515.63 186.184 515.891C186.529 516.145 186.975 516.271 187.521 516.271ZM186.809 518.176C185.767 518.176 184.917 517.883 184.26 517.297C183.602 516.711 183.273 515.936 183.273 514.973C183.273 514.009 183.622 513.254 184.318 512.707C185.021 512.16 186.024 511.848 187.326 511.77L190.08 511.604V510.705C190.08 510.178 189.908 509.774 189.562 509.494C189.217 509.214 188.719 509.074 188.068 509.074C187.508 509.074 187.046 509.172 186.682 509.367C186.317 509.556 186.079 509.829 185.969 510.188H183.684C183.781 509.243 184.237 508.495 185.051 507.941C185.871 507.382 186.916 507.102 188.186 507.102C189.553 507.102 190.607 507.417 191.35 508.049C192.098 508.68 192.473 509.566 192.473 510.705V518H190.139V516.535H189.973C189.673 517.049 189.243 517.453 188.684 517.746C188.13 518.033 187.505 518.176 186.809 518.176ZM203.498 518H200.979V503.908H209.963V506.086H203.498V510.188H209.406V512.287H203.498V518ZM215.148 515.266C215.611 515.878 216.265 516.184 217.111 516.184C217.958 516.184 218.609 515.878 219.064 515.266C219.527 514.647 219.758 513.778 219.758 512.658C219.758 511.545 219.527 510.679 219.064 510.061C218.602 509.442 217.951 509.133 217.111 509.133C216.265 509.133 215.611 509.442 215.148 510.061C214.686 510.679 214.455 511.545 214.455 512.658C214.455 513.778 214.686 514.647 215.148 515.266ZM217.111 518.215C215.51 518.215 214.253 517.723 213.342 516.74C212.43 515.751 211.975 514.39 211.975 512.658C211.975 510.939 212.434 509.585 213.352 508.596C214.27 507.6 215.523 507.102 217.111 507.102C218.706 507.102 219.96 507.596 220.871 508.586C221.789 509.576 222.248 510.933 222.248 512.658C222.248 514.39 221.789 515.751 220.871 516.74C219.96 517.723 218.706 518.215 217.111 518.215ZM233.986 507.316V518H231.652V516.301H231.486C230.946 517.577 229.882 518.215 228.293 518.215C227.128 518.215 226.219 517.87 225.568 517.18C224.917 516.483 224.592 515.51 224.592 514.26V507.316H227.014V513.654C227.014 514.475 227.186 515.087 227.531 515.49C227.876 515.887 228.41 516.086 229.133 516.086C229.914 516.086 230.513 515.861 230.93 515.412C231.353 514.963 231.564 514.338 231.564 513.537V507.316H233.986ZM236.955 518V507.316H239.289V509.025H239.455C239.715 508.413 240.113 507.941 240.646 507.609C241.187 507.271 241.848 507.102 242.629 507.102C243.814 507.102 244.722 507.447 245.354 508.137C245.992 508.827 246.311 509.81 246.311 511.086V518H243.889V511.662C243.889 510.028 243.169 509.211 241.73 509.211C241.008 509.211 240.435 509.442 240.012 509.904C239.589 510.367 239.377 510.992 239.377 511.779V518H236.955ZM253.049 518.176C251.695 518.176 250.624 517.681 249.836 516.691C249.048 515.695 248.654 514.348 248.654 512.648C248.654 510.962 249.048 509.624 249.836 508.635C250.63 507.639 251.701 507.141 253.049 507.141C253.778 507.141 254.429 507.307 255.002 507.639C255.575 507.971 256.005 508.43 256.291 509.016H256.457V503.186H258.879V518H256.535V516.311H256.369C256.063 516.896 255.617 517.355 255.031 517.688C254.452 518.013 253.791 518.176 253.049 518.176ZM255.764 510.129C255.282 509.51 254.628 509.201 253.801 509.201C252.974 509.201 252.323 509.51 251.848 510.129C251.372 510.741 251.135 511.584 251.135 512.658C251.135 513.739 251.369 514.585 251.838 515.197C252.313 515.809 252.967 516.115 253.801 516.115C254.634 516.115 255.288 515.809 255.764 515.197C256.245 514.579 256.486 513.732 256.486 512.658C256.486 511.59 256.245 510.747 255.764 510.129Z" fill="#5A618E"/>
<path opacity="0.7" d="M107.715 553.158H109.341C109.409 553.661 109.67 554.062 110.125 554.359C110.583 554.652 111.167 554.799 111.875 554.799C112.534 554.799 113.079 554.647 113.508 554.345C113.943 554.037 114.16 553.649 114.16 553.18C114.16 552.78 113.999 552.453 113.677 552.199C113.359 551.94 112.849 551.728 112.146 551.562L110.784 551.232C109.827 551.007 109.124 550.658 108.674 550.185C108.225 549.711 108 549.086 108 548.31C108 547.367 108.352 546.61 109.055 546.039C109.763 545.463 110.693 545.175 111.846 545.175C112.92 545.175 113.811 545.458 114.519 546.024C115.227 546.591 115.605 547.318 115.654 548.207H114.058C113.979 547.719 113.74 547.333 113.34 547.05C112.944 546.767 112.439 546.625 111.824 546.625C111.174 546.625 110.652 546.769 110.256 547.057C109.861 547.345 109.663 547.726 109.663 548.2C109.663 548.576 109.812 548.881 110.11 549.115C110.413 549.35 110.908 549.547 111.597 549.708L112.761 549.994C113.845 550.248 114.626 550.609 115.105 551.078C115.583 551.542 115.823 552.172 115.823 552.968C115.823 553.979 115.457 554.779 114.724 555.37C113.992 555.961 113 556.256 111.75 556.256C110.579 556.256 109.626 555.976 108.894 555.414C108.167 554.853 107.773 554.101 107.715 553.158ZM121.169 554.755C121.848 554.755 122.373 554.516 122.744 554.037C123.12 553.554 123.308 552.877 123.308 552.008C123.308 551.144 123.12 550.473 122.744 549.994C122.373 549.511 121.848 549.269 121.169 549.269C120.486 549.269 119.958 549.508 119.587 549.987C119.216 550.465 119.031 551.139 119.031 552.008C119.031 552.882 119.216 553.559 119.587 554.037C119.958 554.516 120.486 554.755 121.169 554.755ZM121.169 556.154C119.998 556.154 119.077 555.785 118.408 555.048C117.739 554.311 117.405 553.297 117.405 552.008C117.405 550.724 117.739 549.713 118.408 548.976C119.082 548.239 120.002 547.87 121.169 547.87C122.332 547.87 123.247 548.239 123.916 548.976C124.59 549.713 124.927 550.724 124.927 552.008C124.927 553.297 124.592 554.311 123.923 555.048C123.254 555.785 122.336 556.154 121.169 556.154ZM126.824 556V548.024H128.34V549.306H128.457C128.633 548.852 128.914 548.5 129.299 548.251C129.69 547.997 130.149 547.87 130.676 547.87C131.208 547.87 131.663 547.997 132.039 548.251C132.415 548.505 132.693 548.856 132.874 549.306H132.998C133.203 548.866 133.521 548.517 133.95 548.258C134.385 548 134.875 547.87 135.422 547.87C136.228 547.87 136.853 548.102 137.297 548.566C137.747 549.03 137.971 549.677 137.971 550.507V556H136.396V550.917C136.396 549.848 135.881 549.313 134.851 549.313C134.348 549.313 133.94 549.472 133.628 549.789C133.32 550.106 133.167 550.504 133.167 550.983V556H131.621V550.763C131.621 550.314 131.482 549.96 131.204 549.701C130.925 549.442 130.552 549.313 130.083 549.313C129.604 549.313 129.204 549.486 128.882 549.833C128.56 550.18 128.398 550.609 128.398 551.122V556H126.824ZM144.856 549.774C144.504 549.398 144.038 549.21 143.457 549.21C142.876 549.21 142.397 549.398 142.021 549.774C141.646 550.15 141.436 550.651 141.392 551.276H145.42C145.4 550.646 145.212 550.146 144.856 549.774ZM145.413 553.847H146.929C146.748 554.564 146.353 555.128 145.742 555.539C145.137 555.949 144.38 556.154 143.472 556.154C142.329 556.154 141.428 555.788 140.769 555.055C140.115 554.318 139.788 553.312 139.788 552.038C139.788 550.763 140.12 549.75 140.784 548.998C141.448 548.246 142.341 547.87 143.464 547.87C144.573 547.87 145.442 548.227 146.072 548.939C146.707 549.652 147.024 550.636 147.024 551.891V552.44H141.392V552.528C141.416 553.231 141.619 553.788 142 554.198C142.38 554.608 142.886 554.813 143.516 554.813C144.478 554.813 145.11 554.491 145.413 553.847ZM149.47 546.039H151.045V548.061H152.773V549.386H151.045V553.488C151.045 553.903 151.135 554.208 151.316 554.403C151.497 554.594 151.782 554.689 152.173 554.689C152.329 554.689 152.529 554.677 152.773 554.652V555.963C152.461 556.017 152.175 556.044 151.917 556.044C151.042 556.044 150.415 555.878 150.034 555.546C149.658 555.214 149.47 554.662 149.47 553.891V549.386H148.203V548.061H149.47V546.039ZM154.7 556V544.911H156.26V549.306H156.384C156.58 548.852 156.885 548.5 157.3 548.251C157.72 548.002 158.225 547.877 158.816 547.877C159.67 547.877 160.342 548.139 160.83 548.661C161.318 549.179 161.562 549.909 161.562 550.851V556H159.988V551.239C159.988 550.604 159.844 550.126 159.556 549.804C159.268 549.481 158.843 549.32 158.281 549.32C157.646 549.32 157.153 549.503 156.802 549.87C156.45 550.236 156.274 550.727 156.274 551.342V556H154.7ZM163.811 556V548.024H165.378V556H163.811ZM165.32 546.354C165.129 546.535 164.888 546.625 164.595 546.625C164.302 546.625 164.058 546.535 163.862 546.354C163.672 546.168 163.577 545.939 163.577 545.666C163.577 545.392 163.672 545.163 163.862 544.977C164.058 544.792 164.302 544.699 164.595 544.699C164.888 544.699 165.129 544.792 165.32 544.977C165.515 545.163 165.613 545.392 165.613 545.666C165.613 545.939 165.515 546.168 165.32 546.354ZM167.693 556V548.024H169.209V549.291H169.326C169.741 548.344 170.535 547.87 171.707 547.87C172.595 547.87 173.276 548.126 173.75 548.639C174.229 549.152 174.468 549.884 174.468 550.836V556H172.893V551.232C172.893 549.953 172.319 549.313 171.172 549.313C170.591 549.313 170.127 549.496 169.78 549.862C169.438 550.224 169.268 550.714 169.268 551.334V556H167.693ZM182.188 551.913C182.188 551.117 181.995 550.485 181.609 550.016C181.223 549.542 180.696 549.306 180.027 549.306C179.358 549.306 178.838 549.54 178.467 550.009C178.096 550.473 177.91 551.107 177.91 551.913C177.91 552.719 178.096 553.356 178.467 553.825C178.838 554.289 179.358 554.521 180.027 554.521C180.696 554.521 181.223 554.286 181.609 553.817C181.995 553.349 182.188 552.714 182.188 551.913ZM180.049 559.047C179.062 559.047 178.262 558.842 177.646 558.432C177.031 558.026 176.682 557.482 176.599 556.798H178.21C178.279 557.091 178.474 557.323 178.796 557.494C179.124 557.665 179.548 557.75 180.071 557.75C180.725 557.75 181.235 557.602 181.602 557.304C181.973 557.011 182.158 556.601 182.158 556.073V554.542H182.041C181.802 554.972 181.47 555.304 181.045 555.539C180.62 555.768 180.132 555.883 179.58 555.883C178.569 555.883 177.766 555.524 177.17 554.806C176.58 554.083 176.284 553.122 176.284 551.92C176.284 550.7 176.582 549.723 177.178 548.991C177.773 548.258 178.579 547.892 179.595 547.892C180.142 547.892 180.64 548.019 181.089 548.273C181.538 548.522 181.875 548.864 182.1 549.298H182.224V548.024H183.733V556.066C183.733 556.979 183.401 557.704 182.737 558.241C182.073 558.778 181.177 559.047 180.049 559.047ZM200.505 548.024L198.315 556H196.682L195.034 550.126H194.91L193.269 556H191.65L189.453 548.024H191.05L192.478 554.11H192.595L194.236 548.024H195.745L197.385 554.11H197.51L198.931 548.024H200.505ZM206.497 549.774C206.145 549.398 205.679 549.21 205.098 549.21C204.517 549.21 204.038 549.398 203.662 549.774C203.286 550.15 203.076 550.651 203.032 551.276H207.061C207.041 550.646 206.853 550.146 206.497 549.774ZM207.053 553.847H208.569C208.389 554.564 207.993 555.128 207.383 555.539C206.777 555.949 206.021 556.154 205.112 556.154C203.97 556.154 203.069 555.788 202.41 555.055C201.755 554.318 201.428 553.312 201.428 552.038C201.428 550.763 201.76 549.75 202.424 548.998C203.088 548.246 203.982 547.87 205.105 547.87C206.213 547.87 207.083 548.227 207.712 548.939C208.347 549.652 208.665 550.636 208.665 551.891V552.44H203.032V552.528C203.057 553.231 203.259 553.788 203.64 554.198C204.021 554.608 204.526 554.813 205.156 554.813C206.118 554.813 206.75 554.491 207.053 553.847ZM210.554 556V548.024H212.07V549.291H212.188C212.603 548.344 213.396 547.87 214.568 547.87C215.457 547.87 216.138 548.126 216.611 548.639C217.09 549.152 217.329 549.884 217.329 550.836V556H215.754V551.232C215.754 549.953 215.181 549.313 214.033 549.313C213.452 549.313 212.988 549.496 212.642 549.862C212.3 550.224 212.129 550.714 212.129 551.334V556H210.554ZM220.105 546.039H221.68V548.061H223.408V549.386H221.68V553.488C221.68 553.903 221.77 554.208 221.951 554.403C222.131 554.594 222.417 554.689 222.808 554.689C222.964 554.689 223.164 554.677 223.408 554.652V555.963C223.096 556.017 222.81 556.044 222.551 556.044C221.677 556.044 221.05 555.878 220.669 555.546C220.293 555.214 220.105 554.662 220.105 553.891V549.386H218.838V548.061H220.105V546.039ZM239.749 548.024L237.559 556H235.925L234.277 550.126H234.153L232.512 556H230.894L228.696 548.024H230.293L231.721 554.11H231.838L233.479 548.024H234.988L236.628 554.11H236.753L238.174 548.024H239.749ZM241.375 556V548.024H242.891V549.247H243.008C243.12 548.852 243.376 548.527 243.777 548.273C244.182 548.019 244.644 547.892 245.161 547.892C245.459 547.892 245.693 547.914 245.864 547.958V549.511C245.674 549.447 245.381 549.416 244.985 549.416C244.385 549.416 243.894 549.589 243.513 549.936C243.137 550.282 242.949 550.734 242.949 551.291V556H241.375ZM250.544 554.755C251.223 554.755 251.748 554.516 252.119 554.037C252.495 553.554 252.683 552.877 252.683 552.008C252.683 551.144 252.495 550.473 252.119 549.994C251.748 549.511 251.223 549.269 250.544 549.269C249.861 549.269 249.333 549.508 248.962 549.987C248.591 550.465 248.406 551.139 248.406 552.008C248.406 552.882 248.591 553.559 248.962 554.037C249.333 554.516 249.861 554.755 250.544 554.755ZM250.544 556.154C249.373 556.154 248.452 555.785 247.783 555.048C247.114 554.311 246.78 553.297 246.78 552.008C246.78 550.724 247.114 549.713 247.783 548.976C248.457 548.239 249.377 547.87 250.544 547.87C251.707 547.87 252.622 548.239 253.291 548.976C253.965 549.713 254.302 550.724 254.302 552.008C254.302 553.297 253.967 554.311 253.298 555.048C252.629 555.785 251.711 556.154 250.544 556.154ZM256.199 556V548.024H257.715V549.291H257.832C258.247 548.344 259.041 547.87 260.212 547.87C261.101 547.87 261.782 548.126 262.256 548.639C262.734 549.152 262.974 549.884 262.974 550.836V556H261.399V551.232C261.399 549.953 260.825 549.313 259.678 549.313C259.097 549.313 258.633 549.496 258.286 549.862C257.944 550.224 257.773 550.714 257.773 551.334V556H256.199ZM270.693 551.913C270.693 551.117 270.5 550.485 270.115 550.016C269.729 549.542 269.202 549.306 268.533 549.306C267.864 549.306 267.344 549.54 266.973 550.009C266.602 550.473 266.416 551.107 266.416 551.913C266.416 552.719 266.602 553.356 266.973 553.825C267.344 554.289 267.864 554.521 268.533 554.521C269.202 554.521 269.729 554.286 270.115 553.817C270.5 553.349 270.693 552.714 270.693 551.913ZM268.555 559.047C267.568 559.047 266.768 558.842 266.152 558.432C265.537 558.026 265.188 557.482 265.105 556.798H266.716C266.785 557.091 266.98 557.323 267.302 557.494C267.629 557.665 268.054 557.75 268.577 557.75C269.231 557.75 269.741 557.602 270.107 557.304C270.479 557.011 270.664 556.601 270.664 556.073V554.542H270.547C270.308 554.972 269.976 555.304 269.551 555.539C269.126 555.768 268.638 555.883 268.086 555.883C267.075 555.883 266.272 555.524 265.676 554.806C265.085 554.083 264.79 553.122 264.79 551.92C264.79 550.7 265.088 549.723 265.684 548.991C266.279 548.258 267.085 547.892 268.101 547.892C268.647 547.892 269.146 548.019 269.595 548.273C270.044 548.522 270.381 548.864 270.605 549.298H270.73V548.024H272.239V556.066C272.239 556.979 271.907 557.704 271.243 558.241C270.579 558.778 269.683 559.047 268.555 559.047ZM275.732 558.754H274.414L275.066 554.374H276.772L275.732 558.754ZM117.654 570.431H121.792C122.827 570.431 123.667 570.758 124.312 571.413C124.956 572.062 125.278 572.909 125.278 573.954C125.278 574.984 124.949 575.824 124.29 576.474C123.63 577.118 122.781 577.44 121.741 577.44H119.294V581H117.654V570.431ZM119.294 571.881V575.998H121.36C122.068 575.998 122.617 575.822 123.008 575.47C123.403 575.114 123.601 574.608 123.601 573.954C123.601 573.285 123.408 572.772 123.022 572.416C122.637 572.06 122.083 571.881 121.36 571.881H119.294ZM127.285 581V569.911H128.86V581H127.285ZM135.898 574.774C135.547 574.398 135.081 574.21 134.5 574.21C133.918 574.21 133.44 574.398 133.064 574.774C132.688 575.15 132.478 575.651 132.434 576.276H136.462C136.443 575.646 136.255 575.146 135.898 574.774ZM136.455 578.847H137.971C137.791 579.564 137.395 580.128 136.785 580.539C136.179 580.949 135.422 581.154 134.514 581.154C133.372 581.154 132.471 580.788 131.812 580.055C131.157 579.318 130.83 578.312 130.83 577.038C130.83 575.763 131.162 574.75 131.826 573.998C132.49 573.246 133.384 572.87 134.507 572.87C135.615 572.87 136.484 573.227 137.114 573.939C137.749 574.652 138.066 575.636 138.066 576.891V577.44H132.434V577.528C132.458 578.231 132.661 578.788 133.042 579.198C133.423 579.608 133.928 579.813 134.558 579.813C135.52 579.813 136.152 579.491 136.455 578.847ZM142.563 579.806C143.154 579.806 143.645 579.64 144.036 579.308C144.431 578.976 144.629 578.561 144.629 578.063V577.396L142.681 577.521C142.134 577.555 141.731 577.667 141.472 577.858C141.213 578.048 141.084 578.319 141.084 578.671C141.084 579.022 141.221 579.301 141.494 579.506C141.768 579.706 142.124 579.806 142.563 579.806ZM142.161 581.132C141.379 581.132 140.74 580.915 140.242 580.48C139.749 580.041 139.502 579.462 139.502 578.744C139.502 578.031 139.758 577.472 140.271 577.067C140.784 576.657 141.516 576.422 142.468 576.364L144.629 576.239V575.551C144.629 575.126 144.49 574.801 144.211 574.577C143.933 574.347 143.528 574.232 142.996 574.232C142.556 574.232 142.19 574.311 141.897 574.467C141.609 574.618 141.421 574.835 141.333 575.119H139.81C139.888 574.435 140.222 573.891 140.813 573.485C141.409 573.075 142.161 572.87 143.069 572.87C144.065 572.87 144.834 573.107 145.376 573.581C145.923 574.049 146.196 574.706 146.196 575.551V581H144.68V579.879H144.556C144.316 580.28 143.987 580.59 143.567 580.81C143.152 581.024 142.683 581.132 142.161 581.132ZM148.254 575.28C148.254 574.577 148.545 574 149.126 573.551C149.707 573.097 150.449 572.87 151.353 572.87C152.251 572.87 152.976 573.068 153.528 573.463C154.08 573.859 154.395 574.408 154.473 575.111H152.964C152.891 574.813 152.712 574.579 152.429 574.408C152.151 574.237 151.792 574.152 151.353 574.152C150.908 574.152 150.54 574.25 150.247 574.445C149.954 574.635 149.807 574.884 149.807 575.192C149.807 575.431 149.91 575.629 150.115 575.785C150.32 575.941 150.64 576.068 151.074 576.166L152.4 576.474C153.167 576.649 153.728 576.911 154.084 577.257C154.446 577.604 154.626 578.068 154.626 578.649C154.626 579.391 154.316 579.994 153.696 580.458C153.076 580.922 152.285 581.154 151.323 581.154C150.376 581.154 149.609 580.954 149.023 580.553C148.442 580.148 148.118 579.591 148.049 578.883H149.624C149.727 579.196 149.924 579.44 150.217 579.616C150.51 579.792 150.891 579.879 151.36 579.879C151.853 579.879 152.256 579.779 152.568 579.579C152.881 579.379 153.037 579.12 153.037 578.803C153.037 578.339 152.646 578.014 151.865 577.829L150.474 577.506C149.712 577.326 149.15 577.057 148.789 576.701C148.433 576.344 148.254 575.871 148.254 575.28ZM161.196 574.774C160.845 574.398 160.378 574.21 159.797 574.21C159.216 574.21 158.738 574.398 158.362 574.774C157.986 575.15 157.776 575.651 157.732 576.276H161.76C161.741 575.646 161.553 575.146 161.196 574.774ZM161.753 578.847H163.269C163.088 579.564 162.693 580.128 162.083 580.539C161.477 580.949 160.72 581.154 159.812 581.154C158.669 581.154 157.769 580.788 157.109 580.055C156.455 579.318 156.128 578.312 156.128 577.038C156.128 575.763 156.46 574.75 157.124 573.998C157.788 573.246 158.682 572.87 159.805 572.87C160.913 572.87 161.782 573.227 162.412 573.939C163.047 574.652 163.364 575.636 163.364 576.891V577.44H157.732V577.528C157.756 578.231 157.959 578.788 158.34 579.198C158.721 579.608 159.226 579.813 159.856 579.813C160.818 579.813 161.45 579.491 161.753 578.847ZM169.912 571.039H171.487V573.061H173.215V574.386H171.487V578.488C171.487 578.903 171.577 579.208 171.758 579.403C171.938 579.594 172.224 579.689 172.615 579.689C172.771 579.689 172.971 579.677 173.215 579.652V580.963C172.903 581.017 172.617 581.044 172.358 581.044C171.484 581.044 170.857 580.878 170.476 580.546C170.1 580.214 169.912 579.662 169.912 578.891V574.386H168.645V573.061H169.912V571.039ZM175.068 581V573.024H176.584V574.247H176.702C176.814 573.852 177.07 573.527 177.471 573.273C177.876 573.019 178.337 572.892 178.855 572.892C179.153 572.892 179.387 572.914 179.558 572.958V574.511C179.368 574.447 179.075 574.416 178.679 574.416C178.079 574.416 177.588 574.589 177.207 574.936C176.831 575.282 176.643 575.734 176.643 576.291V581H175.068ZM181.909 583.893C181.636 583.893 181.418 583.881 181.257 583.856V582.501C181.37 582.521 181.541 582.531 181.77 582.531C182.146 582.531 182.446 582.445 182.671 582.274C182.896 582.104 183.076 581.818 183.213 581.417L183.33 581.029L180.444 573.024H182.158L184.158 579.359H184.282L186.274 573.024H187.944L184.971 581.33C184.629 582.296 184.236 582.965 183.792 583.336C183.352 583.708 182.725 583.893 181.909 583.893ZM196.265 579.806C196.855 579.806 197.346 579.64 197.737 579.308C198.132 578.976 198.33 578.561 198.33 578.063V577.396L196.382 577.521C195.835 577.555 195.432 577.667 195.173 577.858C194.915 578.048 194.785 578.319 194.785 578.671C194.785 579.022 194.922 579.301 195.195 579.506C195.469 579.706 195.825 579.806 196.265 579.806ZM195.862 581.132C195.081 581.132 194.441 580.915 193.943 580.48C193.45 580.041 193.203 579.462 193.203 578.744C193.203 578.031 193.459 577.472 193.972 577.067C194.485 576.657 195.217 576.422 196.169 576.364L198.33 576.239V575.551C198.33 575.126 198.191 574.801 197.913 574.577C197.634 574.347 197.229 574.232 196.697 574.232C196.257 574.232 195.891 574.311 195.598 574.467C195.31 574.618 195.122 574.835 195.034 575.119H193.511C193.589 574.435 193.923 573.891 194.514 573.485C195.11 573.075 195.862 572.87 196.77 572.87C197.766 572.87 198.535 573.107 199.077 573.581C199.624 574.049 199.897 574.706 199.897 575.551V581H198.381V579.879H198.257C198.018 580.28 197.688 580.59 197.268 580.81C196.853 581.024 196.384 581.132 195.862 581.132ZM207.639 576.913C207.639 576.117 207.446 575.485 207.061 575.016C206.675 574.542 206.147 574.306 205.479 574.306C204.81 574.306 204.29 574.54 203.918 575.009C203.547 575.473 203.362 576.107 203.362 576.913C203.362 577.719 203.547 578.356 203.918 578.825C204.29 579.289 204.81 579.521 205.479 579.521C206.147 579.521 206.675 579.286 207.061 578.817C207.446 578.349 207.639 577.714 207.639 576.913ZM205.5 584.047C204.514 584.047 203.713 583.842 203.098 583.432C202.483 583.026 202.134 582.482 202.051 581.798H203.662C203.73 582.091 203.926 582.323 204.248 582.494C204.575 582.665 205 582.75 205.522 582.75C206.177 582.75 206.687 582.602 207.053 582.304C207.424 582.011 207.61 581.601 207.61 581.073V579.542H207.493C207.253 579.972 206.921 580.304 206.497 580.539C206.072 580.768 205.583 580.883 205.032 580.883C204.021 580.883 203.218 580.524 202.622 579.806C202.031 579.083 201.736 578.122 201.736 576.92C201.736 575.7 202.034 574.723 202.629 573.991C203.225 573.258 204.031 572.892 205.046 572.892C205.593 572.892 206.091 573.019 206.541 573.273C206.99 573.522 207.327 573.864 207.551 574.298H207.676V573.024H209.185V581.066C209.185 581.979 208.853 582.704 208.188 583.241C207.524 583.778 206.628 584.047 205.5 584.047ZM214.077 579.806C214.668 579.806 215.159 579.64 215.549 579.308C215.945 578.976 216.143 578.561 216.143 578.063V577.396L214.194 577.521C213.647 577.555 213.245 577.667 212.986 577.858C212.727 578.048 212.598 578.319 212.598 578.671C212.598 579.022 212.734 579.301 213.008 579.506C213.281 579.706 213.638 579.806 214.077 579.806ZM213.674 581.132C212.893 581.132 212.253 580.915 211.755 580.48C211.262 580.041 211.016 579.462 211.016 578.744C211.016 578.031 211.272 577.472 211.785 577.067C212.297 576.657 213.03 576.422 213.982 576.364L216.143 576.239V575.551C216.143 575.126 216.003 574.801 215.725 574.577C215.447 574.347 215.042 574.232 214.509 574.232C214.07 574.232 213.704 574.311 213.411 574.467C213.123 574.618 212.935 574.835 212.847 575.119H211.323C211.401 574.435 211.736 573.891 212.327 573.485C212.922 573.075 213.674 572.87 214.583 572.87C215.579 572.87 216.348 573.107 216.89 573.581C217.437 574.049 217.71 574.706 217.71 575.551V581H216.194V579.879H216.069C215.83 580.28 215.5 580.59 215.081 580.81C214.666 581.024 214.197 581.132 213.674 581.132ZM219.98 581V573.024H221.548V581H219.98ZM221.489 571.354C221.299 571.535 221.057 571.625 220.764 571.625C220.471 571.625 220.227 571.535 220.032 571.354C219.841 571.168 219.746 570.939 219.746 570.666C219.746 570.392 219.841 570.163 220.032 569.977C220.227 569.792 220.471 569.699 220.764 569.699C221.057 569.699 221.299 569.792 221.489 569.977C221.685 570.163 221.782 570.392 221.782 570.666C221.782 570.939 221.685 571.168 221.489 571.354ZM223.862 581V573.024H225.378V574.291H225.496C225.911 573.344 226.704 572.87 227.876 572.87C228.765 572.87 229.446 573.126 229.919 573.639C230.398 574.152 230.637 574.884 230.637 575.836V581H229.062V576.232C229.062 574.953 228.489 574.313 227.341 574.313C226.76 574.313 226.296 574.496 225.95 574.862C225.608 575.224 225.437 575.714 225.437 576.334V581H223.862ZM237.031 581V569.911H238.606V581H237.031ZM243.579 579.806C244.17 579.806 244.661 579.64 245.051 579.308C245.447 578.976 245.645 578.561 245.645 578.063V577.396L243.696 577.521C243.149 577.555 242.747 577.667 242.488 577.858C242.229 578.048 242.1 578.319 242.1 578.671C242.1 579.022 242.236 579.301 242.51 579.506C242.783 579.706 243.14 579.806 243.579 579.806ZM243.176 581.132C242.395 581.132 241.755 580.915 241.257 580.48C240.764 580.041 240.518 579.462 240.518 578.744C240.518 578.031 240.774 577.472 241.287 577.067C241.799 576.657 242.532 576.422 243.484 576.364L245.645 576.239V575.551C245.645 575.126 245.505 574.801 245.227 574.577C244.949 574.347 244.543 574.232 244.011 574.232C243.572 574.232 243.206 574.311 242.913 574.467C242.625 574.618 242.437 574.835 242.349 575.119H240.825C240.903 574.435 241.238 573.891 241.829 573.485C242.424 573.075 243.176 572.87 244.084 572.87C245.081 572.87 245.85 573.107 246.392 573.581C246.938 574.049 247.212 574.706 247.212 575.551V581H245.696V579.879H245.571C245.332 580.28 245.002 580.59 244.583 580.81C244.167 581.024 243.699 581.132 243.176 581.132ZM250.01 571.039H251.584V573.061H253.313V574.386H251.584V578.488C251.584 578.903 251.675 579.208 251.855 579.403C252.036 579.594 252.322 579.689 252.712 579.689C252.869 579.689 253.069 579.677 253.313 579.652V580.963C253 581.017 252.715 581.044 252.456 581.044C251.582 581.044 250.955 580.878 250.574 580.546C250.198 580.214 250.01 579.662 250.01 578.891V574.386H248.743V573.061H250.01V571.039ZM259.751 574.774C259.399 574.398 258.933 574.21 258.352 574.21C257.771 574.21 257.292 574.398 256.917 574.774C256.541 575.15 256.331 575.651 256.287 576.276H260.315C260.295 575.646 260.107 575.146 259.751 574.774ZM260.308 578.847H261.824C261.643 579.564 261.248 580.128 260.637 580.539C260.032 580.949 259.275 581.154 258.367 581.154C257.224 581.154 256.323 580.788 255.664 580.055C255.01 579.318 254.683 578.312 254.683 577.038C254.683 575.763 255.015 574.75 255.679 573.998C256.343 573.246 257.236 572.87 258.359 572.87C259.468 572.87 260.337 573.227 260.967 573.939C261.602 574.652 261.919 575.636 261.919 576.891V577.44H256.287V577.528C256.311 578.231 256.514 578.788 256.895 579.198C257.275 579.608 257.781 579.813 258.411 579.813C259.373 579.813 260.005 579.491 260.308 578.847ZM263.809 581V573.024H265.325V574.247H265.442C265.554 573.852 265.811 573.527 266.211 573.273C266.616 573.019 267.078 572.892 267.595 572.892C267.893 572.892 268.127 572.914 268.298 572.958V574.511C268.108 574.447 267.815 574.416 267.419 574.416C266.819 574.416 266.328 574.589 265.947 574.936C265.571 575.282 265.383 575.734 265.383 576.291V581H263.809Z" fill="#5A618E"/>
<path fill-rule="evenodd" clip-rule="evenodd" d="M248.491 281.806L-56.626 249.53L35.8856 217H223.058" fill="url(#paint1_linear_730_75)" fill-opacity="0.5" style="mix-blend-mode:multiply"/>
<ellipse rx="74" ry="12" transform="matrix(-1 0 0 1 -10 109)" fill="url(#paint2_linear_730_75)"/>
<ellipse rx="15.5" ry="52" transform="matrix(-0.75471 -0.656059 -0.656059 0.75471 30.4999 103)" fill="url(#paint3_linear_730_75)"/>
<ellipse rx="23.5" ry="78.5" transform="matrix(-0.898794 -0.438371 -0.438371 0.898794 16.4999 71.5)" fill="url(#paint4_linear_730_75)"/>
<ellipse rx="22" ry="78.5" transform="matrix(-0.999848 -0.0174524 -0.0174524 0.999848 -5.99996 52.5)" fill="url(#paint5_linear_730_75)"/>
<ellipse rx="27" ry="75.5" transform="matrix(-0.961262 0.275637 0.275637 0.961262 -39.0001 69.5)" fill="url(#paint6_linear_730_75)"/>
<path fill-rule="evenodd" clip-rule="evenodd" d="M63.8303 108.819L37.9879 233.617C37.9959 233.744 37.9999 233.872 37.9999 234C37.9999 234.984 37.7639 235.948 37.3111 236.886L37.0804 238H36.6636C31.5846 245.459 12.6194 251 -10.0001 251C-32.6197 251 -51.5849 245.459 -56.6639 238H-57.0806L-57.3113 236.886C-57.7642 235.948 -58.0001 234.984 -58.0001 234C-58.0001 233.872 -57.9961 233.744 -57.9882 233.617L-83.8306 108.819C-81.2355 115.064 -49.1722 120 -10.0001 120C29.172 120 61.2352 115.064 63.8303 108.819Z" fill="url(#paint7_linear_730_75)"/>
<path fill-rule="evenodd" clip-rule="evenodd" d="M253.078 217.404H382.807V255.219L253.078 217.404Z" fill="url(#paint8_linear_730_75)"/>
<path fill-rule="evenodd" clip-rule="evenodd" d="M254.111 217.685V257.601L379.071 296.633V246.634L254.111 217.685Z" fill="url(#paint9_linear_730_75)"/>
<ellipse opacity="0.6" cx="269.889" cy="242.482" rx="6.5" ry="10.5" fill="white"/>
<path opacity="0.6" fill-rule="evenodd" clip-rule="evenodd" d="M289.013 243.318L378.844 265.388L378.77 277.22L289.939 251.15L289.013 243.318Z" fill="white"/>
<path fill-rule="evenodd" clip-rule="evenodd" d="M292.473 177.056L417.898 179.245L422.524 205.694L292.473 177.056Z" fill="url(#paint10_linear_730_75)"/>
<path fill-rule="evenodd" clip-rule="evenodd" d="M293.523 177.264L294.308 217.048L421.686 247.268L418.199 197.39L293.523 177.264Z" fill="url(#paint11_linear_730_75)"/>
<ellipse opacity="0.6" cx="309.606" cy="199.91" rx="6.5" ry="10.5" transform="rotate(-4 309.606 199.91)" fill="white"/>
<path opacity="0.6" fill-rule="evenodd" clip-rule="evenodd" d="M327.388 200.274L418.356 217.61L418.693 230.435L327.725 208.1L327.388 200.274Z" fill="white"/>
<path fill-rule="evenodd" clip-rule="evenodd" d="M112 341.713L162.826 333L217.739 344.686L117.918 356.372L112 341.713Z" fill="#8692AC" fill-opacity="0.2" style="mix-blend-mode:multiply"/>
<path fill-rule="evenodd" clip-rule="evenodd" d="M26 334.252L84.3437 332L137.344 332.556L53.8269 342.832L26 334.252Z" fill="#8692AC" fill-opacity="0.2" style="mix-blend-mode:multiply"/>
<path fill-rule="evenodd" clip-rule="evenodd" d="M29 325.855C29 325.855 36.337 337.584 45.0061 340.384C65.0975 346.872 81.7902 351.686 95.0843 354.823C123.63 361.561 142.429 344.73 142.429 344.73C142.429 344.73 191.117 349.295 215.947 344.73C223.537 343.335 247.721 336.741 247.721 336.741L134.226 308C134.226 308 120.071 320.391 104.233 323.507C97.5206 324.828 76.5505 328.961 51.5229 328.961C40.1425 328.961 29 325.855 29 325.855Z" fill="white"/>
<path fill-rule="evenodd" clip-rule="evenodd" d="M225.108 354.868L159 335.41L169.472 321.397L256.641 319L312.929 335.41" fill="url(#paint12_linear_730_75)" fill-opacity="0.36" style="mix-blend-mode:multiply"/>
<path fill-rule="evenodd" clip-rule="evenodd" d="M272.973 293.152C273.802 277.729 263.183 266.236 254.252 264.499L159.727 242.5L152.26 327.849L252.529 322.362C263.372 322.362 272.144 308.575 272.973 293.152Z" fill="url(#paint13_linear_730_75)"/>
<mask id="mask0_730_75" style="mask-type:alpha" maskUnits="userSpaceOnUse" x="152" y="242" width="122" height="86">
<path fill-rule="evenodd" clip-rule="evenodd" d="M272.973 293.152C273.802 277.729 263.183 266.236 254.252 264.499L159.727 242.5L152.26 327.849L252.529 322.362C263.372 322.362 272.144 308.575 272.973 293.152Z" fill="white"/>
</mask>
<g mask="url(#mask0_730_75)">
<path fill-rule="evenodd" clip-rule="evenodd" d="M197.32 250.176L230.745 258.061C230.745 258.061 240.942 271.15 241.452 290.803C241.961 310.457 227.229 327.824 227.229 327.824L192.014 330.339C192.014 330.339 209.024 311.828 208.819 289.136C208.614 266.445 197.32 250.176 197.32 250.176Z" fill="url(#paint14_linear_730_75)"/>
</g>
<path fill-rule="evenodd" clip-rule="evenodd" d="M234.766 292.746C234.776 292.731 234.785 292.716 234.794 292.701C236.649 289.613 234.315 284.805 229.581 281.96C225.442 279.473 220.839 279.311 218.507 281.373C221.001 282.208 223.424 283.546 224.941 285.218C228.533 289.174 231.842 291.869 234.766 292.746ZM233.471 294.09C232.575 293.741 231.657 293.263 230.722 292.667C228.338 291.147 226.076 289.055 223.654 286.387C222.235 284.824 219.812 283.576 217.415 282.849C216.022 285.938 218.353 290.431 222.863 293.14C226.742 295.471 231.028 295.76 233.471 294.09Z" fill="white"/>
<ellipse cx="156.492" cy="286.218" rx="27.5" ry="47" transform="rotate(5 156.492 286.218)" fill="url(#paint15_linear_730_75)"/>
<ellipse cx="156.037" cy="285.676" rx="21" ry="39.5" transform="rotate(5 156.037 285.676)" fill="url(#paint16_linear_730_75)"/>
<g filter="url(#filter0_d_730_75)">
<path fill-rule="evenodd" clip-rule="evenodd" d="M176.775 288.393C165.548 295.91 152.946 308.852 147.908 310.326C142.871 311.799 133.077 314.215 132.327 320.328C131.577 326.441 122.647 328.328 114.706 329.401C106.765 330.474 90.7175 330.739 89.39 334.61C88.0625 338.482 115.234 338.482 124.863 338.482C134.491 338.482 157.828 337.795 160.841 336.461C163.854 335.128 161.716 327.266 164.215 320.328C166.713 317.513 174.449 310.217 176.775 288.393Z" fill="url(#paint17_linear_730_75)"/>
</g>
<ellipse cx="129.5" cy="332.167" rx="3.5" ry="1.16667" fill="#C39078"/>
<ellipse cx="149.5" cy="333.5" rx="1.5" ry="0.5" fill="#C39078"/>
<ellipse cx="105.5" cy="334.5" rx="1.5" ry="0.5" fill="#B38670"/>
<path fill-rule="evenodd" clip-rule="evenodd" d="M330.092 395.834L252.333 358.43L317.76 357.43L321.818 353.278L404.252 380.232" fill="url(#paint18_linear_730_75)" fill-opacity="0.36" style="mix-blend-mode:multiply"/>
<path fill-rule="evenodd" clip-rule="evenodd" d="M250 349H324L322 358C322 358 314.684 364 286.644 364C258.603 364 252 358 252 358L250 349Z" fill="url(#paint19_linear_730_75)"/>
<ellipse cx="287" cy="348.5" rx="37" ry="7.5" fill="url(#paint20_linear_730_75)"/>
<mask id="mask1_730_75" style="mask-type:alpha" maskUnits="userSpaceOnUse" x="250" y="341" width="74" height="15">
<ellipse cx="287" cy="348.5" rx="37" ry="7.5" fill="white"/>
</mask>
<g mask="url(#mask1_730_75)">
<ellipse cx="287" cy="354.5" rx="35" ry="7.5" fill="url(#paint21_linear_730_75)"/>
</g>
</g>
<defs>
<filter id="filter0_d_730_75" x="72.343" y="263.393" width="117.432" height="80.0888" filterUnits="userSpaceOnUse" color-interpolation-filters="sRGB">
<feFlood flood-opacity="0" result="BackgroundImageFix"/>
<feColorMatrix in="SourceAlpha" type="matrix" values="0 0 0 0 0 0 0 0 0 0 0 0 0 0 0 0 0 0 127 0" result="hardAlpha"/>
<feOffset dx="-2" dy="-10"/>
<feGaussianBlur stdDeviation="7.5"/>
<feColorMatrix type="matrix" values="0 0 0 0 0.807779 0 0 0 0 0.847247 0 0 0 0 0.86352 0 0 0 0.484771 0"/>
<feBlend mode="normal" in2="BackgroundImageFix" result="effect1_dropShadow_730_75"/>
<feBlend mode="normal" in="SourceGraphic" in2="effect1_dropShadow_730_75" result="shape"/>
</filter>
<linearGradient id="paint0_linear_730_75" x1="-2.35066" y1="-117.109" x2="-81.4583" y2="159.434" gradientUnits="userSpaceOnUse">
<stop stop-color="white"/>
<stop offset="1" stop-color="#DFE2E6"/>
</linearGradient>
<linearGradient id="paint1_linear_730_75" x1="179.936" y1="259.469" x2="177.753" y2="210.109" gradientUnits="userSpaceOnUse">
<stop stop-color="white" stop-opacity="0.01"/>
<stop offset="1" stop-color="#0D2034"/>
</linearGradient>
<linearGradient id="paint2_linear_730_75" x1="-31.4574" y1="7.16589" x2="-31.2394" y2="24.7676" gradientUnits="userSpaceOnUse">
<stop stop-color="#D9DDDF"/>
<stop offset="1" stop-color="#929BA3"/>
</linearGradient>
<linearGradient id="paint3_linear_730_75" x1="-4.12914" y1="38.8166" x2="30.6372" y2="51.1514" gradientUnits="userSpaceOnUse">
<stop stop-color="#B8E3AC"/>
<stop offset="1" stop-color="#5B944E"/>
</linearGradient>
<linearGradient id="paint4_linear_730_75" x1="-14.2009" y1="15.6502" x2="52.266" y2="97.0282" gradientUnits="userSpaceOnUse">
<stop stop-color="#B8E3AC"/>
<stop offset="1" stop-color="#437737"/>
</linearGradient>
<linearGradient id="paint5_linear_730_75" x1="-32.1418" y1="124.94" x2="37.3279" y2="137.741" gradientUnits="userSpaceOnUse">
<stop stop-color="#BEEBB2"/>
<stop offset="1" stop-color="#376B2C"/>
</linearGradient>
<linearGradient id="paint6_linear_730_75" x1="0" y1="0" x2="0" y2="151" gradientUnits="userSpaceOnUse">
<stop stop-color="#A2D095"/>
<stop offset="1" stop-color="#5E9252"/>
</linearGradient>
<linearGradient id="paint7_linear_730_75" x1="-50.4828" y1="131.823" x2="49.3968" y2="131.823" gradientUnits="userSpaceOnUse">
<stop stop-color="#BDC5CE"/>
<stop offset="1" stop-color="white"/>
</linearGradient>
<linearGradient id="paint8_linear_730_75" x1="338.383" y1="237.108" x2="338.851" y2="218.078" gradientUnits="userSpaceOnUse">
<stop stop-color="#E6EBF0"/>
<stop offset="1" stop-color="#B5C0CB"/>
</linearGradient>
<linearGradient id="paint9_linear_730_75" x1="278.349" y1="204.182" x2="258.44" y2="260.567" gradientUnits="userSpaceOnUse">
<stop stop-color="#EAEDF2"/>
<stop offset="1" stop-color="#D4D9DF"/>
</linearGradient>
<linearGradient id="paint10_linear_730_75" x1="383.078" y1="187.18" x2="382.388" y2="177.304" gradientUnits="userSpaceOnUse">
<stop stop-color="#E5EAEE"/>
<stop offset="1" stop-color="#C8D0D9"/>
</linearGradient>
<linearGradient id="paint11_linear_730_75" x1="314.775" y1="162.271" x2="298.918" y2="219.805" gradientUnits="userSpaceOnUse">
<stop stop-color="#EAEDF2"/>
<stop offset="1" stop-color="#D4D9DF"/>
</linearGradient>
<linearGradient id="paint12_linear_730_75" x1="276.774" y1="336.717" x2="276.673" y2="322.948" gradientUnits="userSpaceOnUse">
<stop stop-color="white" stop-opacity="0.01"/>
<stop offset="1" stop-color="#788590"/>
</linearGradient>
<linearGradient id="paint13_linear_730_75" x1="189.691" y1="288.122" x2="185.279" y2="338.545" gradientUnits="userSpaceOnUse">
<stop stop-color="#FAFAFA"/>
<stop offset="1" stop-color="#D6D6D6"/>
</linearGradient>
<linearGradient id="paint14_linear_730_75" x1="189.834" y1="260.407" x2="228.018" y2="320.698" gradientUnits="userSpaceOnUse">
<stop stop-color="#E1EDCF"/>
<stop offset="1" stop-color="#C0D6A2"/>
</linearGradient>
<linearGradient id="paint15_linear_730_75" x1="257.236" y1="220.285" x2="172.474" y2="200.571" gradientUnits="userSpaceOnUse">
<stop stop-color="#D6D6D6"/>
<stop offset="1" stop-color="white"/>
</linearGradient>
<linearGradient id="paint16_linear_730_75" x1="112.479" y1="307.892" x2="176.986" y2="324.104" gradientUnits="userSpaceOnUse">
<stop stop-color="white"/>
<stop offset="1" stop-color="#D0D5D9"/>
</linearGradient>
<linearGradient id="paint17_linear_730_75" x1="124.011" y1="356.751" x2="162.567" y2="310.623" gradientUnits="userSpaceOnUse">
<stop stop-color="#D59582"/>
<stop offset="1" stop-color="#89635A"/>
</linearGradient>
<linearGradient id="paint18_linear_730_75" x1="358.826" y1="371.973" x2="358.648" y2="350.518" gradientUnits="userSpaceOnUse">
<stop stop-color="white" stop-opacity="0.01"/>
<stop offset="1" stop-color="#788590"/>
</linearGradient>
<linearGradient id="paint19_linear_730_75" x1="274.356" y1="337.334" x2="270.522" y2="369.335" gradientUnits="userSpaceOnUse">
<stop stop-color="#E1E7ED"/>
<stop offset="1" stop-color="white"/>
</linearGradient>
<linearGradient id="paint20_linear_730_75" x1="332.612" y1="345.16" x2="323.559" y2="316.998" gradientUnits="userSpaceOnUse">
<stop stop-color="white"/>
<stop offset="1" stop-color="#D2D8DE"/>
</linearGradient>
<linearGradient id="paint21_linear_730_75" x1="260.475" y1="344.599" x2="259.273" y2="357.886" gradientUnits="userSpaceOnUse">
<stop stop-color="#F8FAFB"/>
<stop offset="1" stop-color="#EFF3F6"/>
</linearGradient>
<clipPath id="clip0_730_75">
<rect width="375" height="883.827" fill="white"/>
</clipPath>
</defs>
</svg>
